<?xml version="1.0" encoding="UTF-8" standalone="no"?>
<!DOCTYPE svg PUBLIC "-//W3C//DTD SVG 1.1//EN" "http://www.w3.org/Graphics/SVG/1.1/DTD/svg11.dtd">
<svg width="100%" height="100%" viewBox="0 0 21 21" version="1.1" xmlns="http://www.w3.org/2000/svg" xmlns:xlink="http://www.w3.org/1999/xlink" xml:space="preserve" xmlns:serif="http://www.serif.com/" style="fill-rule:evenodd;clip-rule:evenodd;stroke-linejoin:round;stroke-miterlimit:1.41421;">
    <g transform="matrix(0.129192,0,0,0.129192,-5.6945,-4.23197)">
        <g id="Icon">
            <g>
                <g transform="matrix(8.33333,0,0,8.33333,199.482,120.211)">
                    <path d="M0,-1.483C0,-1.32 -0.133,-1.187 -0.296,-1.187L-0.741,-1.187L-17.05,-1.187L-17.495,-1.187C-17.658,-1.187 -17.791,-1.32 -17.791,-1.483L-17.791,-3.262C-17.791,-3.425 -17.658,-3.559 -17.495,-3.559L-10.017,-3.559L-10.249,-3.158C-10.515,-2.705 -10.357,-2.124 -9.899,-1.861L-9.462,-1.61C-9.311,-1.525 -9.146,-1.483 -8.984,-1.483C-8.654,-1.483 -8.332,-1.653 -8.155,-1.958L-7.225,-3.559L-0.296,-3.559C-0.133,-3.559 0,-3.425 0,-3.262L0,-1.483ZM-2.977,7.468C-3.004,7.607 -3.125,7.709 -3.268,7.709L-14.523,7.709C-14.666,7.709 -14.787,7.607 -14.814,7.468L-16.335,-0.593L-1.456,-0.593L-2.977,7.468ZM-9.737,-2.86L-9.331,-3.559L-8.986,-4.152L-6.158,-9.013C-6.094,-9.125 -5.972,-9.193 -5.841,-9.193C-5.777,-9.193 -5.715,-9.176 -5.659,-9.144L-5.22,-8.893C-5.137,-8.844 -5.078,-8.767 -5.053,-8.675C-5.028,-8.585 -5.041,-8.49 -5.088,-8.408L-7.564,-4.152L-7.909,-3.559L-8.667,-2.255C-8.732,-2.144 -8.854,-2.076 -8.984,-2.076C-9.048,-2.076 -9.11,-2.092 -9.167,-2.125L-9.605,-2.376C-9.688,-2.424 -9.748,-2.502 -9.773,-2.593C-9.797,-2.684 -9.785,-2.779 -9.737,-2.86M-0.296,-4.152L-6.879,-4.152L-4.576,-8.11C-4.312,-8.564 -4.469,-9.145 -4.927,-9.408L-5.364,-9.658C-5.515,-9.744 -5.68,-9.786 -5.841,-9.786C-6.172,-9.786 -6.493,-9.615 -6.67,-9.311L-9.671,-4.152L-17.495,-4.152C-17.985,-4.152 -18.385,-3.753 -18.385,-3.262L-18.385,-1.483C-18.385,-0.992 -17.985,-0.593 -17.495,-0.593L-16.938,-0.593L-15.396,7.578C-15.318,7.998 -14.95,8.303 -14.523,8.303L-3.268,8.303C-2.841,8.303 -2.473,7.998 -2.395,7.578L-0.853,-0.593L-0.296,-0.593C0.194,-0.593 0.594,-0.992 0.594,-1.483L0.594,-3.262C0.594,-3.753 0.194,-4.152 -0.296,-4.152" style="fill:rgb(255,250,240);fill-rule:nonzero;"/>
                </g>
                <g transform="matrix(8.33333,0,0,8.33333,91.995,122.681)">
                    <path d="M0,6.227C0.163,6.227 0.296,6.094 0.296,5.931L0.296,0.296C0.296,0.133 0.163,0 0,0C-0.164,0 -0.297,0.133 -0.297,0.296L-0.297,5.931C-0.297,6.094 -0.164,6.227 0,6.227" style="fill:rgb(255,250,240);fill-rule:nonzero;"/>
                </g>
                <g transform="matrix(8.33333,0,0,8.33333,114.236,122.681)">
                    <path d="M0,6.227C0.163,6.227 0.296,6.094 0.296,5.931L0.296,0.296C0.296,0.133 0.163,0 0,0C-0.164,0 -0.297,0.133 -0.297,0.296L-0.297,5.931C-0.297,6.094 -0.164,6.227 0,6.227" style="fill:rgb(255,250,240);fill-rule:nonzero;"/>
                </g>
                <g transform="matrix(8.33333,0,0,8.33333,136.469,122.681)">
                    <path d="M0,6.227C0.164,6.227 0.297,6.094 0.297,5.931L0.297,0.296C0.297,0.133 0.164,0 0,0C-0.163,0 -0.296,0.133 -0.296,0.296L-0.296,5.931C-0.296,6.094 -0.163,6.227 0,6.227" style="fill:rgb(255,250,240);fill-rule:nonzero;"/>
                </g>
                <g transform="matrix(8.33333,0,0,8.33333,158.71,122.681)">
                    <path d="M0,6.227C0.164,6.227 0.297,6.094 0.297,5.931L0.297,0.296C0.297,0.133 0.164,0 0,0C-0.163,0 -0.296,0.133 -0.296,0.296L-0.296,5.931C-0.296,6.094 -0.163,6.227 0,6.227" style="fill:rgb(255,250,240);fill-rule:nonzero;"/>
                </g>
            </g>
        </g>
    </g>
</svg>
