<?xml version="1.0" encoding="UTF-8" standalone="no"?>
<svg width="62px" height="61px" viewBox="0 0 62 61" version="1.1" xmlns="http://www.w3.org/2000/svg" xmlns:xlink="http://www.w3.org/1999/xlink">
    <!-- Generator: Sketch 46.2 (44496) - http://www.bohemiancoding.com/sketch -->
    <title>Group 2</title>
    <desc>Created with Sketch.</desc>
    <defs></defs>
    <g id="Pattern-Library" stroke="none" stroke-width="1" fill="none" fill-rule="evenodd">
        <g id="Icons" transform="translate(-786.000000, -859.000000)">
            <g id="Group-2" transform="translate(787.000000, 860.000000)">
                <path d="M59.8338846,53.81205 C59.8338846,56.30655 57.7853285,58.34505 55.278523,58.34505 L4.85148499,58.34505 C2.34618689,58.34505 0.297630867,56.30655 0.297630867,53.81205 L0.297630867,12.86655 C0.297630867,10.37355 2.34618689,8.33355 4.85148499,8.33355 L55.278523,8.33355 C57.7853285,8.33355 59.8338846,10.37355 59.8338846,12.86655 L59.8338846,53.81205 Z" id="Stroke-470" stroke="#1D1D1B" stroke-width="1.56702003"></path>
                <path d="M0.297329387,19.2081 L59.8335831,19.2081" id="Stroke-472" stroke="#1D1D1B" stroke-width="1.47000003"></path>
                <path d="M9.84384165,8.1777 L9.84384165,2.4582 C9.84384165,1.2897 10.8055626,0.3342 11.9813342,0.3342 L12.7320192,0.3342 C13.9062835,0.3342 14.8695118,1.2897 14.8695118,2.4582 L14.8695118,8.3337" id="Stroke-474" stroke="#1D1D1B" stroke-width="1.47000003"></path>
                <path d="M46.0242956,8.1777 L46.0242956,2.4582 C46.0242956,1.2897 46.9860165,0.3342 48.1602808,0.3342 L48.9124732,0.3342 C50.0867374,0.3342 51.0484584,1.2897 51.0484584,2.4582 L51.0484584,8.3337" id="Stroke-476" stroke="#1D1D1B" stroke-width="1.47000003"></path>
                <path d="M27.9339932,8.1777 L27.9339932,2.4582 C27.9339932,1.2897 28.8957142,0.3342 30.0699784,0.3342 L30.8221708,0.3342 C31.9964351,0.3342 32.958156,1.2897 32.958156,2.4582 L32.958156,8.3337" id="Stroke-478" stroke="#1D1D1B" stroke-width="1.47000003"></path>
                <path d="M52.9298438,30.2706 C52.9298438,30.8556 52.4504907,31.3341 51.8626049,31.3341 L47.6539452,31.3341 C47.0660594,31.3341 46.5867063,30.8556 46.5867063,30.2706 L46.5867063,26.5221 C46.5867063,25.9356 47.0660594,25.4586 47.6539452,25.4586 L51.8626049,25.4586 C52.4504907,25.4586 52.9298438,25.9356 52.9298438,26.5221 L52.9298438,30.2706 Z" id="Fill-480" fill="#1D1D1B"></path>
                <path d="M39.9711818,30.2706 C39.9711818,30.8556 39.4903214,31.3341 38.9024355,31.3341 L34.6952833,31.3341 C34.1073975,31.3341 33.626537,30.8556 33.626537,30.2706 L33.626537,26.5221 C33.626537,25.9356 34.1073975,25.4586 34.6952833,25.4586 L38.9024355,25.4586 C39.4903214,25.4586 39.9711818,25.9356 39.9711818,26.5221 L39.9711818,30.2706 Z" id="Fill-482" fill="#1D1D1B"></path>
                <path d="M27.0125199,30.2706 C27.0125199,30.8556 26.5316594,31.3341 25.9437736,31.3341 L21.7366214,31.3341 C21.1472281,31.3341 20.6678751,30.8556 20.6678751,30.2706 L20.6678751,26.5221 C20.6678751,25.9356 21.1472281,25.4586 21.7366214,25.4586 L25.9437736,25.4586 C26.5316594,25.4586 27.0125199,25.9356 27.0125199,26.5221 L27.0125199,30.2706 Z" id="Fill-484" fill="#1D1D1B"></path>
                <path d="M14.0523505,30.2706 C14.0523505,30.8556 13.5729975,31.3341 12.9836042,31.3341 L8.77645201,31.3341 C8.18856617,31.3341 7.70770571,30.8556 7.70770571,30.2706 L7.70770571,26.5221 C7.70770571,25.9356 8.18856617,25.4586 8.77645201,25.4586 L12.9836042,25.4586 C13.5729975,25.4586 14.0523505,25.9356 14.0523505,26.5221 L14.0523505,30.2706 Z" id="Fill-486" fill="#1D1D1B"></path>
                <path d="M52.9298438,40.7706 C52.9298438,41.3556 52.4504907,41.8341 51.8626049,41.8341 L47.6539452,41.8341 C47.0660594,41.8341 46.5867063,41.3556 46.5867063,40.7706 L46.5867063,37.0221 C46.5867063,36.4371 47.0660594,35.9586 47.6539452,35.9586 L51.8626049,35.9586 C52.4504907,35.9586 52.9298438,36.4371 52.9298438,37.0221 L52.9298438,40.7706 Z" id="Fill-488" fill="#1D1D1B"></path>
                <path d="M39.9711818,40.7706 C39.9711818,41.3556 39.4903214,41.8341 38.9024355,41.8341 L34.6952833,41.8341 C34.1073975,41.8341 33.626537,41.3556 33.626537,40.7706 L33.626537,37.0221 C33.626537,36.4371 34.1073975,35.9586 34.6952833,35.9586 L38.9024355,35.9586 C39.4903214,35.9586 39.9711818,36.4371 39.9711818,37.0221 L39.9711818,40.7706 Z" id="Fill-490" fill="#1D1D1B"></path>
                <path d="M27.0125199,40.7706 C27.0125199,41.3556 26.5316594,41.8341 25.9437736,41.8341 L21.7366214,41.8341 C21.1472281,41.8341 20.6678751,41.3556 20.6678751,40.7706 L20.6678751,37.0221 C20.6678751,36.4371 21.1472281,35.9586 21.7366214,35.9586 L25.9437736,35.9586 C26.5316594,35.9586 27.0125199,36.4371 27.0125199,37.0221 L27.0125199,40.7706 Z" id="Fill-492" fill="#1D1D1B"></path>
                <path d="M14.0523505,40.7706 C14.0523505,41.3556 13.5729975,41.8341 12.9836042,41.8341 L8.77645201,41.8341 C8.18856617,41.8341 7.70770571,41.3556 7.70770571,40.7706 L7.70770571,37.0221 C7.70770571,36.4371 8.18856617,35.9586 8.77645201,35.9586 L12.9836042,35.9586 C13.5729975,35.9586 14.0523505,36.4371 14.0523505,37.0221 L14.0523505,40.7706 Z" id="Fill-494" fill="#1D1D1B"></path>
                <path d="M52.9312004,51.2706 C52.9312004,51.8571 52.45034,52.3341 51.8624541,52.3341 L47.6553019,52.3341 C47.0674161,52.3341 46.5865556,51.8571 46.5865556,51.2706 L46.5865556,47.5221 C46.5865556,46.9371 47.0674161,46.4586 47.6553019,46.4586 L51.8624541,46.4586 C52.45034,46.4586 52.9312004,46.9371 52.9312004,47.5221 L52.9312004,51.2706 Z" id="Fill-496" fill="#1D1D1B"></path>
                <path d="M39.9711818,51.2706 C39.9711818,51.8571 39.4918288,52.3341 38.9039429,52.3341 L34.6952833,52.3341 C34.1073975,52.3341 33.6280444,51.8571 33.6280444,51.2706 L33.6280444,47.5221 C33.6280444,46.9371 34.1073975,46.4586 34.6952833,46.4586 L38.9039429,46.4586 C39.4918288,46.4586 39.9711818,46.9371 39.9711818,47.5221 L39.9711818,51.2706 Z" id="Fill-498" fill="#1D1D1B"></path>
                <path d="M27.0125199,51.2706 C27.0125199,51.8571 26.5316594,52.3341 25.9437736,52.3341 L21.7366214,52.3341 C21.1487355,52.3341 20.6678751,51.8571 20.6678751,51.2706 L20.6678751,47.5221 C20.6678751,46.9371 21.1487355,46.4586 21.7366214,46.4586 L25.9437736,46.4586 C26.5316594,46.4586 27.0125199,46.9371 27.0125199,47.5221 L27.0125199,51.2706 Z" id="Fill-500" fill="#1D1D1B"></path>
                <path d="M14.0523505,51.2706 C14.0523505,51.8571 13.5729975,52.3341 12.9851116,52.3341 L8.77645201,52.3341 C8.18856617,52.3341 7.70921311,51.8571 7.70921311,51.2706 L7.70921311,47.5221 C7.70921311,46.9371 8.18856617,46.4586 8.77645201,46.4586 L12.9851116,46.4586 C13.5729975,46.4586 14.0523505,46.9371 14.0523505,47.5221 L14.0523505,51.2706 Z" id="Fill-502" fill="#1D1D1B"></path>
            </g>
        </g>
    </g>
</svg>