<?xml version="1.0" encoding="utf-8"?>
<!-- Generator: Adobe Illustrator 23.0.3, SVG Export Plug-In . SVG Version: 6.00 Build 0)  -->
<svg version="1.1" id="Layer_1" xmlns="http://www.w3.org/2000/svg" xmlns:xlink="http://www.w3.org/1999/xlink" x="0px" y="0px"
	 viewBox="0 0 41 41" style="enable-background:new 0 0 41 41;" xml:space="preserve">
<style type="text/css">
	.st0{fill:#9C9A9C;}
</style>
<path class="st0" d="M34.5,37H6c-1.2,0-2.2-1-2.2-2.2V6.4c0-1.2,1-2.2,2.2-2.2h28.4c1.2,0,2.2,1,2.2,2.2v28.4
	C36.6,36,35.7,37,34.5,37z M6,5.6c-0.5,0-0.8,0.4-0.8,0.8v28.4c0,0.5,0.4,0.8,0.8,0.8h28.4c0.5,0,0.8-0.4,0.8-0.8V6.4
	c0-0.5-0.4-0.8-0.8-0.8H6z"/>
<path class="st0" d="M26.7,29.7l-6.3-4.2l-6.3,4.2l2.1-7.3l-5.9-4.7l7.5-0.3l2.6-7.1l2.6,7.1l7.5,0.3l-5.9,4.7L26.7,29.7z
	 M13.2,18.7l4.2,3.3l-1.5,5.2l4.5-3l4.5,3L23.4,22l4.2-3.3l-5.4-0.2l-1.9-5.1l-1.9,5.1L13.2,18.7z"/>
</svg>
