<?xml version="1.0" encoding="UTF-8" standalone="no"?>
<!DOCTYPE svg PUBLIC "-//W3C//DTD SVG 1.1//EN" "http://www.w3.org/Graphics/SVG/1.1/DTD/svg11.dtd">
<svg width="100%" height="100%" viewBox="0 0 270 109" version="1.1" xmlns="http://www.w3.org/2000/svg" xmlns:xlink="http://www.w3.org/1999/xlink" xml:space="preserve" xmlns:serif="http://www.serif.com/" style="fill-rule:evenodd;clip-rule:evenodd;stroke-linejoin:round;stroke-miterlimit:1.41421;">
    <g id="CII-logo" serif:id="CII logo" transform="matrix(1.01118,0,0,1.01118,-165.185,-56.0612)">
        <g transform="matrix(1,0,0,1,245.347,70.3186)">
            <path d="M0,13.896C-3.876,13.896 -6.736,10.844 -6.736,6.967C-6.736,3.127 -3.896,0 0.059,0C2.495,0 3.955,0.863 5.299,2.13L4.261,3.243C3.13,2.168 1.863,1.4 0.039,1.4C-2.936,1.4 -5.163,3.799 -5.163,6.928C-5.163,10.058 -2.917,12.495 0.039,12.495C1.881,12.495 3.091,11.785 4.376,10.556L5.376,11.535C3.973,12.955 2.438,13.896 0,13.896" style="fill:rgb(255,252,246);fill-rule:nonzero;"/>
        </g>
        <g transform="matrix(1,0,0,1,254.22,69.9726)">
            <path d="M0,14.012L-1.478,14.012L-1.478,0L0,0L0,5.816C0.652,4.741 1.69,3.877 3.397,3.877C5.797,3.877 7.198,5.49 7.198,7.85L7.198,14.012L5.72,14.012L5.72,8.215C5.72,6.372 4.723,5.221 2.976,5.221C1.267,5.221 0,6.469 0,8.33L0,14.012Z" style="fill:rgb(255,252,246);fill-rule:nonzero;"/>
        </g>
        <g transform="matrix(1,0,0,1,264.552,77.0936)">
            <path d="M0,3.935C0,5.201 1.151,5.931 2.496,5.931C4.318,5.931 5.816,4.818 5.816,3.244L5.816,2.284C5.086,2.073 4.107,1.861 2.897,1.861C1.036,1.861 0,2.668 0,3.935M-0.174,-1.133L-0.614,-2.342C0.479,-2.84 1.555,-3.167 2.994,-3.167C5.701,-3.167 7.217,-1.785 7.217,0.826L7.217,6.891L5.796,6.891L5.796,5.394C5.104,6.296 3.953,7.102 2.208,7.102C0.363,7.102 -1.498,6.066 -1.498,3.992C-1.498,1.881 0.229,0.768 2.745,0.768C4.012,0.768 4.914,0.94 5.796,1.19L5.796,0.845C5.796,-0.941 4.701,-1.861 2.84,-1.861C1.668,-1.861 0.748,-1.555 -0.174,-1.133" style="fill:rgb(255,252,246);fill-rule:nonzero;"/>
        </g>
        <g transform="matrix(1,0,0,1,275.629,73.8116)">
            <path d="M0,10.173L-1.478,10.173L-1.478,0.249L0,0.249L0,2.84C0.729,1.19 2.169,0 4.05,0.076L4.05,1.67L3.935,1.67C1.768,1.67 0,3.225 0,6.219L0,10.173Z" style="fill:rgb(255,252,246);fill-rule:nonzero;"/>
        </g>
        <g transform="matrix(1,0,0,1,283.539,74.0599)">
            <path d="M0,7.103C0,8.312 0.671,8.754 1.67,8.754C2.169,8.754 2.591,8.658 3.11,8.408L3.11,9.675C2.591,9.944 2.036,10.097 1.324,10.097C-0.27,10.097 -1.478,9.311 -1.478,7.295L-1.478,1.306L-2.86,1.306L-2.86,0L-1.478,0L-1.478,-2.994L0,-2.994L0,0L3.148,0L3.148,1.306L0,1.306L0,7.103Z" style="fill:rgb(255,252,246);fill-rule:nonzero;"/>
        </g>
        <g transform="matrix(1,0,0,1,295.902,79.5884)">
            <path d="M0,-1.113C-0.154,-2.917 -1.19,-4.491 -3.167,-4.491C-4.896,-4.491 -6.199,-3.051 -6.392,-1.113L0,-1.113ZM-2.899,3.34C-1.537,3.34 -0.576,2.783 0.231,1.939L1.151,2.764C0.154,3.878 -1.056,4.626 -2.938,4.626C-5.662,4.626 -7.89,2.534 -7.89,-0.556C-7.89,-3.436 -5.873,-5.739 -3.128,-5.739C-0.192,-5.739 1.498,-3.397 1.498,-0.479C1.498,-0.345 1.498,-0.192 1.478,-0.019L-6.392,-0.019C-6.181,2.131 -4.644,3.34 -2.899,3.34" style="fill:rgb(255,252,246);fill-rule:nonzero;"/>
        </g>
        <g transform="matrix(1,0,0,1,301.086,73.8116)">
            <path d="M0,10.173L-1.478,10.173L-1.478,0.249L0,0.249L0,2.84C0.729,1.19 2.169,0 4.05,0.076L4.05,1.67L3.935,1.67C1.768,1.67 0,3.225 0,6.219L0,10.173Z" style="fill:rgb(255,252,246);fill-rule:nonzero;"/>
        </g>
        <g transform="matrix(1,0,0,1,313.851,79.5884)">
            <path d="M0,-1.113C-0.154,-2.917 -1.19,-4.491 -3.166,-4.491C-4.896,-4.491 -6.199,-3.051 -6.392,-1.113L0,-1.113ZM-2.898,3.34C-1.536,3.34 -0.576,2.783 0.231,1.939L1.151,2.764C0.154,3.878 -1.056,4.626 -2.937,4.626C-5.662,4.626 -7.889,2.534 -7.889,-0.556C-7.889,-3.436 -5.873,-5.739 -3.127,-5.739C-0.192,-5.739 1.498,-3.397 1.498,-0.479C1.498,-0.345 1.498,-0.192 1.478,-0.019L-6.392,-0.019C-6.181,2.131 -4.644,3.34 -2.898,3.34" style="fill:rgb(255,252,246);fill-rule:nonzero;"/>
        </g>
        <g transform="matrix(1,0,0,1,321.609,78.9941)">
            <path d="M0,-3.82C-1.92,-3.82 -3.495,-2.4 -3.495,0.018C-3.495,2.38 -1.881,3.877 0,3.877C1.842,3.877 3.588,2.342 3.588,0.018C3.588,-2.284 1.842,-3.82 0,-3.82M3.531,4.991L3.531,2.994C2.724,4.184 1.555,5.201 -0.27,5.201C-2.649,5.201 -5.011,3.32 -5.011,0.038C-5.011,-3.225 -2.649,-5.145 -0.27,-5.145C1.573,-5.145 2.763,-4.146 3.531,-3.033L3.531,-9.021L5.009,-9.021L5.009,4.991L3.531,4.991Z" style="fill:rgb(255,252,246);fill-rule:nonzero;"/>
        </g>
        <g transform="matrix(-1,-0,-0,1,480.198,-25.228)">
            <rect x="239.341" y="113.421" width="1.516" height="13.436" style="fill:rgb(255,252,246);"/>
        </g>
        <g transform="matrix(1,0,0,1,244.869,91.4937)">
            <path d="M0,10.135L-1.478,10.135L-1.478,0.211L0,0.211L0,1.939C0.653,0.864 1.691,0 3.397,0C5.798,0 7.199,1.613 7.199,3.973L7.199,10.135L5.721,10.135L5.721,4.339C5.721,2.496 4.723,1.344 2.976,1.344C1.267,1.344 0,2.592 0,4.454L0,10.135Z" style="fill:rgb(255,252,246);fill-rule:nonzero;"/>
        </g>
        <g transform="matrix(1,0,0,1,257.733,91.5321)">
            <path d="M0,10.288C-1.419,10.288 -2.994,9.732 -4.107,8.83L-3.359,7.774C-2.282,8.58 -1.092,9.04 0.077,9.04C1.267,9.04 2.13,8.426 2.13,7.468L2.13,7.429C2.13,6.431 0.961,6.046 -0.345,5.682C-1.899,5.241 -3.626,4.704 -3.626,2.879L-3.626,2.841C-3.626,1.133 -2.206,0 -0.25,0C0.961,0 2.305,0.422 3.323,1.094L2.649,2.208C1.729,1.613 0.673,1.248 -0.288,1.248C-1.458,1.248 -2.206,1.862 -2.206,2.687L-2.206,2.726C-2.206,3.666 -0.977,4.032 0.347,4.434C1.881,4.895 3.533,5.49 3.533,7.275L3.533,7.313C3.533,9.195 1.979,10.288 0,10.288" style="fill:rgb(255,252,246);fill-rule:nonzero;"/>
        </g>
        <g transform="matrix(1,0,0,1,270.289,101.84)">
            <path d="M0,-10.135L1.459,-10.135L1.459,-0.211L0,-0.211L0,-1.938C-0.671,-0.864 -1.688,0 -3.397,0C-5.795,0 -7.196,-1.612 -7.196,-3.973L-7.196,-10.135L-5.718,-10.135L-5.718,-4.338C-5.718,-2.496 -4.721,-1.343 -2.974,-1.343C-1.285,-1.343 0,-2.591 0,-4.453L0,-10.135Z" style="fill:rgb(255,252,246);fill-rule:nonzero;"/>
        </g>
        <g transform="matrix(1,0,0,1,275.4,91.4557)">
            <path d="M0,10.173L-1.478,10.173L-1.478,0.249L0,0.249L0,2.841C0.729,1.19 2.169,0 4.05,0.077L4.05,1.67L3.937,1.67C1.768,1.67 0,3.225 0,6.219L0,10.173Z" style="fill:rgb(255,252,246);fill-rule:nonzero;"/>
        </g>
        <g transform="matrix(1,0,0,1,281.581,94.7381)">
            <path d="M0,3.935C0,5.201 1.151,5.931 2.496,5.931C4.318,5.931 5.816,4.818 5.816,3.244L5.816,2.284C5.086,2.073 4.107,1.861 2.897,1.861C1.036,1.861 0,2.668 0,3.935M-0.174,-1.133L-0.614,-2.342C0.479,-2.841 1.555,-3.167 2.994,-3.167C5.7,-3.167 7.217,-1.786 7.217,0.826L7.217,6.891L5.795,6.891L5.795,5.393C5.104,6.296 3.953,7.102 2.208,7.102C0.363,7.102 -1.498,6.065 -1.498,3.992C-1.498,1.881 0.229,0.768 2.745,0.768C4.012,0.768 4.914,0.94 5.795,1.19L5.795,0.845C5.795,-0.941 4.701,-1.862 2.84,-1.862C1.668,-1.862 0.748,-1.556 -0.174,-1.133" style="fill:rgb(255,252,246);fill-rule:nonzero;"/>
        </g>
        <g transform="matrix(1,0,0,1,292.657,91.4937)">
            <path d="M0,10.135L-1.478,10.135L-1.478,0.211L0,0.211L0,1.939C0.653,0.864 1.691,0 3.397,0C5.798,0 7.199,1.613 7.199,3.973L7.199,10.135L5.721,10.135L5.721,4.339C5.721,2.496 4.724,1.344 2.976,1.344C1.267,1.344 0,2.592 0,4.454L0,10.135Z" style="fill:rgb(255,252,246);fill-rule:nonzero;"/>
        </g>
        <g transform="matrix(1,0,0,1,306.713,91.4937)">
            <path d="M0,10.365C-2.899,10.365 -5.088,8.005 -5.088,5.202C-5.088,2.38 -2.899,0 0,0C1.879,0 3.051,0.787 3.973,1.766L2.994,2.803C2.206,1.978 1.324,1.306 -0.021,1.306C-2.036,1.306 -3.572,3.014 -3.572,5.163C-3.572,7.333 -1.997,9.041 0.075,9.041C1.342,9.041 2.321,8.408 3.107,7.563L4.048,8.446C3.051,9.559 1.861,10.365 0,10.365" style="fill:rgb(255,252,246);fill-rule:nonzero;"/>
        </g>
        <g transform="matrix(1,0,0,1,319.421,97.2329)">
            <path d="M0,-1.113C-0.154,-2.917 -1.19,-4.491 -3.167,-4.491C-4.896,-4.491 -6.199,-3.052 -6.392,-1.113L0,-1.113ZM-2.898,3.34C-1.537,3.34 -0.576,2.783 0.231,1.939L1.151,2.764C0.154,3.878 -1.056,4.626 -2.938,4.626C-5.662,4.626 -7.89,2.534 -7.89,-0.556C-7.89,-3.436 -5.873,-5.739 -3.128,-5.739C-0.192,-5.739 1.498,-3.398 1.498,-0.48C1.498,-0.345 1.498,-0.192 1.478,-0.019L-6.392,-0.019C-6.181,2.131 -4.644,3.34 -2.898,3.34" style="fill:rgb(255,252,246);fill-rule:nonzero;"/>
        </g>
        <g transform="matrix(-1,-0,-0,1,480.198,12.136)">
            <rect x="239.341" y="94.739" width="1.516" height="13.436" style="fill:rgb(255,252,246);"/>
        </g>
        <g transform="matrix(1,0,0,1,244.869,110.177)">
            <path d="M0,10.134L-1.478,10.134L-1.478,0.211L0,0.211L0,1.938C0.653,0.863 1.691,0 3.397,0C5.798,0 7.199,1.612 7.199,3.973L7.199,10.134L5.721,10.134L5.721,4.338C5.721,2.495 4.723,1.344 2.976,1.344C1.267,1.344 0,2.591 0,4.454L0,10.134Z" style="fill:rgb(255,252,246);fill-rule:nonzero;"/>
        </g>
        <g transform="matrix(1,0,0,1,257.733,110.216)">
            <path d="M0,10.288C-1.419,10.288 -2.994,9.73 -4.107,8.829L-3.359,7.774C-2.282,8.579 -1.092,9.039 0.077,9.039C1.267,9.039 2.13,8.425 2.13,7.466L2.13,7.428C2.13,6.43 0.961,6.045 -0.345,5.68C-1.899,5.24 -3.626,4.703 -3.626,2.879L-3.626,2.84C-3.626,1.131 -2.206,0 -0.25,0C0.961,0 2.305,0.422 3.323,1.093L2.649,2.208C1.729,1.612 0.673,1.247 -0.288,1.247C-1.458,1.247 -2.206,1.861 -2.206,2.686L-2.206,2.725C-2.206,3.665 -0.977,4.03 0.347,4.434C1.881,4.893 3.533,5.49 3.533,7.274L3.533,7.312C3.533,9.193 1.979,10.288 0,10.288" style="fill:rgb(255,252,246);fill-rule:nonzero;"/>
        </g>
        <g transform="matrix(1,0,0,1,265.049,110.387)">
            <path d="M0,7.103C0,8.313 0.671,8.755 1.67,8.755C2.169,8.755 2.59,8.658 3.109,8.408L3.109,9.675C2.59,9.945 2.035,10.097 1.324,10.097C-0.268,10.097 -1.478,9.311 -1.478,7.295L-1.478,1.307L-2.861,1.307L-2.861,0.001L-1.478,0.001L-1.478,-2.994L0,-2.994L0,0.001L3.148,0.001L3.148,1.307L0,1.307L0,7.103Z" style="fill:rgb(255,252,246);fill-rule:nonzero;"/>
        </g>
        <g transform="matrix(1,0,0,1,0,11.848)">
            <path d="M269.794,98.54L271.272,98.54L271.272,108.463L269.794,108.463L269.794,98.54ZM269.697,94.739L271.385,94.739L271.385,96.37L269.697,96.37L269.697,94.739Z" style="fill:rgb(255,252,246);fill-rule:nonzero;"/>
        </g>
        <g transform="matrix(1,0,0,1,275.554,110.387)">
            <path d="M0,7.103C0,8.313 0.671,8.755 1.67,8.755C2.169,8.755 2.591,8.658 3.11,8.408L3.11,9.675C2.591,9.945 2.035,10.097 1.324,10.097C-0.268,10.097 -1.478,9.311 -1.478,7.295L-1.478,1.307L-2.86,1.307L-2.86,0.001L-1.478,0.001L-1.478,-2.994L0,-2.994L0,0.001L3.148,0.001L3.148,1.307L0,1.307L0,7.103Z" style="fill:rgb(255,252,246);fill-rule:nonzero;"/>
        </g>
        <g transform="matrix(1,0,0,1,287.206,120.522)">
            <path d="M0,-10.134L1.459,-10.134L1.459,-0.211L0,-0.211L0,-1.938C-0.671,-0.863 -1.689,0 -3.397,0C-5.796,0 -7.197,-1.612 -7.197,-3.973L-7.197,-10.134L-5.719,-10.134L-5.719,-4.338C-5.719,-2.495 -4.721,-1.342 -2.974,-1.342C-1.285,-1.342 0,-2.591 0,-4.452L0,-10.134Z" style="fill:rgb(255,252,246);fill-rule:nonzero;"/>
        </g>
        <g transform="matrix(1,0,0,1,293.218,110.387)">
            <path d="M0,7.103C0,8.313 0.671,8.755 1.67,8.755C2.169,8.755 2.591,8.658 3.11,8.408L3.11,9.675C2.591,9.945 2.036,10.097 1.324,10.097C-0.268,10.097 -1.478,9.311 -1.478,7.295L-1.478,1.307L-2.86,1.307L-2.86,0.001L-1.478,0.001L-1.478,-2.994L0,-2.994L0,0.001L3.148,0.001L3.148,1.307L0,1.307L0,7.103Z" style="fill:rgb(255,252,246);fill-rule:nonzero;"/>
        </g>
        <g transform="matrix(1,0,0,1,305.199,115.916)">
            <path d="M0,-1.113C-0.154,-2.917 -1.19,-4.492 -3.166,-4.492C-4.896,-4.492 -6.199,-3.052 -6.392,-1.113L0,-1.113ZM-2.898,3.339C-1.537,3.339 -0.576,2.783 0.231,1.938L1.152,2.763C0.154,3.878 -1.056,4.626 -2.937,4.626C-5.662,4.626 -7.89,2.534 -7.89,-0.557C-7.89,-3.436 -5.873,-5.739 -3.128,-5.739C-0.192,-5.739 1.499,-3.398 1.499,-0.48C1.499,-0.346 1.499,-0.193 1.478,-0.02L-6.392,-0.02C-6.181,2.131 -4.644,3.339 -2.898,3.339" style="fill:rgb(255,252,246);fill-rule:nonzero;"/>
        </g>
        <g transform="matrix(1,0,0,1,224.895,115.245)">
            <path d="M0,-11.813C-0.019,-11.547 -0.037,-11.272 -0.064,-11.006C-0.068,-10.96 -0.075,-10.914 -0.083,-10.867L-0.326,-11.348C-0.328,-11.35 -0.33,-11.352 -0.331,-11.355C-0.336,-11.365 -0.343,-11.375 -0.35,-11.385C-0.355,-11.393 -0.361,-11.401 -0.367,-11.409C-0.374,-11.417 -0.381,-11.424 -0.389,-11.431C-0.396,-11.438 -0.403,-11.446 -0.412,-11.453C-0.419,-11.459 -0.428,-11.464 -0.437,-11.47C-0.446,-11.476 -0.455,-11.482 -0.464,-11.487C-0.473,-11.492 -0.482,-11.496 -0.491,-11.5C-0.502,-11.504 -0.513,-11.508 -0.524,-11.512C-0.526,-11.512 -0.529,-11.514 -0.532,-11.515C-0.539,-11.517 -0.546,-11.517 -0.553,-11.518C-0.564,-11.521 -0.575,-11.522 -0.586,-11.523C-0.597,-11.524 -0.607,-11.524 -0.618,-11.524C-0.628,-11.524 -0.639,-11.524 -0.649,-11.523C-0.66,-11.522 -0.67,-11.52 -0.681,-11.518C-0.691,-11.516 -0.701,-11.514 -0.711,-11.51C-0.722,-11.507 -0.732,-11.502 -0.743,-11.498C-0.75,-11.495 -0.756,-11.494 -0.762,-11.491C-0.765,-11.489 -0.768,-11.487 -0.77,-11.486C-0.78,-11.48 -0.789,-11.474 -0.799,-11.467C-0.807,-11.461 -0.815,-11.456 -0.823,-11.45C-0.832,-11.443 -0.838,-11.436 -0.846,-11.428C-0.853,-11.42 -0.861,-11.413 -0.868,-11.405C-0.874,-11.397 -0.879,-11.389 -0.885,-11.38C-0.891,-11.371 -0.897,-11.362 -0.902,-11.353C-0.907,-11.344 -0.91,-11.335 -0.914,-11.326C-0.918,-11.315 -0.923,-11.304 -0.926,-11.293C-0.927,-11.29 -0.929,-11.288 -0.93,-11.285C-1.436,-9.391 -1.958,-7.433 -3.617,-6.05L-3.627,-6.041L-3.831,-6.97C-3.861,-7.109 -3.978,-7.212 -4.12,-7.224C-4.262,-7.236 -4.395,-7.154 -4.448,-7.023C-4.494,-6.911 -4.539,-6.787 -4.586,-6.654C-4.671,-6.419 -4.767,-6.153 -4.894,-5.887C-5.18,-5.292 -5.606,-4.641 -6.587,-4.208L-6.587,-23.553C-4.645,-23.248 0.033,-21.777 0.033,-14.713C0.033,-14.71 0.033,-14.708 0.034,-14.705C0.033,-14.484 0.035,-14.261 0.036,-14.036C0.04,-13.305 0.044,-12.549 0,-11.818C0,-11.816 0,-11.815 0,-11.813M-6.592,-25.435C-6.592,-26.1 -6.052,-26.64 -5.387,-26.64C-4.723,-26.64 -4.182,-26.104 -4.182,-25.444C-4.182,-24.786 -4.723,-24.25 -5.389,-24.25L-6.587,-24.248L-6.592,-25.435ZM-3.328,5.842C-2.875,5.842 -2.596,5.842 -2.423,5.843L-2.423,9.797C-2.555,11.141 -3.617,12.154 -4.895,12.154C-6.265,12.154 -7.379,10.973 -7.379,9.522C-7.379,9.343 -7.525,9.197 -7.705,9.197C-7.884,9.197 -8.029,9.343 -8.029,9.522C-8.029,10.973 -9.144,12.154 -10.514,12.154C-11.883,12.154 -12.998,10.974 -12.999,9.523C-12.998,9.49 -12.994,9.457 -12.994,9.423C-12.994,7.836 -14.21,6.53 -15.759,6.385L-15.76,5.027L-15.759,5.026C-15.759,0.056 -8.963,-2.673 -7.237,-3.286L-7.237,0.922C-7.231,5.202 -4.786,5.842 -3.328,5.842M-2.423,19.031C-3.646,18.857 -4.57,17.759 -4.57,16.423L-4.57,16.421L-4.57,12.786C-3.702,12.693 -2.936,12.232 -2.423,11.546L-2.423,19.031ZM-3.755,25.64C-3.769,25.648 -3.783,25.656 -3.797,25.664C-4.136,25.837 -4.5,25.925 -4.878,25.925C-6.004,25.925 -6.992,25.122 -7.28,23.971C-7.302,23.883 -7.32,23.794 -7.333,23.706C-7.342,23.644 -7.349,23.581 -7.354,23.517C-7.355,23.504 -7.361,23.363 -7.361,23.337L-7.378,19.687C-6.289,19.568 -5.363,18.862 -4.896,17.878C-4.436,18.858 -3.524,19.558 -2.432,19.682C-2.494,21.941 -2.914,23.896 -3.755,25.64M-8.984,31.376C-9.702,30.895 -10.141,30.059 -10.141,29.151L-10.141,26.545C-9.064,26.425 -8.148,25.738 -7.68,24.761C-7.158,25.854 -6.083,26.575 -4.878,26.575C-4.652,26.575 -4.431,26.549 -4.214,26.5C-5.277,28.312 -6.841,29.897 -8.984,31.376M-10.986,32.634C-12.964,33.771 -15.165,34.536 -17.294,35.276C-21.874,36.867 -26.597,38.512 -29.968,43.909C-30.016,43.897 -30.063,43.888 -30.112,43.88C-30.044,42.929 -29.683,41.694 -29.487,41.261C-29.19,40.603 -28.867,39.985 -28.529,39.425C-27.773,38.172 -26.894,37.128 -25.914,36.322C-24.746,35.36 -21.348,33.875 -19.1,32.892C-18.513,32.635 -18.007,32.414 -17.636,32.243C-17.625,32.238 -17.616,32.231 -17.606,32.226C-16.931,31.905 -16.383,31.341 -16.064,30.641C-15.544,31.703 -14.491,32.433 -13.275,32.433C-12.044,32.433 -10.98,31.684 -10.468,30.6C-10.255,31.051 -9.945,31.449 -9.557,31.759C-10.01,32.054 -10.484,32.346 -10.986,32.634M-30.453,47.341C-31.237,47.341 -31.875,46.704 -31.875,45.92C-31.875,45.136 -31.237,44.499 -30.453,44.499C-29.669,44.499 -29.032,45.136 -29.032,45.92C-29.032,46.704 -29.669,47.341 -30.453,47.341M-43.61,35.263C-45.739,34.524 -47.94,33.759 -49.918,32.622C-50.414,32.337 -50.884,32.046 -51.334,31.75C-50.951,31.441 -50.644,31.047 -50.434,30.601C-49.921,31.684 -48.857,32.433 -47.626,32.433C-46.41,32.433 -45.355,31.702 -44.836,30.638C-44.517,31.343 -43.965,31.91 -43.286,32.231C-43.279,32.235 -43.273,32.24 -43.266,32.243C-42.895,32.414 -42.387,32.635 -41.8,32.892C-39.552,33.875 -36.156,35.361 -34.988,36.321C-34.008,37.128 -33.128,38.172 -32.373,39.425C-32.035,39.984 -31.712,40.603 -31.415,41.261C-31.219,41.694 -30.858,42.929 -30.79,43.879C-30.837,43.887 -30.884,43.896 -30.93,43.907C-34.302,38.502 -39.028,36.855 -43.61,35.263M-51.904,31.366C-54.007,29.899 -55.59,28.292 -56.676,26.503C-56.463,26.55 -56.245,26.575 -56.023,26.575C-54.819,26.575 -53.745,25.854 -53.222,24.762C-52.754,25.74 -51.836,26.424 -50.761,26.545L-50.761,29.151C-50.761,30.053 -51.194,30.883 -51.904,31.366M-57.155,25.636C-58.056,23.841 -58.495,21.87 -58.492,19.684C-57.394,19.565 -56.471,18.855 -56.006,17.87C-55.54,18.858 -54.615,19.566 -53.523,19.685L-53.541,23.406C-53.541,23.418 -53.546,23.505 -53.547,23.518C-53.552,23.581 -53.56,23.644 -53.569,23.706C-53.582,23.795 -53.6,23.884 -53.622,23.971C-53.91,25.122 -54.897,25.925 -56.023,25.925C-56.402,25.925 -56.766,25.837 -57.104,25.664C-57.121,25.655 -57.138,25.645 -57.155,25.636M-60.64,2.221L-58.818,-0.83L-56.996,2.221L-60.64,2.221ZM-56.332,12.786L-56.332,16.423C-56.332,17.747 -57.262,18.854 -58.481,19.029L-58.481,11.542C-57.969,12.23 -57.202,12.692 -56.332,12.786M-58.109,5.842L-57.577,5.842C-56.12,5.842 -53.677,5.203 -53.667,0.932C-53.667,0.923 -53.665,0.915 -53.665,0.907L-53.665,-3.307C-51.959,-2.691 -45.533,-0.068 -45.135,4.603L-45.135,6.384C-46.688,6.526 -47.908,7.834 -47.908,9.423C-47.908,9.458 -47.904,9.491 -47.903,9.525C-47.905,10.975 -49.019,12.154 -50.388,12.154C-51.758,12.154 -52.872,10.973 -52.872,9.522C-52.872,9.343 -53.018,9.197 -53.197,9.197C-53.377,9.197 -53.522,9.343 -53.522,9.522C-53.522,10.973 -54.637,12.154 -56.007,12.154C-57.286,12.154 -58.349,11.139 -58.479,9.793L-58.481,9.773L-58.481,5.842C-58.399,5.842 -58.285,5.842 -58.109,5.842M-60.855,-14.579C-60.855,-19.603 -58.419,-22.925 -54.314,-23.55L-54.314,-10.342C-55.312,-11.651 -56.319,-13.575 -56.433,-16.098C-56.441,-16.277 -56.589,-16.417 -56.772,-16.408C-56.951,-16.399 -57.09,-16.248 -57.082,-16.068C-56.94,-12.942 -55.514,-10.682 -54.314,-9.316L-54.314,-6.933C-57.753,-9.206 -58.436,-12.996 -58.531,-15.097C-58.539,-15.276 -58.685,-15.415 -58.87,-15.407C-59.049,-15.399 -59.188,-15.247 -59.18,-15.068C-59.076,-12.77 -58.304,-8.563 -54.314,-6.166L-54.314,-4.241C-60.866,-7.049 -60.856,-14.498 -60.855,-14.579M-54.314,-26.642L-54.314,-24.736L-56.129,-26.642L-54.314,-26.642ZM-58.525,-35.387C-57.537,-35.543 -56.779,-36.401 -56.779,-37.432C-56.779,-38.464 -57.537,-39.322 -58.525,-39.478L-58.525,-44.547C-57.701,-44.024 -56.012,-42.719 -55.42,-40.505C-55.418,-40.498 -55.415,-40.492 -55.413,-40.485C-55.409,-40.474 -55.405,-40.463 -55.4,-40.452C-55.396,-40.443 -55.391,-40.435 -55.386,-40.426C-55.38,-40.417 -55.375,-40.407 -55.369,-40.398C-55.363,-40.39 -55.356,-40.382 -55.349,-40.375C-55.342,-40.367 -55.335,-40.359 -55.327,-40.352C-55.32,-40.345 -55.313,-40.339 -55.305,-40.333C-55.296,-40.326 -55.287,-40.319 -55.277,-40.313C-55.269,-40.309 -55.261,-40.304 -55.253,-40.3C-55.243,-40.295 -55.232,-40.29 -55.221,-40.286C-55.212,-40.282 -55.203,-40.28 -55.195,-40.277C-55.183,-40.274 -55.172,-40.271 -55.161,-40.269C-55.15,-40.268 -55.14,-40.267 -55.129,-40.266C-55.122,-40.266 -55.114,-40.264 -55.106,-40.264C-55.017,-40.264 -54.847,-40.26 -54.773,-40.254C-53.28,-40.133 -52.11,-38.862 -52.11,-37.362C-52.11,-36.157 -52.91,-35.06 -54.101,-34.633C-54.234,-34.585 -54.315,-34.459 -54.315,-34.326L-54.315,-33.691C-54.315,-30.919 -52.687,-29.013 -49.842,-28.29L-51.437,-24.246C-52.416,-24.247 -53.208,-24.247 -53.665,-24.248L-53.665,-26.967C-53.665,-27.146 -53.811,-27.292 -53.99,-27.292L-56.887,-27.292C-57.017,-27.292 -57.135,-27.214 -57.186,-27.095C-57.237,-26.975 -57.212,-26.837 -57.123,-26.743L-54.655,-24.151C-56.144,-23.881 -57.458,-23.262 -58.525,-22.327L-58.525,-35.387ZM-48.703,-29.409L-47.325,-28.032L-47.845,-24.604L-49.819,-26.578L-48.703,-29.409ZM-47.351,-32.836L-46.696,-32.181L-47.204,-28.83L-48.442,-30.068L-47.351,-32.836ZM-46.126,-35.943L-46.575,-32.979L-47.091,-33.495L-46.126,-35.943ZM-40.021,-33.324C-39.122,-32.605 -37.739,-32.056 -36.722,-32.056C-35.396,-32.056 -34.049,-32.875 -33.24,-33.717L-33.24,-17.739C-34.087,-17.231 -34.746,-16.411 -34.746,-15.136L-34.76,-13.444L-39.34,-11.59C-40.74,-13.276 -42.937,-14.854 -46.375,-15.399C-46.379,-15.399 -46.383,-15.4 -46.386,-15.4C-45.295,-15.864 -44.256,-16.566 -43.47,-17.388C-43.423,-17.438 -43.375,-17.485 -43.327,-17.533C-43.27,-17.589 -43.213,-17.646 -43.156,-17.707C-43.112,-17.695 -43.067,-17.685 -43.022,-17.674C-42.795,-17.615 -42.56,-17.555 -42.315,-17.525C-42.16,-17.507 -42.005,-17.498 -41.852,-17.498C-41.137,-17.498 -40.447,-17.698 -39.801,-18.092C-39.606,-18.207 -39.491,-18.369 -39.45,-18.584C-39.357,-19.036 -39.262,-19.593 -39.17,-20.132C-39.072,-20.708 -38.971,-21.302 -38.871,-21.773C-38.87,-21.779 -38.869,-21.785 -38.868,-21.792C-38.862,-21.829 -38.856,-21.866 -38.852,-21.89C-38.822,-22.036 -38.895,-22.184 -39.029,-22.249C-39.088,-22.277 -39.148,-22.303 -39.206,-22.328C-39.304,-22.371 -39.397,-22.411 -39.468,-22.459C-39.933,-22.766 -40.011,-23.608 -40.001,-23.906C-39.999,-23.994 -40.031,-24.08 -40.093,-24.143C-40.154,-24.207 -40.238,-24.242 -40.326,-24.242C-40.954,-24.242 -44.11,-24.243 -47.243,-24.244L-46.677,-27.977C-43.53,-28.133 -40.842,-30.304 -40.021,-33.324M-34.01,-34.58C-34.048,-34.58 -34.075,-34.599 -34.09,-34.615C-34.106,-34.63 -34.125,-34.657 -34.125,-34.695L-34.125,-36.228L-30.485,-36.228C-30.475,-36.227 -30.466,-36.225 -30.456,-36.225C-30.006,-36.227 -29.638,-35.86 -29.635,-35.405C-29.632,-34.956 -29.992,-34.59 -30.44,-34.58L-34.01,-34.58ZM-34.561,-36.911C-34.573,-36.924 -34.595,-36.952 -34.595,-36.993L-34.595,-38.524L-30.466,-38.524C-30.461,-38.524 -30.456,-38.522 -30.451,-38.522C-30.002,-38.522 -29.636,-38.153 -29.636,-37.698C-29.636,-37.246 -30.002,-36.878 -30.451,-36.878C-30.456,-36.878 -30.461,-36.877 -30.466,-36.877L-34.48,-36.877C-34.51,-36.877 -34.539,-36.89 -34.561,-36.911M-34.818,-39.208C-34.832,-39.221 -34.853,-39.249 -34.853,-39.289L-34.853,-40.823L-33.501,-40.823L-33.653,-40.15C-33.693,-39.976 -33.659,-39.793 -33.559,-39.644C-33.459,-39.496 -33.303,-39.395 -33.126,-39.366C-32.958,-39.338 -32.792,-39.324 -32.632,-39.324C-32.562,-39.324 -32.492,-39.326 -32.423,-39.332C-31.91,-39.371 -31.444,-39.565 -31.077,-39.894C-30.734,-40.2 -30.486,-40.616 -30.36,-41.095C-30.346,-41.147 -30.333,-41.201 -30.323,-41.254C-30.157,-40.768 -29.927,-40.331 -29.641,-39.952C-29.665,-39.52 -30.017,-39.175 -30.451,-39.175C-30.456,-39.175 -30.461,-39.174 -30.466,-39.174L-34.738,-39.174C-34.776,-39.174 -34.803,-39.192 -34.818,-39.208M-37.298,-43.778C-37.441,-43.792 -37.57,-43.71 -37.625,-43.585C-37.627,-43.582 -37.629,-43.579 -37.63,-43.576C-37.636,-43.562 -37.64,-43.547 -37.644,-43.532C-37.646,-43.525 -37.647,-43.518 -37.648,-43.51C-37.649,-43.505 -37.651,-43.501 -37.652,-43.497C-37.776,-42.519 -38.615,-41.781 -39.602,-41.781C-40.687,-41.781 -41.568,-42.663 -41.568,-43.747C-41.568,-44.832 -40.687,-45.713 -39.602,-45.713L-21.293,-45.713C-20.213,-45.707 -19.337,-44.828 -19.337,-43.747C-19.337,-42.663 -20.219,-41.781 -21.304,-41.781C-22.296,-41.781 -23.139,-42.517 -23.263,-43.493C-23.264,-43.497 -23.265,-43.501 -23.266,-43.505C-23.268,-43.516 -23.271,-43.526 -23.273,-43.537C-23.276,-43.548 -23.279,-43.558 -23.283,-43.568C-23.286,-43.577 -23.291,-43.586 -23.295,-43.595C-23.3,-43.605 -23.305,-43.616 -23.312,-43.626C-23.316,-43.633 -23.321,-43.639 -23.326,-43.646C-23.334,-43.656 -23.342,-43.667 -23.351,-43.675C-23.355,-43.681 -23.361,-43.686 -23.367,-43.691C-23.376,-43.7 -23.387,-43.709 -23.397,-43.716C-23.404,-43.721 -23.41,-43.725 -23.417,-43.729C-23.428,-43.735 -23.439,-43.742 -23.451,-43.747C-23.458,-43.75 -23.466,-43.753 -23.475,-43.756C-23.486,-43.76 -23.498,-43.764 -23.51,-43.767C-23.519,-43.77 -23.528,-43.771 -23.538,-43.772C-23.549,-43.774 -23.561,-43.775 -23.573,-43.776C-23.577,-43.776 -23.581,-43.777 -23.585,-43.777L-26.438,-43.777C-26.947,-44.236 -27.572,-44.546 -28.245,-44.66C-28.36,-44.68 -28.464,-44.694 -28.561,-44.703C-28.671,-44.713 -28.78,-44.717 -28.891,-44.717L-32.098,-44.717C-32.401,-44.717 -32.664,-44.507 -32.731,-44.211L-32.83,-43.777L-37.298,-43.778ZM-31.42,-48.011L-29.467,-48.011C-29.126,-48.011 -28.849,-47.734 -28.849,-47.394L-28.849,-46.363L-32.038,-46.363L-32.038,-47.394C-32.038,-47.734 -31.761,-48.011 -31.42,-48.011M-31.299,-50.306L-29.44,-50.306C-29.078,-50.306 -28.916,-49.996 -28.916,-49.688L-28.916,-49.279C-28.916,-48.938 -29.193,-48.661 -29.534,-48.661L-31.393,-48.661C-31.755,-48.661 -31.917,-48.971 -31.917,-49.279L-31.917,-49.688C-31.917,-50.029 -31.64,-50.306 -31.299,-50.306M-31.917,-53.868L-31.917,-54.277C-31.917,-54.523 -31.77,-54.736 -31.56,-54.834C-31.216,-54.668 -30.833,-54.572 -30.426,-54.572C-30.001,-54.572 -29.602,-54.676 -29.247,-54.856C-29.021,-54.767 -28.916,-54.522 -28.916,-54.277L-28.916,-53.868C-28.916,-53.527 -29.193,-53.25 -29.534,-53.25L-31.299,-53.25L-31.393,-53.25C-31.755,-53.25 -31.917,-53.561 -31.917,-53.868M-31.299,-52.601L-29.44,-52.601C-29.078,-52.601 -28.916,-52.29 -28.916,-51.982L-28.916,-51.573C-28.916,-51.233 -29.193,-50.956 -29.534,-50.956L-31.299,-50.956L-31.393,-50.956C-31.755,-50.956 -31.917,-51.266 -31.917,-51.573L-31.917,-51.982C-31.917,-52.323 -31.64,-52.601 -31.299,-52.601M-32.392,-57.188C-32.392,-58.272 -31.51,-59.154 -30.426,-59.154C-29.342,-59.154 -28.46,-58.272 -28.46,-57.188C-28.46,-56.104 -29.342,-55.222 -30.426,-55.222C-31.51,-55.222 -32.392,-56.104 -32.392,-57.188M-25.865,-38.304L-25.865,-37.272C-25.865,-36.555 -26.146,-35.879 -26.658,-35.367C-26.845,-35.181 -27.057,-35.022 -27.29,-34.896C-27.358,-34.865 -27.517,-34.801 -27.662,-34.768L-27.662,-38.546C-27.175,-38.387 -26.641,-38.304 -26.073,-38.304L-25.865,-38.304ZM-7.238,-22.088C-7.438,-19.988 -8.658,-16.33 -14.526,-15.398C-15.729,-15.208 -16.777,-14.889 -17.695,-14.485C-18.175,-14.811 -18.698,-15.303 -18.67,-15.892C-18.666,-15.98 -18.698,-16.067 -18.76,-16.131C-18.821,-16.195 -18.906,-16.231 -18.995,-16.231L-19.67,-16.231L-19.67,-16.788L-14.684,-16.788C-13.724,-16.788 -12.942,-17.57 -12.942,-18.53C-12.942,-19.491 -13.724,-20.272 -14.684,-20.272C-15.567,-20.272 -16.322,-19.608 -16.414,-18.789L-18.419,-18.789C-18.449,-18.79 -18.479,-18.791 -18.51,-18.793C-19.506,-18.868 -20.348,-19.838 -20.348,-20.911L-20.348,-23.599L-7.237,-23.599L-7.237,-22.14C-7.237,-22.122 -7.237,-22.105 -7.238,-22.088M-9.459,-13.515C-9.461,-13.515 -9.463,-13.515 -9.463,-13.515C-9.478,-13.515 -9.492,-13.515 -9.505,-13.515L-11.771,-13.515C-16.058,-13.515 -18.602,-11.542 -19.756,-7.316C-20.709,-7.711 -21.592,-7.959 -22.208,-8.076C-22.403,-8.113 -22.599,-8.142 -22.795,-8.167C-21.968,-10.362 -19.815,-13.902 -14.425,-14.757C-11.645,-15.198 -9.551,-16.28 -8.202,-17.973C-7.783,-18.497 -7.471,-19.039 -7.237,-19.568L-7.237,-13.515L-9.459,-13.515ZM-15.76,-3.501C-15.76,-3.506 -15.775,-3.99 -15.74,-4.629C-15.733,-4.768 -15.723,-4.875 -15.709,-5.014L-15.697,-5.15C-15.687,-5.266 -15.674,-5.386 -15.66,-5.51C-15.351,-8.257 -14.135,-12.865 -9.465,-12.865C-9.462,-12.865 -9.46,-12.866 -9.458,-12.866L-7.237,-12.866L-7.237,-3.974C-7.855,-3.768 -9.756,-3.083 -11.684,-1.867C-13.645,-0.631 -15.016,0.78 -15.76,2.3L-15.76,-3.501ZM-16.047,11.826C-17.372,11.826 -18.45,10.748 -18.45,9.423C-18.45,8.098 -17.372,7.02 -16.047,7.02C-14.722,7.02 -13.644,8.098 -13.644,9.423C-13.644,10.748 -14.722,11.826 -16.047,11.826M-10.839,16.709C-10.975,18.048 -12.035,19.055 -13.309,19.055C-14.679,19.055 -15.793,17.874 -15.793,16.423L-15.793,12.463C-14.744,12.376 -13.845,11.756 -13.365,10.875C-12.915,11.913 -11.965,12.662 -10.839,12.784L-10.839,16.709ZM-15.762,26.56C-14.673,26.446 -13.745,25.752 -13.274,24.763C-12.801,25.739 -11.878,26.437 -10.791,26.549L-10.791,29.151C-10.791,30.602 -11.905,31.783 -13.275,31.783C-14.646,31.783 -15.76,30.602 -15.76,29.151C-15.76,29.145 -15.762,29.14 -15.762,29.134L-15.762,26.56ZM-18.408,24.214L-18.408,19.662C-17.395,19.492 -16.55,18.819 -16.109,17.89C-15.639,18.87 -14.715,19.573 -13.627,19.688L-13.611,23.246C-13.607,23.268 -13.609,23.582 -13.609,23.582C-13.746,24.92 -14.805,25.927 -16.08,25.927C-17.114,25.927 -18.047,25.24 -18.408,24.214M-18.408,11.355C-17.927,11.942 -17.232,12.347 -16.443,12.45L-16.443,16.709C-16.561,17.86 -17.363,18.771 -18.408,18.999L-18.408,11.355ZM-21.196,30.236C-19.057,28.744 -18.532,26.715 -18.429,25.466C-17.917,26.072 -17.198,26.468 -16.412,26.556L-16.412,29.238C-16.412,30.689 -17.526,31.87 -18.896,31.87C-19.917,31.87 -20.817,31.222 -21.196,30.236M-30.126,39.716C-30.126,39.71 -30.125,39.638 -30.128,39.518C-30.107,38.604 -29.76,34.25 -25.172,32.282L-22.227,30.847C-22.061,30.764 -21.904,30.678 -21.753,30.59C-21.355,31.516 -20.58,32.186 -19.653,32.424C-21.927,33.419 -25.141,34.844 -26.327,35.82C-27.363,36.673 -28.292,37.773 -29.085,39.089C-29.437,39.671 -29.771,40.312 -30.079,40.994C-30.094,41.027 -30.11,41.064 -30.126,41.104L-30.126,39.716ZM-39.151,30.591C-38.999,30.679 -38.841,30.766 -38.675,30.848L-35.718,32.288C-31.18,34.234 -30.8,38.455 -30.776,39.48C-30.78,39.618 -30.778,39.699 -30.778,39.704L-30.778,41.098C-30.793,41.061 -30.809,41.025 -30.823,40.994C-31.131,40.312 -31.465,39.671 -31.816,39.089C-32.61,37.773 -33.539,36.673 -34.575,35.82C-35.761,34.844 -38.978,33.418 -41.251,32.423C-40.325,32.185 -39.549,31.517 -39.151,30.591M-44.49,26.558C-43.704,26.47 -42.987,26.073 -42.475,25.468C-42.372,26.719 -41.848,28.746 -39.707,30.239C-40.087,31.223 -40.986,31.87 -42.005,31.87C-43.375,31.87 -44.49,30.689 -44.49,29.238L-44.49,26.558ZM-47.292,23.582L-47.275,19.686C-46.187,19.57 -45.263,18.87 -44.792,17.89C-44.352,18.818 -43.508,19.49 -42.496,19.662L-42.496,24.22C-42.858,25.242 -43.789,25.927 -44.822,25.927C-46.096,25.927 -47.156,24.92 -47.292,23.582M-50.111,26.548C-49.024,26.435 -48.101,25.739 -47.627,24.764C-47.157,25.753 -46.229,26.445 -45.14,26.559L-45.14,29.047C-45.14,29.053 -45.141,29.145 -45.141,29.151C-45.141,30.602 -46.256,31.783 -47.626,31.783C-48.996,31.783 -50.111,30.602 -50.111,29.151L-50.111,26.548ZM-45.108,12.463L-45.108,16.423C-45.108,17.874 -46.223,19.055 -47.593,19.055C-48.867,19.055 -49.926,18.048 -50.063,16.709L-50.063,12.784C-48.937,12.662 -47.987,11.913 -47.537,10.875C-47.057,11.756 -46.158,12.376 -45.108,12.463M-42.496,11.358L-42.496,18.998C-43.54,18.77 -44.341,17.86 -44.458,16.709L-44.458,12.447C-43.671,12.345 -42.977,11.943 -42.496,11.358M-44.855,7.02C-43.529,7.02 -42.451,8.098 -42.451,9.423C-42.451,10.748 -43.529,11.826 -44.855,11.826C-46.18,11.826 -47.258,10.748 -47.258,9.423C-47.258,8.098 -46.18,7.02 -44.855,7.02M-51.438,-12.866C-51.435,-12.866 -51.432,-12.865 -51.43,-12.865C-46.76,-12.865 -45.544,-8.257 -45.234,-5.51C-45.221,-5.386 -45.208,-5.266 -45.198,-5.15L-45.185,-5.008C-45.172,-4.871 -45.162,-4.766 -45.154,-4.629C-45.12,-3.99 -45.135,-3.506 -45.135,-3.491L-45.135,2.292C-45.886,0.781 -47.259,-0.626 -49.212,-1.866C-51.135,-3.085 -53.031,-3.781 -53.665,-3.997L-53.665,-12.866L-51.438,-12.866ZM-32.335,-17.457C-31.74,-17.685 -31.134,-17.769 -30.776,-17.8L-30.776,-11.767L-34.559,-7.98C-35.514,-8.199 -36.479,-8.284 -37.434,-8.231C-37.729,-9.053 -38.196,-10.056 -38.925,-11.057L-34.315,-12.923C-34.193,-12.973 -34.113,-13.09 -34.112,-13.222L-34.096,-15.134C-34.096,-16.228 -33.503,-17.01 -32.335,-17.457M-26.373,-7.981L-30.126,-11.767L-30.126,-17.8C-29.771,-17.77 -29.175,-17.688 -28.582,-17.462C-27.404,-17.016 -26.806,-16.232 -26.806,-15.131L-26.791,-13.222C-26.79,-13.09 -26.709,-12.972 -26.587,-12.923L-21.97,-11.061C-22.706,-10.051 -23.172,-9.042 -23.464,-8.23C-24.429,-8.287 -25.406,-8.202 -26.373,-7.981M-33.833,-7.789L-30.452,-11.172L-27.097,-7.789C-27.59,-7.64 -28.08,-7.457 -28.562,-7.236C-28.967,-7.05 -29.594,-6.709 -29.771,-6.592C-29.852,-6.541 -29.984,-6.461 -30.124,-6.377C-30.244,-6.306 -30.363,-6.234 -30.466,-6.17C-30.569,-6.234 -30.689,-6.306 -30.809,-6.378C-30.949,-6.461 -31.081,-6.541 -31.161,-6.592C-31.339,-6.709 -31.965,-7.05 -32.371,-7.236C-32.852,-7.456 -33.34,-7.639 -33.833,-7.789M-44.562,-5.317C-44.57,-5.404 -44.579,-5.491 -44.589,-5.583C-45.079,-9.939 -46.791,-11.955 -48.545,-12.85C-44.938,-12.671 -42.776,-10.833 -41.77,-7.103C-42.705,-6.684 -43.706,-6.105 -44.562,-5.317M-44.497,-4.469C-42.445,-6.657 -38.994,-7.364 -38.604,-7.438C-36.643,-7.809 -34.582,-7.534 -32.642,-6.645C-32.256,-6.468 -31.657,-6.141 -31.515,-6.048C-31.43,-5.993 -31.29,-5.909 -31.143,-5.821C-31.021,-5.748 -30.889,-5.668 -30.787,-5.605L-30.785,-3.918C-31.993,-4.717 -35.192,-6.449 -39.116,-5.531C-39.291,-5.49 -39.399,-5.315 -39.358,-5.14C-39.318,-4.965 -39.143,-4.857 -38.968,-4.898C-34.766,-5.882 -31.444,-3.619 -30.784,-3.125L-30.783,-1.466C-32.155,-2.377 -36.008,-4.439 -40.609,-2.61C-40.776,-2.543 -40.857,-2.355 -40.791,-2.188C-40.725,-2.021 -40.536,-1.94 -40.369,-2.006C-35.525,-3.932 -31.559,-1.254 -30.782,-0.673L-30.78,0.989C-32.257,0.018 -36.503,-2.219 -41.425,0.202C-41.712,0.343 -42,0.499 -42.281,0.666C-42.435,0.758 -42.485,0.958 -42.394,1.112C-42.302,1.266 -42.103,1.316 -41.948,1.225C-41.683,1.066 -41.41,0.918 -41.139,0.785C-35.975,-1.754 -31.6,1.171 -30.779,1.779L-30.778,3.18L-30.808,3.163C-30.948,3.079 -31.081,2.999 -31.161,2.947C-31.295,2.86 -31.702,2.66 -32.371,2.354C-34.285,1.476 -36.482,1.237 -38.724,1.661C-39.608,1.828 -42.449,2.486 -44.486,4.302L-44.486,-3.48C-44.485,-3.498 -44.472,-3.901 -44.497,-4.469M-17.904,4.951C-18.805,4.337 -19.742,3.858 -20.689,3.526C-22.528,2.881 -24.51,2.78 -26.421,3.233C-27.392,3.463 -28.352,3.842 -29.44,4.424C-29.546,4.48 -29.612,4.59 -29.612,4.71C-29.612,5.019 -30.055,5.249 -30.451,5.249L-30.452,5.249L-30.453,5.249C-30.849,5.249 -31.292,5.019 -31.292,4.71C-31.292,4.59 -31.358,4.48 -31.464,4.424C-32.553,3.842 -33.512,3.463 -34.483,3.233C-36.395,2.78 -38.376,2.881 -40.215,3.526C-41.162,3.858 -42.099,4.337 -43,4.951C-43.489,5.284 -44.02,5.648 -44.486,6.066L-44.486,5.208C-42.527,3.13 -39.248,2.421 -38.604,2.299C-36.494,1.9 -34.433,2.123 -32.642,2.944C-31.931,3.27 -31.593,3.441 -31.515,3.492C-31.43,3.547 -31.29,3.631 -31.142,3.72C-30.956,3.832 -30.744,3.958 -30.653,4.022C-30.651,4.024 -30.648,4.025 -30.646,4.027C-30.636,4.033 -30.625,4.039 -30.615,4.044C-30.606,4.048 -30.597,4.054 -30.588,4.057C-30.579,4.061 -30.569,4.063 -30.56,4.066C-30.549,4.07 -30.538,4.073 -30.527,4.075C-30.518,4.077 -30.509,4.078 -30.5,4.079C-30.489,4.08 -30.477,4.081 -30.465,4.081C-30.456,4.081 -30.447,4.08 -30.438,4.079C-30.426,4.078 -30.415,4.077 -30.403,4.075C-30.394,4.073 -30.385,4.07 -30.376,4.067C-30.365,4.064 -30.354,4.061 -30.343,4.057C-30.335,4.053 -30.327,4.049 -30.319,4.045C-30.308,4.039 -30.297,4.033 -30.286,4.026C-30.284,4.025 -30.281,4.024 -30.279,4.022C-30.188,3.958 -29.977,3.832 -29.791,3.72C-29.643,3.631 -29.502,3.547 -29.418,3.492C-29.339,3.441 -29.002,3.27 -28.291,2.944C-26.5,2.123 -24.438,1.9 -22.329,2.299C-20.917,2.566 -18.107,3.507 -16.409,5.344L-16.409,6.075C-16.877,5.653 -17.412,5.287 -17.904,4.951M-31.608,28.804C-31.101,29.097 -30.783,29.646 -30.778,30.236C-30.778,30.244 -30.776,30.251 -30.776,30.259L-30.776,31.699L-32.06,30.957C-32.571,30.662 -32.881,30.131 -32.889,29.541L-32.89,28.059L-31.608,28.804ZM-32.892,24.843L-32.677,24.969C-32.149,25.275 -31.629,25.578 -31.608,25.59C-31.101,25.883 -30.783,26.432 -30.778,27.02L-30.776,28.64C-30.924,28.486 -31.093,28.351 -31.282,28.242L-32.891,27.307L-32.891,27.266C-32.89,27.262 -32.889,27.258 -32.889,27.254L-32.892,24.843ZM-28.518,31.52C-27.806,31.109 -27.375,30.371 -27.363,29.552L-27.361,27.253C-27.361,27.246 -27.363,27.239 -27.363,27.231L-27.361,24.279L-27.361,21.749C-27.361,21.569 -27.506,21.424 -27.686,21.424C-27.865,21.424 -28.011,21.569 -28.011,21.749L-28.011,24.092C-28.65,24.464 -29.595,25.014 -29.618,25.026C-29.809,25.137 -29.978,25.274 -30.126,25.43L-30.126,19.207C-30.126,19.028 -30.271,18.882 -30.451,18.882C-30.63,18.882 -30.776,19.028 -30.776,19.207L-30.776,25.43C-30.924,25.274 -31.092,25.138 -31.281,25.028C-31.299,25.018 -31.821,24.715 -32.35,24.407L-32.892,24.092L-32.892,21.749C-32.892,21.569 -33.037,21.424 -33.216,21.424C-33.396,21.424 -33.542,21.569 -33.542,21.749L-33.542,24.279L-33.539,27.243C-33.539,27.247 -33.541,27.251 -33.541,27.255L-33.54,27.5C-33.54,27.506 -33.541,27.512 -33.54,27.518L-33.539,29.545C-33.527,30.371 -33.096,31.109 -32.385,31.52L-30.776,32.449L-30.776,36.457C-31.352,34.994 -32.437,33.34 -34.479,32.178C-34.486,32.173 -34.493,32.168 -34.501,32.164C-37.995,30.298 -39.384,25.838 -38.934,22.955C-38.7,23.61 -38.334,24.276 -37.712,24.875C-37.281,25.289 -36.778,25.569 -36.218,25.708L-36.217,25.708C-36.208,25.711 -36.197,25.71 -36.188,25.712C-36.172,25.714 -36.156,25.718 -36.14,25.718L-36.139,25.718C-36.105,25.718 -36.072,25.712 -36.04,25.701C-36.029,25.698 -36.019,25.691 -36.009,25.687C-35.992,25.679 -35.974,25.673 -35.958,25.663C-35.954,25.66 -35.951,25.656 -35.947,25.653C-35.942,25.65 -35.939,25.646 -35.935,25.643C-35.881,25.599 -35.845,25.541 -35.827,25.478C-35.827,25.476 -35.825,25.474 -35.824,25.471C-35.824,25.469 -35.824,25.467 -35.824,25.465C-35.82,25.451 -35.819,25.437 -35.817,25.422C-35.817,25.415 -35.816,25.408 -35.815,25.401C-35.815,25.388 -35.816,25.374 -35.818,25.359C-35.819,25.353 -35.819,25.345 -35.82,25.339C-35.822,25.325 -35.826,25.312 -35.83,25.299C-35.833,25.292 -35.834,25.285 -35.836,25.278C-35.841,25.267 -35.847,25.255 -35.853,25.245C-35.857,25.236 -35.861,25.228 -35.865,25.22C-35.867,25.218 -35.868,25.214 -35.87,25.212C-37.534,22.735 -37.313,18.721 -35.415,15.591C-35.389,15.669 -35.361,15.748 -35.328,15.825C-35.178,16.171 -34.955,16.492 -34.683,16.752C-34.169,17.243 -33.472,17.549 -32.719,17.615C-32.624,17.623 -32.53,17.627 -32.438,17.627C-31.805,17.627 -31.249,17.434 -30.85,17.071C-30.416,16.677 -30.153,16.065 -30.068,15.254C-30.02,14.791 -30.028,14.341 -30.093,13.916C-30.117,13.761 -30.15,13.576 -30.2,13.384C-29.665,13.642 -28.904,14.072 -28.201,14.698C-26.554,16.165 -26.01,17.964 -26.583,20.045C-26.584,20.047 -26.584,20.05 -26.585,20.053C-26.588,20.064 -26.589,20.076 -26.591,20.087C-26.592,20.097 -26.594,20.107 -26.594,20.116C-26.595,20.127 -26.594,20.138 -26.593,20.148C-26.593,20.159 -26.593,20.169 -26.591,20.179C-26.589,20.189 -26.587,20.2 -26.584,20.209C-26.582,20.22 -26.579,20.23 -26.576,20.24C-26.572,20.25 -26.568,20.259 -26.563,20.268C-26.559,20.278 -26.554,20.289 -26.548,20.298C-26.546,20.301 -26.546,20.303 -26.544,20.306C-26.542,20.31 -26.538,20.312 -26.535,20.316C-26.524,20.332 -26.513,20.346 -26.5,20.359C-26.494,20.365 -26.488,20.371 -26.482,20.376C-26.468,20.389 -26.452,20.4 -26.435,20.41C-26.43,20.413 -26.426,20.416 -26.421,20.418C-26.401,20.429 -26.38,20.438 -26.357,20.444C-26.355,20.445 -26.354,20.444 -26.354,20.444C-26.329,20.451 -26.304,20.454 -26.278,20.455C-26.276,20.455 -26.273,20.456 -26.27,20.456L-26.268,20.456C-26.236,20.456 -26.205,20.45 -26.173,20.44C-26.162,20.437 -26.152,20.43 -26.141,20.425C-26.125,20.419 -26.11,20.414 -26.096,20.405C-26.09,20.401 -26.084,20.396 -26.078,20.392C-26.076,20.391 -26.075,20.39 -26.075,20.39C-25.893,20.272 -25.72,20.136 -25.561,19.983C-24.911,19.358 -24.547,18.696 -24.308,17.952C-23.613,20.111 -23.507,22.914 -25.051,25.212C-25.053,25.214 -25.054,25.218 -25.056,25.22C-25.061,25.228 -25.064,25.236 -25.069,25.245C-25.075,25.255 -25.081,25.267 -25.084,25.278C-25.087,25.285 -25.089,25.292 -25.091,25.299C-25.095,25.312 -25.099,25.325 -25.102,25.338C-25.103,25.345 -25.103,25.353 -25.104,25.359C-25.105,25.374 -25.106,25.388 -25.106,25.401C-25.105,25.408 -25.104,25.415 -25.104,25.422C-25.103,25.437 -25.101,25.451 -25.098,25.465C-25.097,25.467 -25.097,25.469 -25.097,25.471C-25.096,25.474 -25.095,25.476 -25.094,25.478C-25.077,25.541 -25.04,25.599 -24.986,25.643C-24.982,25.646 -24.979,25.65 -24.975,25.653C-24.97,25.656 -24.967,25.66 -24.963,25.663C-24.947,25.673 -24.929,25.679 -24.913,25.687C-24.902,25.691 -24.893,25.698 -24.882,25.701C-24.849,25.712 -24.815,25.718 -24.782,25.718C-24.766,25.718 -24.75,25.714 -24.733,25.712C-24.724,25.71 -24.714,25.711 -24.704,25.708L-24.703,25.708C-24.143,25.569 -23.64,25.289 -23.209,24.875C-22.569,24.259 -22.201,23.572 -21.968,22.899C-21.221,26.568 -23.875,30.815 -26.386,32.156L-26.39,32.159C-28.453,33.322 -29.546,34.977 -30.126,36.441L-30.126,32.449L-28.518,31.52ZM-30.125,30.236C-30.121,29.646 -29.803,29.097 -29.294,28.803C-29.273,28.791 -28.604,28.402 -28.011,28.057L-28.011,29.46L-28.013,29.537C-28.021,30.131 -28.332,30.662 -28.843,30.957L-30.126,31.699L-30.126,30.246C-30.126,30.243 -30.125,30.24 -30.125,30.236M-28.011,27.275L-28.011,27.306C-28.65,27.678 -29.597,28.228 -29.62,28.242C-29.809,28.351 -29.979,28.486 -30.126,28.64L-30.126,27.1L-30.124,27.022C-30.12,26.432 -29.801,25.883 -29.293,25.589C-29.277,25.58 -28.605,25.189 -28.011,24.844L-28.013,27.252C-28.013,27.26 -28.011,27.268 -28.011,27.275M-20.809,9.847L-19.065,9.847C-19.063,9.866 -19.061,9.886 -19.058,9.905L-19.058,24.628L-19.057,24.87C-19.039,26.232 -19.463,28.745 -22.514,30.264L-23.749,30.866C-21.277,28.049 -20.75,23.858 -21.692,21.58L-21.693,21.579C-21.701,21.559 -21.711,21.54 -21.724,21.522C-21.725,21.52 -21.727,21.518 -21.729,21.516C-21.739,21.5 -21.751,21.486 -21.764,21.474C-21.768,21.469 -21.773,21.466 -21.778,21.462C-21.789,21.452 -21.8,21.442 -21.813,21.434C-21.815,21.432 -21.819,21.431 -21.821,21.429C-21.841,21.416 -21.863,21.407 -21.886,21.399C-21.9,21.394 -21.914,21.389 -21.929,21.385L-21.93,21.385C-21.937,21.384 -21.944,21.384 -21.952,21.383C-21.965,21.381 -21.979,21.379 -21.993,21.379C-22.006,21.379 -22.02,21.381 -22.032,21.383C-22.04,21.384 -22.048,21.384 -22.056,21.385C-22.167,21.407 -22.259,21.486 -22.298,21.596C-22.303,21.611 -22.308,21.625 -22.311,21.64L-22.312,21.642C-22.494,22.58 -22.784,23.564 -23.66,24.406C-23.768,24.51 -23.881,24.602 -23.999,24.685C-22.679,21.993 -23.126,18.888 -24.072,16.741L-24.073,16.74C-24.073,16.74 -24.074,16.738 -24.074,16.736C-24.078,16.729 -24.082,16.723 -24.086,16.716C-24.092,16.705 -24.097,16.693 -24.104,16.683C-24.111,16.674 -24.119,16.666 -24.125,16.658C-24.132,16.65 -24.138,16.642 -24.146,16.635C-24.153,16.627 -24.163,16.621 -24.171,16.613C-24.179,16.607 -24.187,16.601 -24.195,16.596C-24.204,16.589 -24.214,16.584 -24.225,16.579C-24.233,16.575 -24.242,16.57 -24.25,16.566C-24.263,16.561 -24.277,16.558 -24.291,16.554C-24.297,16.553 -24.303,16.55 -24.31,16.548L-24.312,16.548C-24.328,16.545 -24.345,16.544 -24.362,16.543C-24.367,16.543 -24.371,16.542 -24.375,16.542C-24.389,16.543 -24.402,16.545 -24.416,16.547C-24.423,16.548 -24.431,16.548 -24.439,16.549C-24.448,16.551 -24.457,16.556 -24.466,16.558C-24.477,16.562 -24.489,16.564 -24.5,16.569L-24.503,16.57C-24.513,16.574 -24.521,16.581 -24.531,16.586C-24.539,16.59 -24.548,16.595 -24.555,16.6C-24.566,16.607 -24.575,16.616 -24.585,16.624C-24.591,16.629 -24.598,16.635 -24.604,16.641C-24.612,16.649 -24.62,16.659 -24.627,16.668C-24.632,16.676 -24.638,16.683 -24.644,16.69C-24.65,16.7 -24.654,16.71 -24.66,16.72C-24.664,16.729 -24.669,16.737 -24.673,16.746C-24.678,16.758 -24.681,16.771 -24.684,16.783C-24.686,16.791 -24.689,16.798 -24.691,16.805C-24.875,17.751 -25.137,18.542 -25.763,19.254C-25.147,14.405 -30.638,12.489 -30.697,12.469C-30.704,12.466 -30.711,12.466 -30.718,12.464C-30.729,12.461 -30.738,12.458 -30.749,12.457C-30.76,12.455 -30.772,12.454 -30.783,12.454C-30.793,12.453 -30.802,12.452 -30.812,12.453C-30.823,12.453 -30.834,12.454 -30.846,12.456C-30.855,12.458 -30.865,12.458 -30.874,12.461C-30.885,12.463 -30.896,12.467 -30.906,12.471C-30.916,12.474 -30.925,12.477 -30.934,12.481C-30.945,12.486 -30.955,12.492 -30.965,12.498C-30.971,12.501 -30.977,12.503 -30.982,12.507C-30.985,12.509 -30.987,12.511 -30.989,12.513C-30.999,12.52 -31.008,12.528 -31.017,12.536C-31.024,12.542 -31.031,12.548 -31.038,12.556C-31.045,12.563 -31.051,12.571 -31.057,12.58C-31.064,12.588 -31.071,12.597 -31.077,12.607C-31.082,12.614 -31.085,12.623 -31.09,12.631C-31.095,12.642 -31.101,12.653 -31.105,12.665C-31.106,12.667 -31.107,12.67 -31.108,12.672C-31.111,12.679 -31.111,12.685 -31.113,12.691C-31.116,12.703 -31.119,12.714 -31.121,12.726C-31.123,12.736 -31.123,12.747 -31.124,12.756C-31.125,12.767 -31.125,12.778 -31.125,12.789C-31.124,12.799 -31.123,12.809 -31.122,12.82C-31.12,12.83 -31.119,12.84 -31.116,12.851C-31.114,12.861 -31.11,12.871 -31.107,12.881C-31.104,12.891 -31.1,12.9 -31.096,12.91C-31.091,12.92 -31.085,12.931 -31.08,12.94C-31.076,12.946 -31.074,12.953 -31.07,12.958C-30.919,13.182 -30.81,13.527 -30.735,14.014C-30.679,14.385 -30.671,14.779 -30.714,15.186C-30.782,15.834 -30.975,16.307 -31.287,16.59C-31.604,16.878 -32.105,17.016 -32.663,16.967C-33.269,16.915 -33.827,16.671 -34.234,16.283C-34.444,16.082 -34.616,15.834 -34.731,15.567C-34.789,15.435 -34.832,15.298 -34.86,15.16C-34.882,15.049 -34.914,14.883 -34.926,14.723C-34.926,14.718 -34.928,14.714 -34.928,14.709C-34.93,14.698 -34.932,14.687 -34.934,14.676C-34.937,14.666 -34.939,14.656 -34.942,14.646C-34.945,14.636 -34.949,14.627 -34.954,14.618C-34.958,14.607 -34.962,14.598 -34.968,14.588C-34.973,14.58 -34.978,14.571 -34.984,14.563C-34.99,14.554 -34.997,14.545 -35.003,14.537C-35.01,14.529 -35.018,14.522 -35.025,14.515C-35.033,14.507 -35.041,14.5 -35.049,14.494C-35.053,14.49 -35.057,14.486 -35.061,14.483C-35.066,14.48 -35.071,14.478 -35.077,14.475C-35.084,14.469 -35.093,14.465 -35.101,14.46C-35.112,14.455 -35.125,14.449 -35.136,14.444C-35.143,14.442 -35.15,14.44 -35.157,14.438C-35.171,14.434 -35.185,14.43 -35.198,14.428C-35.206,14.427 -35.213,14.426 -35.22,14.426C-35.233,14.424 -35.247,14.424 -35.26,14.424C-35.265,14.424 -35.27,14.424 -35.274,14.424C-35.279,14.424 -35.283,14.426 -35.288,14.426C-35.299,14.428 -35.311,14.43 -35.322,14.433C-35.332,14.435 -35.342,14.437 -35.351,14.44C-35.361,14.443 -35.371,14.448 -35.381,14.452C-35.391,14.457 -35.4,14.46 -35.409,14.465C-35.418,14.471 -35.427,14.477 -35.436,14.483C-35.444,14.489 -35.453,14.495 -35.46,14.502C-35.468,14.508 -35.476,14.516 -35.483,14.523C-35.491,14.531 -35.498,14.54 -35.504,14.548C-35.508,14.552 -35.511,14.555 -35.514,14.559C-37.754,17.698 -38.275,21.788 -36.905,24.696C-37.03,24.611 -37.149,24.515 -37.262,24.406C-38.138,23.564 -38.427,22.58 -38.61,21.642L-38.61,21.64C-38.613,21.624 -38.619,21.609 -38.625,21.593C-38.633,21.569 -38.644,21.546 -38.657,21.525L-38.658,21.525C-38.669,21.508 -38.682,21.492 -38.696,21.478C-38.697,21.477 -38.697,21.476 -38.697,21.476C-38.728,21.445 -38.764,21.42 -38.804,21.404L-38.805,21.404C-38.806,21.403 -38.807,21.403 -38.808,21.403C-38.827,21.395 -38.846,21.39 -38.865,21.385C-38.875,21.384 -38.884,21.383 -38.894,21.382C-38.905,21.381 -38.916,21.379 -38.928,21.379C-38.944,21.379 -38.96,21.381 -38.977,21.384C-38.981,21.385 -38.986,21.384 -38.991,21.385C-39.013,21.39 -39.033,21.395 -39.053,21.404C-39.06,21.407 -39.066,21.411 -39.072,21.414C-39.085,21.42 -39.097,21.426 -39.109,21.434C-39.117,21.439 -39.124,21.446 -39.131,21.452C-39.14,21.459 -39.149,21.465 -39.158,21.474C-39.166,21.482 -39.172,21.491 -39.18,21.5C-39.186,21.508 -39.193,21.514 -39.198,21.522C-39.21,21.54 -39.22,21.56 -39.229,21.579L-39.229,21.58C-40.17,23.855 -39.633,28.047 -37.148,30.869L-38.388,30.265C-41.442,28.745 -41.866,26.232 -41.847,24.87L-41.846,9.922C-41.842,9.897 -41.84,9.872 -41.836,9.847L-40.164,9.847C-39.985,9.847 -39.839,9.702 -39.839,9.522C-39.839,9.343 -39.985,9.197 -40.164,9.197L-41.811,9.197C-41.905,7.915 -42.796,6.851 -43.989,6.497C-43.567,6.127 -43.083,5.794 -42.635,5.488C-41.78,4.906 -40.894,4.452 -40,4.139C-38.279,3.536 -36.423,3.441 -34.633,3.866C-33.763,4.072 -32.896,4.407 -31.92,4.917C-31.792,5.529 -31.099,5.899 -30.453,5.899L-30.451,5.899C-29.805,5.899 -29.113,5.529 -28.983,4.917C-28.007,4.407 -27.142,4.072 -26.271,3.866C-24.481,3.441 -22.625,3.536 -20.904,4.139C-20.01,4.452 -19.124,4.906 -18.27,5.488C-17.821,5.794 -17.336,6.127 -16.915,6.498C-18.107,6.852 -18.996,7.915 -19.09,9.197L-20.809,9.197C-20.989,9.197 -21.134,9.343 -21.134,9.522C-21.134,9.702 -20.989,9.847 -20.809,9.847M-19.156,-7.052C-18.14,-10.875 -16.023,-12.685 -12.346,-12.852C-14.102,-11.958 -15.815,-9.941 -16.306,-5.582C-16.32,-5.454 -16.333,-5.329 -16.344,-5.209L-16.345,-5.199C-17.185,-5.983 -18.185,-6.594 -19.156,-7.052M-16.403,-4.339C-16.42,-3.841 -16.41,-3.499 -16.409,-3.491L-16.409,4.428C-18.646,2.386 -21.825,1.733 -22.208,1.661C-24.451,1.237 -26.648,1.476 -28.562,2.354C-29.23,2.66 -29.638,2.86 -29.771,2.947C-29.852,2.999 -29.985,3.079 -30.125,3.163L-30.128,3.165L-30.13,1.781C-29.274,1.128 -24.559,-2.105 -18.958,1.223C-18.803,1.314 -18.604,1.264 -18.512,1.11C-18.42,0.956 -18.471,0.756 -18.625,0.665C-23.917,-2.48 -28.578,-0.028 -30.13,0.994L-30.132,-0.665C-29.38,-1.23 -25.403,-3.938 -20.541,-2.009C-20.374,-1.942 -20.185,-2.024 -20.119,-2.191C-20.052,-2.357 -20.134,-2.546 -20.301,-2.612C-24.914,-4.443 -28.772,-2.364 -30.133,-1.458L-30.135,-3.113C-30.135,-3.113 -30.134,-3.113 -30.134,-3.114C-29.512,-3.583 -26.195,-5.872 -21.985,-4.91C-21.811,-4.87 -21.636,-4.979 -21.596,-5.154C-21.556,-5.329 -21.666,-5.503 -21.841,-5.543C-25.759,-6.438 -28.947,-4.696 -30.135,-3.907L-30.137,-5.61C-30.036,-5.673 -29.908,-5.75 -29.79,-5.82C-29.643,-5.909 -29.502,-5.993 -29.418,-6.048C-29.275,-6.141 -28.677,-6.468 -28.291,-6.645C-27.678,-6.926 -27.053,-7.145 -26.423,-7.302C-26.412,-7.304 -26.4,-7.307 -26.39,-7.31C-25.036,-7.643 -23.659,-7.689 -22.329,-7.438C-21.039,-7.193 -18.149,-6.232 -16.403,-4.339M-33.353,-41.473L-34.853,-41.473L-34.853,-43.128L-32.978,-43.127L-33.353,-41.473ZM-30.92,-42.027C-30.9,-41.759 -30.925,-41.5 -30.988,-41.261C-31.081,-40.91 -31.259,-40.603 -31.511,-40.377C-31.76,-40.154 -32.085,-40.009 -32.476,-39.979C-32.526,-39.975 -32.579,-39.973 -32.632,-39.973C-32.756,-39.973 -32.885,-39.984 -33.02,-40.006L-32.098,-44.067L-28.891,-44.067C-28.794,-44.067 -28.705,-44.063 -28.623,-44.057C-28.537,-44.048 -28.447,-44.036 -28.353,-44.02C-27.645,-43.899 -27.021,-43.523 -26.575,-42.99C-26.133,-42.461 -25.867,-41.781 -25.867,-41.044L-25.867,-38.954L-26.073,-38.954C-27.115,-38.954 -27.956,-39.253 -28.584,-39.775C-29.252,-40.329 -29.69,-41.14 -29.881,-42.116C-29.907,-42.249 -30.024,-42.342 -30.155,-42.342L-30.643,-42.342C-30.797,-42.342 -30.922,-42.217 -30.922,-42.062C-30.922,-42.051 -30.921,-42.039 -30.92,-42.027M-30.459,-20.164C-30.279,-20.164 -30.134,-20.309 -30.134,-20.489L-30.134,-33.964C-29.474,-34.113 -28.981,-34.706 -28.985,-35.409C-28.988,-35.871 -29.203,-36.281 -29.535,-36.55C-29.199,-36.82 -28.983,-37.234 -28.983,-37.698C-28.983,-38.163 -29.199,-38.578 -29.533,-38.849C-29.356,-38.991 -29.215,-39.174 -29.12,-39.383C-29.08,-39.347 -29.041,-39.31 -28.999,-39.275C-28.789,-39.1 -28.558,-38.95 -28.312,-38.821L-28.312,-18.058C-29.061,-18.356 -29.86,-18.467 -30.451,-18.467L-30.452,-18.467C-31.042,-18.467 -31.842,-18.356 -32.591,-18.058L-32.591,-33.931L-30.784,-33.931L-30.784,-20.489C-30.784,-20.309 -30.638,-20.164 -30.459,-20.164M-47.724,-15.014C-47.332,-14.914 -46.917,-14.827 -46.477,-14.757C-41.111,-13.906 -38.948,-10.404 -38.103,-8.171C-38.311,-8.145 -38.518,-8.115 -38.724,-8.076C-39.048,-8.014 -40.015,-7.809 -41.168,-7.356C-42.327,-11.556 -44.863,-13.515 -49.142,-13.515C-49.142,-13.515 -51.417,-13.515 -51.43,-13.515L-51.434,-13.515L-53.665,-13.515L-53.665,-19.81C-52.893,-17.961 -51.239,-15.913 -47.724,-15.014M-50.739,-24.246L-50.079,-25.919L-48.405,-24.245C-49.223,-24.245 -50.016,-24.245 -50.739,-24.246M-40.639,-23.593C-40.598,-23.133 -40.438,-22.321 -39.827,-21.917C-39.732,-21.854 -39.633,-21.807 -39.537,-21.764C-39.628,-21.308 -39.721,-20.767 -39.81,-20.242C-39.901,-19.708 -39.995,-19.155 -40.087,-18.71C-40.093,-18.678 -40.094,-18.674 -40.134,-18.65C-40.797,-18.245 -41.506,-18.084 -42.238,-18.17C-42.439,-18.195 -42.644,-18.248 -42.861,-18.303C-42.973,-18.332 -43.085,-18.36 -43.198,-18.386C-43.204,-18.387 -43.209,-18.387 -43.216,-18.388C-43.228,-18.39 -43.239,-18.392 -43.251,-18.392C-43.262,-18.393 -43.272,-18.392 -43.282,-18.392C-43.292,-18.392 -43.303,-18.391 -43.313,-18.39C-43.324,-18.388 -43.334,-18.386 -43.344,-18.383C-43.354,-18.381 -43.365,-18.378 -43.375,-18.375C-43.384,-18.371 -43.393,-18.367 -43.402,-18.363C-43.412,-18.359 -43.422,-18.354 -43.432,-18.348C-43.44,-18.343 -43.448,-18.338 -43.457,-18.332C-43.465,-18.326 -43.474,-18.319 -43.482,-18.312C-43.491,-18.305 -43.499,-18.296 -43.506,-18.288C-43.511,-18.283 -43.516,-18.279 -43.52,-18.274C-43.598,-18.179 -43.688,-18.089 -43.784,-17.994C-43.836,-17.942 -43.889,-17.89 -43.94,-17.837C-44.898,-16.834 -46.265,-16.025 -47.611,-15.661C-49.958,-16.288 -52.955,-17.88 -53.586,-21.913C-53.619,-22.124 -53.664,-22.566 -53.665,-22.575L-53.665,-23.598C-51.602,-23.595 -42.694,-23.593 -40.639,-23.593M-53.197,19.055C-54.567,19.055 -55.682,17.874 -55.682,16.423L-55.682,12.784C-54.589,12.666 -53.664,11.957 -53.197,10.968C-52.731,11.957 -51.805,12.666 -50.712,12.784L-50.712,16.423C-50.712,17.874 -51.827,19.055 -53.197,19.055M-52.874,19.685C-51.789,19.567 -50.868,18.869 -50.398,17.891C-49.93,18.876 -49.007,19.566 -47.924,19.685L-47.941,23.377C-47.988,24.785 -49.081,25.916 -50.421,25.916C-51.695,25.916 -52.755,24.909 -52.891,23.571L-52.874,19.685ZM-10.189,16.423L-10.189,12.784C-9.096,12.666 -8.17,11.957 -7.705,10.968C-7.238,11.957 -6.312,12.666 -5.22,12.784L-5.22,16.423C-5.22,17.874 -6.334,19.055 -7.705,19.055C-9.074,19.055 -10.189,17.874 -10.189,16.423M-8.028,19.687L-8.01,23.571C-8.147,24.909 -9.206,25.916 -10.48,25.916C-11.821,25.916 -12.914,24.785 -12.96,23.377L-12.977,19.686C-11.894,19.567 -10.972,18.875 -10.503,17.891C-10.034,18.869 -9.114,19.57 -8.028,19.687M-24.224,-32.056C-23.207,-32.056 -21.824,-32.605 -20.925,-33.324C-20.072,-30.188 -17.207,-27.967 -13.905,-27.967C-9.35,-27.967 -6.63,-30.107 -6.63,-33.691L-6.63,-34.324C-6.63,-34.325 -6.631,-34.325 -6.631,-34.325C-6.63,-34.459 -6.712,-34.585 -6.845,-34.633C-8.035,-35.06 -8.835,-36.157 -8.835,-37.362C-8.835,-38.862 -7.666,-40.133 -6.172,-40.254C-6.099,-40.26 -5.929,-40.264 -5.839,-40.264C-5.832,-40.264 -5.824,-40.266 -5.817,-40.266C-5.806,-40.267 -5.795,-40.268 -5.785,-40.27C-5.773,-40.271 -5.763,-40.274 -5.752,-40.277C-5.743,-40.28 -5.733,-40.282 -5.724,-40.286C-5.713,-40.29 -5.704,-40.294 -5.694,-40.299C-5.685,-40.304 -5.676,-40.309 -5.667,-40.314C-5.659,-40.319 -5.651,-40.325 -5.643,-40.332C-5.634,-40.338 -5.625,-40.345 -5.618,-40.352C-5.61,-40.359 -5.604,-40.366 -5.598,-40.373C-5.59,-40.381 -5.583,-40.39 -5.576,-40.399C-5.57,-40.407 -5.565,-40.416 -5.56,-40.425C-5.555,-40.434 -5.549,-40.443 -5.545,-40.453C-5.54,-40.463 -5.537,-40.474 -5.533,-40.485C-5.53,-40.492 -5.527,-40.498 -5.525,-40.505C-4.935,-42.711 -3.246,-44.021 -2.42,-44.546L-2.42,-39.478C-3.409,-39.322 -4.167,-38.464 -4.167,-37.432C-4.167,-36.401 -3.409,-35.543 -2.42,-35.387L-2.42,-22.422C-3.091,-22.981 -3.855,-23.421 -4.693,-23.735C-4.014,-24.009 -3.532,-24.671 -3.532,-25.444C-3.532,-26.462 -4.365,-27.29 -5.387,-27.29C-6.41,-27.29 -7.242,-26.458 -7.242,-25.433L-7.237,-24.248L-20.672,-24.248C-20.852,-24.248 -20.997,-24.103 -20.997,-23.923L-20.997,-20.911C-20.997,-19.511 -19.88,-18.244 -18.559,-18.146C-18.517,-18.142 -18.474,-18.14 -18.426,-18.139L-16.102,-18.139C-15.922,-18.139 -15.776,-18.285 -15.776,-18.464L-15.775,-18.536C-15.774,-18.571 -15.773,-18.605 -15.773,-18.622C-15.773,-19.155 -15.264,-19.623 -14.684,-19.623C-14.082,-19.623 -13.592,-19.132 -13.592,-18.53C-13.592,-17.928 -14.082,-17.438 -14.684,-17.438L-19.995,-17.438C-20.175,-17.438 -20.32,-17.292 -20.32,-17.113L-20.32,-15.907C-20.32,-15.727 -20.175,-15.582 -19.995,-15.582L-19.299,-15.582C-19.216,-15.081 -18.894,-14.603 -18.355,-14.169C-19.728,-13.454 -20.769,-12.54 -21.555,-11.594L-26.143,-13.444L-26.157,-15.134C-26.157,-16.41 -26.815,-17.23 -27.662,-17.738L-27.662,-33.672C-26.848,-32.846 -25.526,-32.056 -24.224,-32.056M-3.908,2.221L-2.086,-0.83L-0.265,2.221L-3.908,2.221ZM0.685,-14.04C0.684,-14.266 0.683,-14.491 0.683,-14.713C0.683,-14.715 0.682,-14.717 0.682,-14.719C0.681,-17.58 -0.074,-19.891 -1.562,-21.586C-1.63,-21.664 -1.7,-21.739 -1.771,-21.813L-1.771,-35.687C-1.771,-35.866 -1.917,-36.011 -2.096,-36.011C-2.879,-36.011 -3.517,-36.648 -3.517,-37.432C-3.517,-38.216 -2.879,-38.854 -2.096,-38.854C-1.917,-38.854 -1.771,-38.999 -1.771,-39.178L-1.771,-45.107C-1.771,-45.219 -1.828,-45.322 -1.922,-45.382C-2.017,-45.441 -2.135,-45.448 -2.235,-45.401C-2.356,-45.343 -5.141,-43.987 -6.084,-40.909C-6.136,-40.907 -6.187,-40.905 -6.225,-40.901C-8.053,-40.753 -9.485,-39.198 -9.485,-37.362C-9.485,-35.959 -8.608,-34.679 -7.28,-34.108L-7.28,-33.691C-7.28,-29.111 -11.914,-28.617 -13.905,-28.617C-17.087,-28.617 -19.825,-30.882 -20.415,-34.003C-20.438,-34.125 -20.527,-34.222 -20.646,-34.256C-20.764,-34.29 -20.892,-34.253 -20.974,-34.162C-21.68,-33.386 -23.199,-32.706 -24.224,-32.706C-25.332,-32.706 -26.552,-33.434 -27.275,-34.206C-27.134,-34.253 -27.028,-34.301 -27.007,-34.311C-27.001,-34.313 -26.996,-34.316 -26.991,-34.319C-26.699,-34.476 -26.433,-34.673 -26.198,-34.908C-25.564,-35.542 -25.215,-36.381 -25.215,-37.272L-25.215,-38.925C-25.215,-38.935 -25.217,-38.943 -25.218,-38.953L-25.218,-38.954L-25.218,-41.025C-25.217,-41.032 -25.217,-41.038 -25.217,-41.044C-25.217,-41.789 -25.446,-42.516 -25.866,-43.127L-23.854,-43.127C-23.573,-41.972 -22.525,-41.131 -21.304,-41.131C-19.861,-41.131 -18.687,-42.305 -18.687,-43.747C-18.687,-45.189 -19.861,-46.363 -21.304,-46.363C-21.306,-46.363 -21.308,-46.362 -21.31,-46.362L-28.2,-46.363L-28.2,-47.394C-28.2,-47.784 -28.377,-48.134 -28.656,-48.367C-28.417,-48.598 -28.266,-48.921 -28.266,-49.279L-28.266,-49.688C-28.266,-50.083 -28.418,-50.425 -28.665,-50.653C-28.42,-50.885 -28.266,-51.211 -28.266,-51.573L-28.266,-51.982C-28.266,-52.377 -28.418,-52.719 -28.665,-52.948C-28.42,-53.179 -28.266,-53.505 -28.266,-53.868L-28.266,-54.277C-28.266,-54.677 -28.422,-55.022 -28.674,-55.251C-28.145,-55.73 -27.81,-56.42 -27.81,-57.188C-27.81,-58.63 -28.983,-59.804 -30.426,-59.804C-31.868,-59.804 -33.042,-58.63 -33.042,-57.188C-33.042,-56.403 -32.692,-55.699 -32.143,-55.219C-32.402,-54.987 -32.566,-54.651 -32.566,-54.277L-32.566,-53.868C-32.566,-53.473 -32.415,-53.131 -32.168,-52.902C-32.413,-52.671 -32.566,-52.344 -32.566,-51.982L-32.566,-51.573C-32.566,-51.178 -32.415,-50.836 -32.168,-50.608C-32.413,-50.376 -32.566,-50.05 -32.566,-49.688L-32.566,-49.279C-32.566,-48.916 -32.439,-48.598 -32.227,-48.371C-32.508,-48.138 -32.688,-47.786 -32.688,-47.394L-32.688,-46.363L-39.602,-46.363C-41.045,-46.363 -42.218,-45.189 -42.218,-43.747C-42.218,-42.305 -41.045,-41.131 -39.602,-41.131C-38.387,-41.131 -37.343,-41.972 -37.062,-43.128L-35.502,-43.128L-35.502,-39.289C-35.502,-39.085 -35.423,-38.894 -35.278,-38.749C-35.268,-38.738 -35.255,-38.731 -35.244,-38.721L-35.244,-36.993C-35.244,-36.788 -35.165,-36.596 -35.02,-36.452C-34.95,-36.381 -34.866,-36.326 -34.774,-36.288L-34.774,-34.695C-34.774,-34.492 -34.695,-34.3 -34.55,-34.155C-34.405,-34.01 -34.213,-33.931 -34.01,-33.931L-33.951,-33.931C-34.685,-33.269 -35.747,-32.706 -36.722,-32.706C-37.747,-32.706 -39.266,-33.386 -39.971,-34.162C-40.054,-34.253 -40.181,-34.289 -40.3,-34.256C-40.418,-34.222 -40.508,-34.125 -40.531,-34.003C-41.092,-31.035 -43.596,-28.843 -46.577,-28.635L-45.053,-38.686C-45.028,-38.85 -45.13,-39.005 -45.29,-39.048C-45.448,-39.092 -45.616,-39.008 -45.676,-38.854L-49.6,-28.905C-51.576,-29.383 -53.666,-30.615 -53.666,-33.691L-53.666,-34.108C-52.338,-34.679 -51.46,-35.959 -51.46,-37.362C-51.46,-39.198 -52.893,-40.753 -54.721,-40.901C-54.759,-40.905 -54.81,-40.907 -54.861,-40.909C-55.804,-43.987 -58.589,-45.343 -58.71,-45.401C-58.811,-45.448 -58.929,-45.441 -59.023,-45.382C-59.118,-45.322 -59.175,-45.219 -59.175,-45.107L-59.175,-39.178C-59.175,-38.999 -59.029,-38.854 -58.85,-38.854C-58.066,-38.854 -57.429,-38.216 -57.429,-37.432C-57.429,-36.648 -58.066,-36.011 -58.85,-36.011C-59.029,-36.011 -59.175,-35.866 -59.175,-35.687L-59.175,-21.681C-59.216,-21.636 -59.257,-21.591 -59.297,-21.544C-60.762,-19.829 -61.505,-17.485 -61.505,-14.583C-61.506,-14.501 -61.528,-6.431 -54.314,-3.538L-54.314,0.886C-54.315,0.893 -54.317,0.9 -54.317,0.907C-54.317,2.862 -54.882,5.192 -57.577,5.192C-57.577,5.192 -58.122,5.192 -58.481,5.193L-58.481,2.871L-56.424,2.871C-56.307,2.871 -56.199,2.808 -56.141,2.706C-56.083,2.604 -56.085,2.479 -56.145,2.379L-58.539,-1.63C-58.598,-1.729 -58.704,-1.789 -58.818,-1.789C-58.932,-1.789 -59.038,-1.729 -59.097,-1.63L-61.491,2.379C-61.551,2.479 -61.552,2.604 -61.495,2.706C-61.437,2.808 -61.329,2.871 -61.212,2.871L-59.131,2.871L-59.13,19.072C-59.354,25.085 -56.53,29.57 -50.242,33.185C-48.211,34.353 -45.98,35.127 -43.824,35.877C-39.379,37.421 -34.796,39.018 -31.539,44.16C-32.129,44.525 -32.524,45.177 -32.524,45.92C-32.524,47.062 -31.595,47.991 -30.453,47.991C-29.312,47.991 -28.382,47.062 -28.382,45.92C-28.382,45.179 -28.774,44.53 -29.361,44.164C-26.104,39.028 -21.523,37.433 -17.081,35.89C-14.923,35.14 -12.693,34.365 -10.662,33.197C-4.349,29.568 -1.773,25.482 -1.773,19.097L-1.773,2.871L0.308,2.871C0.425,2.871 0.533,2.808 0.59,2.706C0.648,2.604 0.646,2.479 0.586,2.379L-1.808,-1.63C-1.866,-1.729 -1.972,-1.789 -2.086,-1.789C-2.201,-1.789 -2.307,-1.729 -2.365,-1.63L-4.759,2.379C-4.819,2.479 -4.821,2.604 -4.763,2.706C-4.706,2.808 -4.598,2.871 -4.48,2.871L-2.423,2.871L-2.423,5.193C-2.598,5.193 -2.877,5.192 -3.328,5.192C-6.022,5.192 -6.587,2.862 -6.587,0.907L-6.587,-3.508C-5.22,-4.02 -4.651,-4.891 -4.309,-5.607C-4.282,-5.663 -4.257,-5.717 -4.233,-5.771L-4.193,-5.589C-4.165,-5.454 -4.069,-5.29 -3.884,-5.234C-3.767,-5.2 -3.586,-5.2 -3.384,-5.396L-3.199,-5.554C-1.631,-6.86 -1.008,-8.575 -0.524,-10.301L-0.407,-10.07C-0.399,-10.055 -0.391,-10.041 -0.381,-10.028C-0.309,-9.926 -0.177,-9.826 -0.015,-9.826C0.003,-9.826 0.023,-9.828 0.043,-9.831C0.14,-9.845 0.316,-9.909 0.407,-10.178C0.503,-10.463 0.557,-10.698 0.582,-10.939C0.611,-11.217 0.629,-11.498 0.647,-11.777L0.647,-11.778C0.694,-12.531 0.689,-13.298 0.685,-14.04M-20.931,11.333L-22.898,11.333C-23.615,11.333 -24.22,10.805 -24.22,10.18L-23.561,10.18C-23.561,10.438 -23.245,10.674 -22.898,10.674L-20.931,10.674C-20.604,10.674 -20.366,10.466 -20.366,10.18L-19.707,10.18C-19.707,10.827 -20.245,11.333 -20.931,11.333M-23.561,8.864L-24.22,8.864C-24.22,8.239 -23.615,7.71 -22.898,7.71L-20.931,7.71C-20.245,7.71 -19.707,8.217 -19.707,8.864L-20.366,8.864C-20.366,8.578 -20.604,8.37 -20.931,8.37L-22.898,8.37C-23.245,8.37 -23.561,8.605 -23.561,8.864M-26.591,11.333L-28.558,11.333C-29.275,11.333 -29.88,10.805 -29.88,10.18L-29.221,10.18C-29.221,10.438 -28.905,10.674 -28.558,10.674L-26.591,10.674C-26.264,10.674 -26.026,10.466 -26.026,10.18L-25.367,10.18C-25.367,10.827 -25.905,11.333 -26.591,11.333M-29.221,8.864L-29.88,8.864C-29.88,8.239 -29.275,7.71 -28.558,7.71L-26.591,7.71C-25.905,7.71 -25.367,8.217 -25.367,8.864L-26.026,8.864C-26.026,8.578 -26.264,8.37 -26.591,8.37L-28.558,8.37C-28.905,8.37 -29.221,8.605 -29.221,8.864M-32.29,11.333L-34.257,11.333C-34.974,11.333 -35.58,10.805 -35.58,10.18L-34.92,10.18C-34.92,10.438 -34.604,10.674 -34.257,10.674L-32.29,10.674C-31.963,10.674 -31.726,10.466 -31.726,10.18L-31.066,10.18C-31.066,10.827 -31.604,11.333 -32.29,11.333M-34.92,8.864L-35.58,8.864C-35.58,8.239 -34.974,7.71 -34.257,7.71L-32.29,7.71C-31.604,7.71 -31.066,8.217 -31.066,8.864L-31.726,8.864C-31.726,8.578 -31.963,8.37 -32.29,8.37L-34.257,8.37C-34.604,8.37 -34.92,8.605 -34.92,8.864M-37.972,11.333L-39.939,11.333C-40.656,11.333 -41.261,10.805 -41.261,10.18L-40.603,10.18C-40.603,10.438 -40.286,10.674 -39.939,10.674L-37.972,10.674C-37.645,10.674 -37.408,10.466 -37.408,10.18L-36.749,10.18C-36.749,10.827 -37.286,11.333 -37.972,11.333M-40.603,8.864L-41.261,8.864C-41.261,8.239 -40.656,7.71 -39.939,7.71L-37.972,7.71C-37.286,7.71 -36.749,8.217 -36.749,8.864L-37.408,8.864C-37.408,8.578 -37.645,8.37 -37.972,8.37L-39.939,8.37C-40.286,8.37 -40.603,8.605 -40.603,8.864M-23.132,9.848L-26.485,9.848C-26.665,9.848 -26.81,9.702 -26.81,9.522C-26.81,9.343 -26.665,9.198 -26.485,9.198L-23.132,9.198C-22.953,9.198 -22.807,9.343 -22.807,9.522C-22.807,9.702 -22.953,9.848 -23.132,9.848M-28.787,9.847L-32.139,9.847C-32.319,9.847 -32.464,9.702 -32.464,9.522C-32.464,9.343 -32.319,9.197 -32.139,9.197L-28.787,9.197C-28.607,9.197 -28.461,9.343 -28.461,9.522C-28.461,9.702 -28.607,9.847 -28.787,9.847M-34.158,9.522C-34.158,9.343 -34.303,9.197 -34.482,9.197L-37.835,9.197C-38.015,9.197 -38.16,9.343 -38.16,9.522C-38.16,9.702 -38.015,9.847 -37.835,9.847L-34.482,9.847C-34.303,9.847 -34.158,9.702 -34.158,9.522M-28.744,23.021L-28.744,20.477C-28.744,20.297 -28.889,20.151 -29.068,20.151C-29.248,20.151 -29.394,20.297 -29.394,20.477L-29.394,23.021C-29.394,23.201 -29.248,23.346 -29.068,23.346C-28.889,23.346 -28.744,23.201 -28.744,23.021M-31.833,23.346C-32.013,23.346 -32.159,23.201 -32.159,23.021L-32.159,20.477C-32.159,20.297 -32.013,20.151 -31.833,20.151C-31.654,20.151 -31.509,20.297 -31.509,20.477L-31.509,23.021C-31.509,23.201 -31.654,23.346 -31.833,23.346M-23.15,-29.752C-24.141,-29.752 -24.947,-28.946 -24.947,-27.956C-24.947,-26.965 -24.141,-26.159 -23.15,-26.159C-22.16,-26.159 -21.354,-26.965 -21.354,-27.956C-21.354,-28.946 -22.16,-29.752 -23.15,-29.752M-23.15,-25.509C-24.499,-25.509 -25.596,-26.607 -25.596,-27.956C-25.596,-29.305 -24.499,-30.402 -23.15,-30.402C-21.801,-30.402 -20.704,-29.305 -20.704,-27.956C-20.704,-26.607 -21.801,-25.509 -23.15,-25.509M-37.828,-29.752C-38.818,-29.752 -39.624,-28.946 -39.624,-27.956C-39.624,-26.965 -38.818,-26.159 -37.828,-26.159C-36.837,-26.159 -36.031,-26.965 -36.031,-27.956C-36.031,-28.946 -36.837,-29.752 -37.828,-29.752M-37.828,-25.509C-39.176,-25.509 -40.274,-26.607 -40.274,-27.956C-40.274,-29.305 -39.176,-30.402 -37.828,-30.402C-36.479,-30.402 -35.381,-29.305 -35.381,-27.956C-35.381,-26.607 -36.479,-25.509 -37.828,-25.509M-11.443,-21.202C-11.971,-21.202 -12.333,-21.605 -12.542,-21.938L-10.451,-21.938C-10.613,-21.61 -10.92,-21.202 -11.443,-21.202M-8.439,-21.899L-9.032,-22.493L-9.033,-22.493C-9.094,-22.554 -9.174,-22.585 -9.254,-22.587L-9.255,-22.587L-13.066,-22.587C-13.171,-22.587 -13.27,-22.537 -13.331,-22.451C-13.392,-22.366 -13.408,-22.255 -13.373,-22.156C-13.351,-22.091 -12.801,-20.552 -11.443,-20.552C-10.39,-20.552 -9.916,-21.48 -9.746,-21.938L-9.396,-21.938L-8.898,-21.44C-8.835,-21.377 -8.752,-21.345 -8.669,-21.345C-8.585,-21.345 -8.502,-21.377 -8.439,-21.44C-8.375,-21.503 -8.344,-21.587 -8.344,-21.67C-8.344,-21.753 -8.375,-21.836 -8.439,-21.899M-49.436,-21.201C-49.958,-21.201 -50.265,-21.61 -50.428,-21.938L-48.336,-21.938C-48.545,-21.605 -48.907,-21.201 -49.436,-21.201M-47.548,-22.451C-47.608,-22.537 -47.707,-22.587 -47.813,-22.587L-51.848,-22.587C-52.027,-22.587 -52.173,-22.442 -52.173,-22.263C-52.173,-22.083 -52.027,-21.938 -51.848,-21.938L-51.132,-21.938C-50.962,-21.48 -50.488,-20.552 -49.436,-20.552C-48.077,-20.552 -47.528,-22.091 -47.505,-22.156C-47.471,-22.255 -47.487,-22.366 -47.548,-22.451" style="fill:rgb(255,252,246);fill-rule:nonzero;"/>
        </g>
        <g transform="matrix(1,0,0,1,242.338,133.547)">
            <path d="M0,8.964C-1.395,8.964 -2.465,8.502 -3.511,7.569L-3.087,7.083C-2.128,7.966 -1.245,8.378 0.036,8.378C1.344,8.378 2.24,7.642 2.24,6.649L2.24,6.623C2.24,5.7 1.755,5.165 -0.225,4.768C-2.315,4.344 -3.163,3.634 -3.163,2.315L-3.163,2.291C-3.163,0.997 -1.979,0 -0.361,0C0.908,0 1.743,0.348 2.627,1.058L2.215,1.569C1.395,0.86 0.571,0.586 -0.385,0.586C-1.668,0.586 -2.514,1.319 -2.514,2.23L-2.514,2.254C-2.514,3.174 -2.042,3.734 0.024,4.158C2.042,4.569 2.889,5.291 2.889,6.56L2.889,6.584C2.889,7.991 1.68,8.964 0,8.964" style="fill:rgb(255,252,246);fill-rule:nonzero;"/>
        </g>
        <g transform="matrix(1,0,0,1,248.861,134.008)">
            <path d="M0,8.49C-0.983,8.49 -1.78,7.953 -1.78,6.747L-1.78,2.587L-2.702,2.587L-2.702,2.028L-1.78,2.028L-1.78,0L-1.17,0L-1.17,2.028L1.058,2.028L1.058,2.587L-1.17,2.587L-1.17,6.684C-1.17,7.592 -0.635,7.916 0.099,7.916C0.412,7.916 0.673,7.853 1.034,7.691L1.034,8.263C0.709,8.413 0.397,8.49 0,8.49" style="fill:rgb(255,252,246);fill-rule:nonzero;"/>
        </g>
        <g transform="matrix(1,0,0,1,255.685,139.186)">
            <path d="M0,0.099C-0.535,-0.037 -1.245,-0.187 -2.153,-0.187C-3.497,-0.187 -4.245,0.409 -4.245,1.293L-4.245,1.319C-4.245,2.24 -3.373,2.775 -2.402,2.775C-1.107,2.775 0,1.978 0,0.82L0,0.099ZM-0.012,3.198L-0.012,2.14C-0.448,2.75 -1.23,3.349 -2.439,3.349C-3.621,3.349 -4.892,2.675 -4.892,1.355L-4.892,1.331C-4.892,0.012 -3.758,-0.734 -2.114,-0.734C-1.23,-0.734 -0.623,-0.623 -0.012,-0.463L-0.012,-0.734C-0.012,-2.018 -0.796,-2.676 -2.102,-2.676C-2.875,-2.676 -3.509,-2.465 -4.095,-2.166L-4.318,-2.701C-3.621,-3.025 -2.938,-3.25 -2.066,-3.25C-0.434,-3.25 0.586,-2.405 0.586,-0.759L0.586,3.198L-0.012,3.198Z" style="fill:rgb(255,252,246);fill-rule:nonzero;"/>
        </g>
        <g transform="matrix(1,0,0,1,262.889,135.886)">
            <path d="M0,6.499L0,2.728C0,1.419 -0.736,0.562 -2.017,0.562C-3.262,0.562 -4.221,1.508 -4.221,2.826L-4.221,6.499L-4.831,6.499L-4.831,0.15L-4.221,0.15L-4.221,1.334C-3.797,0.586 -3.087,0 -1.93,0C-0.324,0 0.61,1.097 0.61,2.615L0.61,6.499L0,6.499Z" style="fill:rgb(255,252,246);fill-rule:nonzero;"/>
        </g>
        <g transform="matrix(1,0,0,1,270.608,136.636)">
            <path d="M0,2.562C0,0.932 -1.269,-0.165 -2.588,-0.165C-3.971,-0.165 -5.078,0.843 -5.078,2.55L-5.078,2.574C-5.078,4.243 -3.92,5.313 -2.588,5.313C-1.269,5.313 0,4.204 0,2.586L0,2.562ZM-0.037,5.749L-0.037,4.33C-0.584,5.165 -1.393,5.899 -2.651,5.899C-4.182,5.899 -5.739,4.666 -5.739,2.599L-5.739,2.574C-5.739,0.508 -4.182,-0.751 -2.651,-0.751C-1.38,-0.751 -0.559,-0.029 -0.037,0.77L-0.037,-3.337L0.574,-3.337L0.574,5.749L-0.037,5.749Z" style="fill:rgb(255,252,246);fill-rule:nonzero;"/>
        </g>
        <g transform="matrix(1,0,0,1,277.457,139.186)">
            <path d="M0,0.099C-0.535,-0.037 -1.245,-0.187 -2.153,-0.187C-3.497,-0.187 -4.246,0.409 -4.246,1.293L-4.246,1.319C-4.246,2.24 -3.373,2.775 -2.402,2.775C-1.106,2.775 0,1.978 0,0.82L0,0.099ZM-0.012,3.198L-0.012,2.14C-0.448,2.75 -1.23,3.349 -2.438,3.349C-3.62,3.349 -4.892,2.675 -4.892,1.355L-4.892,1.331C-4.892,0.012 -3.758,-0.734 -2.114,-0.734C-1.23,-0.734 -0.622,-0.623 -0.012,-0.463L-0.012,-0.734C-0.012,-2.018 -0.796,-2.676 -2.102,-2.676C-2.874,-2.676 -3.509,-2.465 -4.096,-2.166L-4.319,-2.701C-3.62,-3.025 -2.937,-3.25 -2.065,-3.25C-0.434,-3.25 0.586,-2.405 0.586,-0.759L0.586,3.198L-0.012,3.198Z" style="fill:rgb(255,252,246);fill-rule:nonzero;"/>
        </g>
        <g transform="matrix(1,0,0,1,283.19,141.662)">
            <path d="M0,-5.055C-1.47,-5.055 -2.751,-3.944 -2.751,-1.88L-2.751,0.722L-3.361,0.722L-3.361,-5.626L-2.751,-5.626L-2.751,-3.822C-2.252,-4.953 -1.194,-5.777 0.063,-5.726L0.063,-5.055L0,-5.055Z" style="fill:rgb(255,252,246);fill-rule:nonzero;"/>
        </g>
        <g transform="matrix(1,0,0,1,289.416,136.636)">
            <path d="M0,2.562C0,0.932 -1.269,-0.165 -2.589,-0.165C-3.971,-0.165 -5.078,0.843 -5.078,2.55L-5.078,2.574C-5.078,4.243 -3.92,5.313 -2.589,5.313C-1.269,5.313 0,4.204 0,2.586L0,2.562ZM-0.037,5.749L-0.037,4.33C-0.584,5.165 -1.393,5.899 -2.651,5.899C-4.182,5.899 -5.739,4.666 -5.739,2.599L-5.739,2.574C-5.739,0.508 -4.182,-0.751 -2.651,-0.751C-1.38,-0.751 -0.56,-0.029 -0.037,0.77L-0.037,-3.337L0.574,-3.337L0.574,5.749L-0.037,5.749Z" style="fill:rgb(255,252,246);fill-rule:nonzero;"/>
        </g>
        <g transform="matrix(1,0,0,1,293.95,135.912)">
            <path d="M0,6.599C-0.92,6.599 -1.93,6.224 -2.601,5.677L-2.24,5.192C-1.542,5.727 -0.771,6.025 0.039,6.025C0.896,6.025 1.569,5.553 1.569,4.819L1.569,4.793C1.569,4.045 0.772,3.773 -0.111,3.522C-1.145,3.226 -2.291,2.913 -2.291,1.78L-2.291,1.754C-2.291,0.734 -1.431,0 -0.199,0C0.562,0 1.419,0.274 2.054,0.696L1.731,1.206C1.146,0.822 0.448,0.574 -0.223,0.574C-1.095,0.574 -1.668,1.044 -1.668,1.681L-1.668,1.705C-1.668,2.415 -0.809,2.676 0.1,2.938C1.121,3.226 2.191,3.599 2.191,4.718L2.191,4.742C2.191,5.877 1.22,6.599 0,6.599" style="fill:rgb(255,252,246);fill-rule:nonzero;"/>
        </g>
        <g transform="matrix(1,0,0,1,0,68.66)">
            <rect x="297.54" y="72.666" width="0.821" height="1.058" style="fill:rgb(255,252,246);"/>
        </g>
        <g transform="matrix(1,0,0,1,308.846,139.684)">
            <path d="M0,-3.312C0,-4.695 -1.07,-5.416 -2.639,-5.416L-5.104,-5.416L-5.104,-1.147L-2.714,-1.147C-1.097,-1.147 0,-1.993 0,-3.288L0,-3.312ZM-2.751,-0.547L-5.104,-0.547L-5.104,2.7L-5.751,2.7L-5.751,-6.012L-2.59,-6.012C-0.673,-6.012 0.646,-5.031 0.646,-3.349L0.646,-3.324C0.646,-1.496 -0.935,-0.547 -2.751,-0.547" style="fill:rgb(255,252,246);fill-rule:nonzero;"/>
        </g>
        <g transform="matrix(1,0,0,1,313.977,141.662)">
            <path d="M0,-5.055C-1.47,-5.055 -2.751,-3.944 -2.751,-1.88L-2.751,0.722L-3.361,0.722L-3.361,-5.626L-2.751,-5.626L-2.751,-3.822C-2.252,-4.953 -1.194,-5.777 0.063,-5.726L0.063,-5.055L0,-5.055Z" style="fill:rgb(255,252,246);fill-rule:nonzero;"/>
        </g>
        <g transform="matrix(1,0,0,1,320.303,139.21)">
            <path d="M0,0C0,-1.531 -1.146,-2.751 -2.613,-2.751C-4.119,-2.751 -5.202,-1.519 -5.202,-0.024L-5.202,0C-5.202,1.533 -4.056,2.751 -2.588,2.751C-1.083,2.751 0,1.521 0,0.024L0,0ZM-2.613,3.325C-4.492,3.325 -5.862,1.804 -5.862,0.024L-5.862,0C-5.862,-1.78 -4.48,-3.325 -2.588,-3.325C-0.709,-3.325 0.661,-1.804 0.661,-0.024L0.661,0C0.661,1.78 -0.722,3.325 -2.613,3.325" style="fill:rgb(255,252,246);fill-rule:nonzero;"/>
        </g>
        <g transform="matrix(1,0,0,1,324.702,141.823)">
            <path d="M0,-8.001C-0.872,-8.001 -1.283,-7.48 -1.283,-6.396L-1.283,-5.787L0.933,-5.787L0.933,-5.228L-1.283,-5.228L-1.283,0.562L-1.893,0.562L-1.893,-5.228L-2.813,-5.228L-2.813,-5.787L-1.893,-5.787L-1.893,-6.408C-1.893,-7.778 -1.196,-8.563 0,-8.563C0.385,-8.563 0.659,-8.512 0.945,-8.415L0.945,-7.841C0.584,-7.952 0.322,-8.001 0,-8.001" style="fill:rgb(255,252,246);fill-rule:nonzero;"/>
        </g>
        <g transform="matrix(1,0,0,1,331.238,139.508)">
            <path d="M0,-0.596C-0.087,-1.879 -0.823,-3.061 -2.278,-3.061C-3.535,-3.061 -4.506,-2.003 -4.62,-0.596L0,-0.596ZM-2.128,2.453C-1.146,2.453 -0.475,2.017 0.049,1.458L0.472,1.83C-0.174,2.528 -0.935,3.027 -2.155,3.027C-3.823,3.027 -5.267,1.693 -5.267,-0.286L-5.267,-0.31C-5.267,-2.153 -3.971,-3.623 -2.254,-3.623C-0.475,-3.623 0.659,-2.177 0.659,-0.298L0.659,-0.274C0.659,-0.185 0.659,-0.148 0.646,-0.049L-4.62,-0.049C-4.506,1.532 -3.373,2.453 -2.128,2.453" style="fill:rgb(255,252,246);fill-rule:nonzero;"/>
        </g>
        <g transform="matrix(1,0,0,1,335.322,135.912)">
            <path d="M0,6.599C-0.92,6.599 -1.93,6.224 -2.601,5.677L-2.24,5.192C-1.542,5.727 -0.77,6.025 0.039,6.025C0.896,6.025 1.569,5.553 1.569,4.819L1.569,4.793C1.569,4.045 0.772,3.773 -0.111,3.522C-1.145,3.226 -2.291,2.913 -2.291,1.78L-2.291,1.754C-2.291,0.734 -1.431,0 -0.198,0C0.562,0 1.419,0.274 2.054,0.696L1.731,1.206C1.146,0.822 0.448,0.574 -0.223,0.574C-1.095,0.574 -1.668,1.044 -1.668,1.681L-1.668,1.705C-1.668,2.415 -0.809,2.676 0.1,2.938C1.121,3.226 2.191,3.599 2.191,4.718L2.191,4.742C2.191,5.877 1.221,6.599 0,6.599" style="fill:rgb(255,252,246);fill-rule:nonzero;"/>
        </g>
        <g transform="matrix(1,0,0,1,340.978,135.912)">
            <path d="M0,6.599C-0.92,6.599 -1.93,6.224 -2.601,5.677L-2.24,5.192C-1.542,5.727 -0.77,6.025 0.039,6.025C0.896,6.025 1.569,5.553 1.569,4.819L1.569,4.793C1.569,4.045 0.772,3.773 -0.111,3.522C-1.145,3.226 -2.291,2.913 -2.291,1.78L-2.291,1.754C-2.291,0.734 -1.431,0 -0.198,0C0.562,0 1.419,0.274 2.054,0.696L1.731,1.206C1.146,0.822 0.448,0.574 -0.223,0.574C-1.094,0.574 -1.668,1.044 -1.668,1.681L-1.668,1.705C-1.668,2.415 -0.809,2.676 0.1,2.938C1.121,3.226 2.191,3.599 2.191,4.718L2.191,4.742C2.191,5.877 1.221,6.599 0,6.599" style="fill:rgb(255,252,246);fill-rule:nonzero;"/>
        </g>
        <g transform="matrix(1,0,0,1,0,60.881)">
            <path d="M344.792,75.155L345.402,75.155L345.402,81.504L344.792,81.504L344.792,75.155ZM344.716,72.665L345.476,72.665L345.476,73.5L344.716,73.5L344.716,72.665Z" style="fill:rgb(255,252,246);fill-rule:nonzero;"/>
        </g>
        <g transform="matrix(1,0,0,1,352.572,139.21)">
            <path d="M0,0C0,-1.531 -1.146,-2.751 -2.613,-2.751C-4.12,-2.751 -5.202,-1.519 -5.202,-0.024L-5.202,0C-5.202,1.533 -4.057,2.751 -2.589,2.751C-1.083,2.751 0,1.521 0,0.024L0,0ZM-2.613,3.325C-4.492,3.325 -5.863,1.804 -5.863,0.024L-5.863,0C-5.863,-1.78 -4.48,-3.325 -2.589,-3.325C-0.709,-3.325 0.661,-1.804 0.661,-0.024L0.661,0C0.661,1.78 -0.722,3.325 -2.613,3.325" style="fill:rgb(255,252,246);fill-rule:nonzero;"/>
        </g>
        <g transform="matrix(1,0,0,1,359.288,135.886)">
            <path d="M0,6.499L0,2.728C0,1.419 -0.736,0.562 -2.017,0.562C-3.262,0.562 -4.221,1.508 -4.221,2.826L-4.221,6.499L-4.831,6.499L-4.831,0.15L-4.221,0.15L-4.221,1.334C-3.797,0.586 -3.087,0 -1.93,0C-0.324,0 0.61,1.097 0.61,2.615L0.61,6.499L0,6.499Z" style="fill:rgb(255,252,246);fill-rule:nonzero;"/>
        </g>
        <g transform="matrix(1,0,0,1,366.048,139.186)">
            <path d="M0,0.099C-0.536,-0.037 -1.245,-0.187 -2.153,-0.187C-3.497,-0.187 -4.245,0.409 -4.245,1.293L-4.245,1.319C-4.245,2.24 -3.374,2.775 -2.402,2.775C-1.107,2.775 0,1.978 0,0.82L0,0.099ZM-0.012,3.198L-0.012,2.14C-0.448,2.75 -1.23,3.349 -2.439,3.349C-3.621,3.349 -4.892,2.675 -4.892,1.355L-4.892,1.331C-4.892,0.012 -3.759,-0.734 -2.115,-0.734C-1.23,-0.734 -0.623,-0.623 -0.012,-0.463L-0.012,-0.734C-0.012,-2.018 -0.797,-2.676 -2.103,-2.676C-2.875,-2.676 -3.509,-2.465 -4.095,-2.166L-4.318,-2.701C-3.621,-3.025 -2.938,-3.25 -2.066,-3.25C-0.434,-3.25 0.585,-2.405 0.585,-0.759L0.585,3.198L-0.012,3.198Z" style="fill:rgb(255,252,246);fill-rule:nonzero;"/>
        </g>
        <g transform="matrix(1,0,0,1,0,60.633)">
            <rect x="368.507" y="72.666" width="0.61" height="9.085" style="fill:rgb(255,252,246);"/>
        </g>
        <g transform="matrix(1,0,0,1,0,60.881)">
            <path d="M371.197,75.155L371.807,75.155L371.807,81.504L371.197,81.504L371.197,75.155ZM371.122,72.665L371.882,72.665L371.882,73.5L371.122,73.5L371.122,72.665Z" style="fill:rgb(255,252,246);fill-rule:nonzero;"/>
        </g>
        <g transform="matrix(1,0,0,1,375.606,135.912)">
            <path d="M0,6.599C-0.92,6.599 -1.93,6.224 -2.601,5.677L-2.24,5.192C-1.542,5.727 -0.77,6.025 0.039,6.025C0.896,6.025 1.569,5.553 1.569,4.819L1.569,4.793C1.569,4.045 0.772,3.773 -0.111,3.522C-1.145,3.226 -2.291,2.913 -2.291,1.78L-2.291,1.754C-2.291,0.734 -1.431,0 -0.199,0C0.562,0 1.419,0.274 2.054,0.696L1.731,1.206C1.146,0.822 0.448,0.574 -0.223,0.574C-1.095,0.574 -1.668,1.044 -1.668,1.681L-1.668,1.705C-1.668,2.415 -0.809,2.676 0.1,2.938C1.121,3.226 2.191,3.599 2.191,4.718L2.191,4.742C2.191,5.877 1.22,6.599 0,6.599" style="fill:rgb(255,252,246);fill-rule:nonzero;"/>
        </g>
        <g transform="matrix(1,0,0,1,388.071,135.886)">
            <path d="M0,6.499L0,2.728C0,1.358 -0.71,0.562 -1.881,0.562C-2.952,0.562 -3.884,1.383 -3.884,2.802L-3.884,6.499L-4.494,6.499L-4.494,2.69C-4.494,1.371 -5.216,0.562 -6.349,0.562C-7.482,0.562 -8.378,1.557 -8.378,2.838L-8.378,6.499L-8.989,6.499L-8.989,0.15L-8.378,0.15L-8.378,1.283C-7.967,0.624 -7.396,0 -6.262,0C-5.155,0 -4.47,0.637 -4.121,1.371C-3.71,0.661 -3.027,0 -1.831,0C-0.325,0 0.608,1.059 0.608,2.652L0.608,6.499L0,6.499Z" style="fill:rgb(255,252,246);fill-rule:nonzero;"/>
        </g>
        <g transform="matrix(1,0,0,1,0,68.66)">
            <rect x="390.378" y="72.666" width="0.821" height="1.058" style="fill:rgb(255,252,246);"/>
        </g>
        <g transform="matrix(1,0,0,1,398.993,141.789)">
            <path d="M0,-7.521L0,0.596L-0.646,0.596L-0.646,-7.521L-3.683,-7.521L-3.683,-8.117L3.039,-8.117L3.039,-7.521L0,-7.521Z" style="fill:rgb(255,252,246);fill-rule:nonzero;"/>
        </g>
        <g transform="matrix(1,0,0,1,405.569,141.662)">
            <path d="M0,-5.055C-1.47,-5.055 -2.75,-3.944 -2.75,-1.88L-2.75,0.722L-3.361,0.722L-3.361,-5.626L-2.75,-5.626L-2.75,-3.822C-2.252,-4.953 -1.194,-5.777 0.063,-5.726L0.063,-5.055L0,-5.055Z" style="fill:rgb(255,252,246);fill-rule:nonzero;"/>
        </g>
        <g transform="matrix(1,0,0,1,411.487,136.185)">
            <path d="M0,6.199L0,5.015C-0.424,5.763 -1.133,6.349 -2.291,6.349C-3.896,6.349 -4.829,5.255 -4.829,3.734L-4.829,-0.15L-4.218,-0.15L-4.218,3.623C-4.218,4.93 -3.485,5.79 -2.204,5.79C-0.959,5.79 0,4.841 0,3.523L0,-0.15L0.61,-0.15L0.61,6.199L0,6.199Z" style="fill:rgb(255,252,246);fill-rule:nonzero;"/>
        </g>
        <g transform="matrix(1,0,0,1,416.058,135.912)">
            <path d="M0,6.599C-0.92,6.599 -1.93,6.224 -2.601,5.677L-2.24,5.192C-1.542,5.727 -0.77,6.025 0.039,6.025C0.896,6.025 1.569,5.553 1.569,4.819L1.569,4.793C1.569,4.045 0.772,3.773 -0.112,3.522C-1.146,3.226 -2.291,2.913 -2.291,1.78L-2.291,1.754C-2.291,0.734 -1.431,0 -0.199,0C0.562,0 1.419,0.274 2.053,0.696L1.731,1.206C1.146,0.822 0.448,0.574 -0.223,0.574C-1.095,0.574 -1.668,1.044 -1.668,1.681L-1.668,1.705C-1.668,2.415 -0.809,2.676 0.099,2.938C1.121,3.226 2.191,3.599 2.191,4.718L2.191,4.742C2.191,5.877 1.22,6.599 0,6.599" style="fill:rgb(255,252,246);fill-rule:nonzero;"/>
        </g>
        <g transform="matrix(1,0,0,1,421.776,134.008)">
            <path d="M0,8.49C-0.983,8.49 -1.78,7.953 -1.78,6.747L-1.78,2.587L-2.702,2.587L-2.702,2.028L-1.78,2.028L-1.78,0L-1.169,0L-1.169,2.028L1.059,2.028L1.059,2.587L-1.169,2.587L-1.169,6.684C-1.169,7.592 -0.634,7.916 0.1,7.916C0.412,7.916 0.673,7.853 1.034,7.691L1.034,8.263C0.71,8.413 0.397,8.49 0,8.49" style="fill:rgb(255,252,246);fill-rule:nonzero;"/>
        </g>
        <g transform="matrix(1,0,0,1,0,68.66)">
            <rect x="424.096" y="72.666" width="0.821" height="1.058" style="fill:rgb(255,252,246);"/>
        </g>
    </g>
</svg>
