<?xml version="1.0" encoding="UTF-8" standalone="no"?>
<!DOCTYPE svg PUBLIC "-//W3C//DTD SVG 1.1//EN" "http://www.w3.org/Graphics/SVG/1.1/DTD/svg11.dtd">
<svg width="100%" height="100%" viewBox="0 0 100 100" version="1.1" xmlns="http://www.w3.org/2000/svg" xmlns:xlink="http://www.w3.org/1999/xlink" xml:space="preserve" xmlns:serif="http://www.serif.com/" style="fill-rule:evenodd;clip-rule:evenodd;stroke-linejoin:round;stroke-miterlimit:1.41421;">
    <g>
        <g transform="matrix(4.86261,0,0,4.86261,3.33779,95.0396)">
            <path d="M19.445,-2.409C19.387,-0.906 18.099,0.391 16.588,0.449C11.862,0.509 7.134,0.509 2.408,0.449C0.883,0.391 -0.43,-0.946 -0.45,-2.481L-0.45,-8.699L0.45,-8.699C0.45,-6.61 0.424,-4.521 0.451,-2.432C0.491,-1.39 1.386,-0.491 2.431,-0.451C7.142,-0.391 11.854,-0.391 16.565,-0.451C17.625,-0.491 18.532,-1.418 18.546,-2.487L18.546,-8.699L19.446,-8.699C19.446,-6.602 19.472,-4.505 19.445,-2.409Z" style="fill:white;fill-rule:nonzero;"/>
        </g>
        <g transform="matrix(0,4.86261,4.86261,0,84.6459,41.6773)">
            <rect x="-7.184" y="-7.634" width="14.368" height="0.9" style="fill:white;fill-rule:nonzero;"/>
        </g>
        <g transform="matrix(4.86261,0,0,4.86261,23.6572,77.9539)">
            <path d="M5.271,-0.596C5.328,-0.531 5.431,-0.527 5.492,-0.599L10.247,-6.5L10.947,-5.936L6.186,-0.025C5.78,0.454 5.009,0.47 4.587,-0.012L-0.346,-5.93L0.346,-6.506C1.988,-4.536 3.629,-2.566 5.271,-0.596Z" style="fill:white;fill-rule:nonzero;"/>
        </g>
    </g>
</svg>
