<?xml version="1.0" encoding="utf-8"?>
<!-- Generator: Adobe Illustrator 22.1.0, SVG Export Plug-In . SVG Version: 6.00 Build 0)  -->
<svg version="1.1" id="Layer_1" xmlns="http://www.w3.org/2000/svg" xmlns:xlink="http://www.w3.org/1999/xlink" x="0px" y="0px"
	 viewBox="0 0 100 100" style="enable-background:new 0 0 100 100;" xml:space="preserve">
<style type="text/css">
	.st0{fill:none;stroke:#FBF9F0;stroke-width:2;stroke-miterlimit:10;}
</style>
<g>
	<polyline class="st0" points="78.4,41.7 35.5,84.6 3.4,97.1 16,64.7 58.3,22.4 	"/>
	<line class="st0" x1="22.7" y1="71.5" x2="65" y2="29.2"/>
	<line class="st0" x1="29" y1="77.8" x2="71.3" y2="35.4"/>
	<path class="st0" d="M6.5,87.4c0,0,2.9-1.2,5.2,1.2c2.4,2.4,1,5.1,1,5.1"/>
	<path class="st0" d="M16.5,65.2c0,0,2.5-1,4.9,1.4c2.4,2.4,1.8,4.5,1.8,4.5s2.6-0.3,4.5,1.6c1.9,1.9,1.3,5,1.3,5s3.7-0.2,5.8,1.9
		c2,2,2,4.4,2,4.4"/>
	<path class="st0" d="M72.8,11.7c0,0,6.3-6.3,8.8-8.8C84,0.5,86.5,1,88.4,2.9s7.7,7.7,9.7,9.7c2,2,2,4.3,0,6.3c-2,2-9.3,9.3-9.3,9.3
		"/>
	<path class="st0" d="M87.5,33.3L67.4,13.1c-0.8-0.8-0.8-2.1,0-2.9l0.1-0.1c0.8-0.8,2.1-0.8,2.9,0l20.1,20.1c0.8,0.8,0.8,2.1,0,2.9
		l-0.1,0.1C89.6,34.1,88.3,34.1,87.5,33.3z"/>
	<path class="st0" d="M84.7,36.1L64.5,16c-0.8-0.8-0.8-2.1,0-2.9l0.1-0.1c0.8-0.8,2.1-0.8,2.9,0l20.1,20.1c0.8,0.8,0.8,2.1,0,2.9
		l-0.1,0.1C86.7,36.9,85.5,36.9,84.7,36.1z"/>
	<path class="st0" d="M81.6,39.2L61.5,19c-0.8-0.8-0.8-2.1,0-2.9l0.1-0.1c0.8-0.8,2.1-0.8,2.9,0l20.1,20.1c0.8,0.8,0.8,2.1,0,2.9
		l-0.1,0.1C83.7,40,82.4,40,81.6,39.2z"/>
	<path class="st0" d="M78.6,42.2L58.5,22.1c-0.8-0.8-0.8-2.1,0-2.9l0.1-0.1c0.8-0.8,2.1-0.8,2.9,0l20.1,20.1c0.8,0.8,0.8,2.1,0,2.9
		l-0.1,0.1C80.7,43,79.4,43,78.6,42.2z"/>
</g>
</svg>
