<?xml version="1.0" encoding="UTF-8" standalone="no"?>
<svg width="29px" height="29px" viewBox="0 0 29 29" version="1.1" xmlns="http://www.w3.org/2000/svg" xmlns:xlink="http://www.w3.org/1999/xlink">
    <!-- Generator: Sketch 46.2 (44496) - http://www.bohemiancoding.com/sketch -->
    <title>Facebook</title>
    <desc>Created with Sketch.</desc>
    <defs>
        <polygon id="path-1" points="0 17 9 17 9 0 0 0"></polygon>
    </defs>
    <g id="Pattern-Library" stroke="none" stroke-width="1" fill="none" fill-rule="evenodd">
        <g id="Component1" transform="translate(-272.000000, -5938.000000)">
            <g id="Group-4" transform="translate(272.000000, 5938.000000)">
                <g id="Facebook">
                    <circle id="Oval-2" fill="#285891" cx="14.5" cy="14.5" r="14.5"></circle>
                    <g id="Page-1" transform="translate(12.000000, 6.000000)">
                        <mask id="mask-2" fill="white">
                            <use xlink:href="#path-1"></use>
                        </mask>
                        <g id="Clip-2"></g>
                        <path d="M8.49555848,9.24568504 L8.8932317,6.2234853 L5.84182475,6.2234853 L5.84182475,4.29401262 C5.84182475,3.41932508 6.09095077,2.82287823 7.36959138,2.82287823 L9,2.82237234 L9,0.119390549 C8.71889507,0.0824604214 7.75075936,0 6.6227291,0 C4.27073185,0 2.66043899,1.40890965 2.66043899,3.99553625 L2.66043899,6.2234853 L0,6.2234853 L0,9.24568504 L2.66043899,9.24568504 L2.66043899,17 L5.84182475,17 L5.84182475,9.24568504 L8.49555848,9.24568504 Z" id="Fill-1" fill="#FFFFFF" mask="url(#mask-2)"></path>
                    </g>
                </g>
            </g>
        </g>
    </g>
</svg>