<svg xmlns="http://www.w3.org/2000/svg" viewBox="0 0 26.61 26.61"><defs><style>.cls-1{fill:#343434;fill-rule:evenodd;opacity:0.5;}</style></defs><title>Asset 3</title><g id="Layer_2" data-name="Layer 2"><g id="Layer_1-2" data-name="Layer 1"><path class="cls-1" d="M13.3,0A13.31,13.31,0,1,1,0,13.3,13.31,13.31,0,0,1,13.3,0Zm6.05,17.87a.61.61,0,0,0-.12-.85l-5.32-4V3.76a.61.61,0,0,0-.61-.61h0a.61.61,0,0,0-.6.61v9.48a.57.57,0,0,0,.09.32.58.58,0,0,0,.2.27L18.5,18a.62.62,0,0,0,.85-.12ZM13.3,1.32a12,12,0,1,0,12,12A12,12,0,0,0,13.3,1.32Z"/></g></g></svg>