<?xml version="1.0" encoding="utf-8"?>
<!-- Generator: Adobe Illustrator 24.1.2, SVG Export Plug-In . SVG Version: 6.00 Build 0)  -->
<svg version="1.1" id="Layer_1" xmlns="http://www.w3.org/2000/svg" xmlns:xlink="http://www.w3.org/1999/xlink" x="0px" y="0px"
	 viewBox="0 0 23.9 28.7" style="enable-background:new 0 0 23.9 28.7;" xml:space="preserve">
<style type="text/css">
	.st0{fill:#868686;}
</style>
<g>
	<path class="st0" d="M11.8,20.3c-5.5,0-10-4.5-10-10s4.5-10,10-10s10,4.5,10,10S17.3,20.3,11.8,20.3z M11.8,1.2
		c-5,0-9.1,4.1-9.1,9.1s4.1,9.1,9.1,9.1s9.1-4.1,9.1-9.1S16.8,1.2,11.8,1.2z"/>
	<path class="st0" d="M11.8,16.1c-3.2,0-5.9-2.6-5.9-5.9s2.6-5.9,5.9-5.9s5.9,2.6,5.9,5.9S15.1,16.1,11.8,16.1z M11.8,5.3
		c-2.7,0-5,2.2-5,5s2.2,5,5,5s5-2.2,5-5S14.6,5.3,11.8,5.3z"/>
	<polygon class="st0" points="6.7,28.1 4.7,23.8 0,24.1 4.5,16.3 5.3,16.8 1.7,23.1 5.2,22.8 6.8,26.2 10.9,19.6 11.7,20.1 	"/>
	<polygon class="st0" points="17.1,28.1 12.3,20.1 13.1,19.6 17,26.2 18.7,22.8 22.2,23.1 18.5,16.5 19.2,16.1 23.9,24.1 19.2,23.8 
			"/>
</g>
</svg>
