<svg xmlns="http://www.w3.org/2000/svg" viewBox="0 0 20.86 29.95"><defs><style>.cls-1{opacity:0.5;}.cls-2{fill:#33383c;}</style></defs><title>Asset 5</title><g id="Layer_2" data-name="Layer 2"><g id="Layer_1-2" data-name="Layer 1"><g class="cls-1"><rect class="cls-2" x="5.78" y="12.02" width="9.33" height="0.75"/><rect class="cls-2" x="5.78" y="15.07" width="9.32" height="0.75"/><rect class="cls-2" x="5.78" y="18.06" width="9.32" height="0.75"/><path class="cls-2" d="M18.33,2.17H15.41A1.44,1.44,0,0,0,14,1H11.83A1.21,1.21,0,0,0,9.46,1H7.07A1.44,1.44,0,0,0,5.66,2.17H2.53A2.54,2.54,0,0,0,0,4.7V27.42A2.54,2.54,0,0,0,2.53,30h15.8a2.53,2.53,0,0,0,2.53-2.53V4.7A2.53,2.53,0,0,0,18.33,2.17ZM10.65.43A.81.81,0,0,1,11.4,1H9.9A.79.79,0,0,1,10.65.43Zm-4.28,2a.7.7,0,0,1,.7-.71H14a.7.7,0,0,1,.7.71v2a.7.7,0,0,1-.7.71H7.07a.7.7,0,0,1-.7-.71Zm.7,3.47H14a1.46,1.46,0,0,0,1.45-1.44H17a1.47,1.47,0,0,1,1.47,1.47v18.8A1.47,1.47,0,0,1,17,26.19H3.89a1.47,1.47,0,0,1-1.47-1.47V5.92A1.47,1.47,0,0,1,3.89,4.45H5.61A1.46,1.46,0,0,0,7.07,5.89Zm13,21.53a1.78,1.78,0,0,1-1.78,1.78H2.53A1.78,1.78,0,0,1,.75,27.42V4.7A1.78,1.78,0,0,1,2.53,2.93H5.61v.89H3.89A2.1,2.1,0,0,0,1.8,5.92v18.8a2.1,2.1,0,0,0,2.09,2.1H17a2.1,2.1,0,0,0,2.1-2.1V5.92A2.1,2.1,0,0,0,17,3.82H15.46V2.93h2.87A1.78,1.78,0,0,1,20.11,4.7Z"/></g></g></g></svg>