<?xml version="1.0" encoding="UTF-8" standalone="no"?>
<!DOCTYPE svg PUBLIC "-//W3C//DTD SVG 1.1//EN" "http://www.w3.org/Graphics/SVG/1.1/DTD/svg11.dtd">
<svg width="100%" height="100%" viewBox="0 0 47 47" version="1.1" xmlns="http://www.w3.org/2000/svg" xmlns:xlink="http://www.w3.org/1999/xlink" xml:space="preserve" xmlns:serif="http://www.serif.com/" style="fill-rule:evenodd;clip-rule:evenodd;stroke-linejoin:round;stroke-miterlimit:1.41421;">
    <g transform="matrix(0.974161,0,0,0.979678,1.80612,0.955561)">
        <g id="Page-1">
            <g>
                <path d="M20.238,0.367C20.638,0.472 20.665,0.545 20.697,0.912C20.698,13.858 20.94,26.807 20.696,39.752C20.58,43.449 16.706,46.657 12.803,45.378C10.575,44.648 8.89,42.54 8.663,40.14C8.663,40.14 6.805,39.993 5.297,39.306C2.034,37.817 -0.195,34.385 -0.264,30.739C-0.284,27.439 -0.284,24.14 -0.264,20.84C-0.187,16.793 3.197,13.1 7.287,12.811C7.532,9.277 10.542,6.204 14.099,5.907C14.099,5.907 14.31,4.56 14.808,3.607C15.813,1.686 17.887,0.402 20.067,0.36C20.067,0.36 20.141,0.359 20.238,0.367ZM19.579,1.497C17.183,1.789 15.236,4.005 15.22,6.441C15.22,6.441 15.262,6.958 14.344,6.999C11.136,7.184 8.394,10.088 8.373,13.349C8.373,13.349 8.454,13.863 7.462,13.908C3.936,14.111 0.909,17.285 0.841,20.854C0.821,24.144 0.821,27.435 0.841,30.725C0.924,35.092 4.653,39.015 9.192,39.044C9.192,39.044 9.705,39.046 9.754,39.916C9.979,43.164 13.881,45.684 17.013,43.969C18.572,43.115 19.582,41.384 19.593,39.593L19.592,1.495C19.588,1.496 19.584,1.496 19.579,1.497Z" style="fill:rgb(97,35,48);fill-rule:nonzero;"/>
                <path d="M14.702,39.045C15.262,39.098 15.372,40.084 14.702,40.147C12.854,40.205 11.003,40.205 9.155,40.147C8.603,40.095 8.508,39.106 9.155,39.045C11.003,38.987 12.854,38.987 14.702,39.045Z" style="fill:rgb(97,35,48);fill-rule:nonzero;"/>
                <g id="Group-14" transform="matrix(1,0,0,1,4.95575,0.661)">
                    <path d="M2.858,33.961C1.14,33.94 -0.361,32.463 -0.426,30.731C-0.447,29.091 -0.427,27.45 -0.427,25.81C-0.402,25.239 0.587,25.081 0.677,25.762C0.749,27.408 0.659,29.056 0.68,30.703C0.722,31.832 1.678,32.812 2.808,32.856C5.794,32.894 8.779,32.857 11.765,32.857C12.352,32.883 12.541,33.861 11.814,33.959C8.832,34.093 5.843,34 2.858,33.961Z" style="fill:rgb(97,35,48);fill-rule:nonzero;"/>
                    <path d="M2.95,16.97C4.64,17.035 6.091,18.491 6.155,20.198C6.187,22.76 6.156,25.321 6.156,27.883C6.131,28.473 5.131,28.539 5.053,27.929C4.944,25.364 5.083,22.794 5.05,20.226C4.99,18.612 2.852,17.432 1.476,18.577C0.839,19.107 0.669,20.384 0.669,20.384C0.543,20.935 -0.508,21.229 -0.418,20.029C-0.29,18.337 1.058,16.946 2.95,16.97Z" style="fill:rgb(97,35,48);fill-rule:nonzero;"/>
                    <path d="M9.739,5.226C10.31,5.268 10.229,6.191 10.391,6.902C10.526,7.492 10.77,8.056 11.106,8.559C11.379,8.968 11.872,9.295 11.868,9.691C11.863,10.185 11.241,10.431 10.724,9.863C9.73,8.746 9.169,7.276 9.16,5.781C9.167,5.467 9.416,5.22 9.739,5.226Z" style="fill:rgb(97,35,48);fill-rule:nonzero;"/>
                    <path d="M8.262,14.362C8.797,14.458 9.186,15.155 9.569,15.728C10.981,17.835 10.9,20.539 10.949,23.156C11.018,25.365 12.964,27.316 15.191,27.33C15.191,27.33 15.609,27.404 15.711,27.705C15.833,28.068 15.553,28.443 15.049,28.433C12.299,28.345 9.895,25.889 9.842,23.116C9.823,20.261 9.813,17.358 7.796,15.297C7.796,15.297 7.549,14.304 8.262,14.362Z" style="fill:rgb(97,35,48);fill-rule:nonzero;"/>
                    <path d="M19.375,-0.301C22.346,-0.244 25.021,2.247 25.303,5.233C25.303,5.233 26.88,5.425 27.984,5.962C30.308,7.093 31.938,9.505 32.151,12.112C32.151,12.112 33.848,12.335 35.039,12.896C37.78,14.187 39.646,17.093 39.704,20.179C39.724,23.479 39.724,26.778 39.704,30.078C39.615,34.809 35.756,39.124 30.858,39.468C30.858,39.468 30.233,42.589 28.087,44.014C25.173,45.949 20.615,44.631 19.217,41.299C18.833,40.383 18.744,38.936 18.744,38.936L18.753,0.155C18.821,-0.099 18.804,-0.305 19.375,-0.301ZM19.849,38.932C19.868,42.086 23.375,44.793 26.522,43.586C28.339,42.889 29.635,41.037 29.697,39.064C29.697,39.064 29.585,38.408 30.574,38.376C34.808,38.187 38.515,34.489 38.599,30.064C38.619,26.774 38.619,23.483 38.599,20.193C38.53,16.528 35.319,13.262 31.616,13.237C31.616,13.237 31.1,13.285 31.059,12.357C30.878,9.143 28.014,6.351 24.771,6.329C24.771,6.329 24.263,6.356 24.212,5.457C24.052,3.15 22.169,1.117 19.862,0.836L19.85,0.835C19.849,13.534 19.849,26.233 19.849,38.932Z" style="fill:rgb(97,35,48);fill-rule:nonzero;"/>
                </g>
                <path d="M35.241,39.045C35.793,39.097 35.888,40.086 35.241,40.147C33.393,40.205 31.543,40.205 29.696,40.147C29.157,40.096 28.973,39.113 29.696,39.045C31.543,38.987 33.393,38.987 35.241,39.045Z" style="fill:rgb(97,35,48);fill-rule:nonzero;"/>
                <g id="Group-24" transform="matrix(1,0,0,1,23.7876,5.661)">
                    <path d="M15.602,20.263C15.86,20.309 16.043,20.501 16.078,20.76C16.153,22.416 16.1,24.074 16.079,25.731C16.016,27.428 14.574,28.895 12.873,28.96C9.879,28.999 6.884,28.962 3.889,28.962C2.917,28.918 3.244,27.939 3.839,27.859C6.838,27.724 9.843,27.894 12.845,27.856C13.97,27.813 14.932,26.839 14.975,25.703C14.995,24.072 14.975,22.441 14.975,20.81C14.991,20.473 15.154,20.222 15.602,20.263Z" style="fill:rgb(97,35,48);fill-rule:nonzero;"/>
                    <path d="M12.873,11.97C14.588,12.036 16.059,13.541 16.08,15.277C16.08,15.277 16.058,15.526 15.932,15.661C15.607,16.009 15.011,15.781 14.969,15.113C14.809,13.292 11.81,12.248 10.819,14.324C10.684,14.607 10.616,14.913 10.604,15.226C10.572,17.778 10.603,20.33 10.603,22.883C10.579,23.463 9.58,23.55 9.5,22.929C9.391,20.355 9.467,17.775 9.499,15.198C9.566,13.424 10.945,11.946 12.873,11.97Z" style="fill:rgb(97,35,48);fill-rule:nonzero;"/>
                    <path d="M5.974,0.226C6.032,0.231 6.088,0.242 6.143,0.263C6.562,0.428 6.514,1.063 6.436,1.626C6.255,2.928 5.676,4.204 4.711,5.092C4.661,5.137 4.603,5.174 4.54,5.199C4.478,5.224 4.41,5.237 4.343,5.237C3.821,5.243 3.659,4.628 4.147,4.079C4.969,3.132 5.117,1.814 5.409,0.632C5.484,0.385 5.653,0.216 5.974,0.226Z" style="fill:rgb(97,35,48);fill-rule:nonzero;"/>
                    <path d="M7.496,9.359C7.992,9.413 8.228,9.881 7.624,10.544C6.489,11.82 5.842,13.49 5.81,15.192C5.795,17.643 5.853,20.234 4.248,21.854C3.263,22.849 1.88,23.426 0.471,23.435C0.471,23.435 0.052,23.366 -0.054,23.066C-0.293,22.39 1.105,22.398 2.02,22.033C3.589,21.409 4.675,19.798 4.706,18.101C4.726,15.015 4.83,11.862 7.002,9.591C7.002,9.591 7.118,9.354 7.496,9.359Z" style="fill:rgb(97,35,48);fill-rule:nonzero;"/>
                </g>
            </g>
        </g>
    </g>
</svg>
