<?xml version="1.0" encoding="UTF-8" standalone="no"?>
<!DOCTYPE svg PUBLIC "-//W3C//DTD SVG 1.1//EN" "http://www.w3.org/Graphics/SVG/1.1/DTD/svg11.dtd">
<svg width="100%" height="100%" viewBox="0 0 47 47" version="1.1" xmlns="http://www.w3.org/2000/svg" xmlns:xlink="http://www.w3.org/1999/xlink" xml:space="preserve" xmlns:serif="http://www.serif.com/" style="fill-rule:evenodd;clip-rule:evenodd;stroke-linejoin:round;stroke-miterlimit:1.41421;">
    <g id="Page-1" transform="matrix(1,0,0,1,1.00208,1)">
        <g transform="matrix(0.985367,0,0,0.985367,3.28139,0.327259)">
            <path d="M19.293,-0.291L34.401,3.173C34.894,3.323 34.967,4.077 34.401,4.25L19.354,7.705C19.245,7.723 19.216,7.723 19.107,7.705L4.059,4.25C3.566,4.099 3.492,3.346 4.059,3.173L19.168,-0.291C19.23,-0.294 19.23,-0.294 19.293,-0.291ZM6.652,3.711L19.23,6.599L31.808,3.711C25.61,2.289 19.293,0.96 19.293,0.96C19.293,0.96 12.916,2.274 6.652,3.711Z" style="fill:rgb(55,70,63);fill-rule:nonzero;"/>
        </g>
        <g transform="matrix(0.985367,0,0,0.985367,3.28139,0.327259)">
            <path d="M27.95,7.432C28.745,7.457 28.748,9.091 28.618,10.898C28.17,17.111 24.941,24.136 18.979,23.897C12.946,23.654 8.97,14.875 9.888,7.909C9.888,7.909 10.109,7.3 10.632,7.465L19.23,10.72L27.95,7.432C28.013,7.427 27.888,7.43 27.95,7.432ZM19.426,11.827C19.305,11.866 19.24,11.893 19.035,11.827L10.91,8.751C10.612,12.815 11.757,17.21 14.415,20.286C16.045,22.172 18.745,23.414 21.244,22.394C25.728,20.563 27.886,14.293 27.558,8.797L27.554,8.749C24.845,9.775 22.135,10.801 19.426,11.827Z" style="fill:rgb(55,70,63);fill-rule:nonzero;"/>
        </g>
        <g transform="matrix(0.985367,0,0,0.985367,3.28139,0.327259)">
            <path d="M28.088,4.598C28.369,4.645 28.563,4.86 28.579,5.147L28.579,7.979C28.566,8.212 28.51,8.368 28.222,8.495L19.426,11.827C19.221,11.893 19.156,11.866 19.035,11.827L10.242,8.497C9.885,8.339 9.894,8.152 9.885,7.981L9.885,5.147C9.905,4.788 10.216,4.549 10.561,4.608L19.23,6.599L27.964,4.598C28.026,4.594 28.026,4.594 28.088,4.598ZM19.354,7.704C19.269,7.72 19.192,7.72 19.107,7.704L10.99,5.841L10.99,7.599L19.23,10.72L27.474,7.597L27.474,5.84C24.767,6.462 22.061,7.083 19.354,7.704Z" style="fill:rgb(55,70,63);fill-rule:nonzero;"/>
        </g>
        <g transform="matrix(0.985367,0,0,0.985367,3.28139,0.327259)">
            <path d="M29.434,28.254C29.518,28.268 29.518,28.268 29.6,28.295C32.544,29.526 35.797,30.267 37.236,32.826C37.556,33.395 37.785,34.017 37.864,34.667L38.929,41.622C38.964,42.095 38.826,42.223 38.383,42.258C36.095,42.258 33.524,42.041 31.99,43.423C31.638,43.754 31.308,44.108 30.968,44.451C30.968,44.451 30.536,44.992 30.174,45.021L8.285,45.021C7.452,44.955 6.691,43.29 5.254,42.724C4.369,42.375 2.963,42.258 2.963,42.258L-0.008,42.251C-0.434,42.149 -0.499,42.03 -0.468,41.622C-0.101,39.224 0.244,36.791 0.631,34.433C0.948,32.728 2.107,31.184 3.683,30.461L8.942,28.268C9.136,28.236 9.262,28.219 9.488,28.439L19.23,39.488L29.034,28.379C29.143,28.302 29.139,28.252 29.434,28.254ZM8.921,29.467C5.837,30.757 2.052,31.833 1.693,34.816L0.721,41.153C3.112,41.153 5.765,41.175 7.308,42.696L8.516,43.916L29.943,43.916C30.806,43.044 31.678,42.139 32.8,41.696C33.632,41.368 34.525,41.171 35.42,41.153L37.739,41.153C37.406,38.975 37.094,36.766 36.741,34.623C36.495,33.295 35.595,32.083 34.38,31.495L29.539,29.467L19.584,40.748C19.232,40.998 19.105,40.97 18.816,40.689C15.518,36.948 12.219,33.208 8.921,29.467Z" style="fill:rgb(55,70,63);fill-rule:nonzero;"/>
        </g>
        <g transform="matrix(0.985367,0,0,0.985367,3.28139,0.327259)">
            <path d="M13.187,26.546C13.401,26.572 13.439,26.618 13.528,26.693L19.23,31.972L24.981,26.652C25.227,26.493 25.261,26.496 25.521,26.588L29.6,28.295C29.943,28.464 30.029,28.878 29.801,29.17L19.644,40.689C19.405,40.929 19.055,40.93 18.816,40.689L8.659,29.17C8.423,28.869 8.527,28.459 8.86,28.295L12.94,26.588C13.06,26.546 13.06,26.546 13.187,26.546ZM9.997,29.017L19.23,39.488L28.463,29.017L25.422,27.745L19.605,33.13C19.379,33.317 19.081,33.317 18.855,33.13L13.038,27.745C12.025,28.169 11.011,28.593 9.997,29.017Z" style="fill:rgb(55,70,63);fill-rule:nonzero;"/>
        </g>
        <g transform="matrix(0.985367,0,0,0.985367,3.28139,0.327259)">
            <path d="M15.817,21.678C16.52,21.794 17.069,22.384 17.801,22.594C19.339,23.034 21.037,22.672 22.401,21.767C22.401,21.767 23.175,21.572 23.257,22.177C23.287,22.855 23.212,23.542 23.397,24.198C23.696,25.261 24.499,26.139 25.53,26.592C25.53,26.592 26.087,27.019 25.718,27.468C23.767,29.445 21.643,31.243 19.605,33.13C19.396,33.307 19.118,33.319 18.894,33.164C16.77,31.373 14.816,29.391 12.778,27.503C12.221,26.939 13.482,26.45 14.14,25.787C15.028,24.893 15.2,23.554 15.2,22.227C15.215,21.895 15.364,21.647 15.817,21.678ZM16.305,23.198C16.285,24.805 15.457,26.337 14.112,27.219C14.112,27.219 19.23,31.972 19.23,31.972L24.357,27.225C23.435,26.651 22.177,25.059 22.154,23.198C22.154,23.198 19.813,24.187 17.86,23.749C17.179,23.596 16.305,23.117 16.305,23.198Z" style="fill:rgb(55,70,63);fill-rule:nonzero;"/>
        </g>
        <g transform="matrix(0.985367,0,0,0.985367,3.28139,0.327259)">
            <path d="M31.603,3.791C31.866,3.829 32.065,4.035 32.094,4.3C32.188,6.865 32.095,9.434 32.095,12.001C32.075,12.554 31.073,12.782 30.992,12.041C30.898,9.476 30.99,6.907 30.99,4.34C31.002,4.026 31.252,3.765 31.603,3.791Z" style="fill:rgb(55,70,63);fill-rule:nonzero;"/>
        </g>
        <g transform="matrix(0.985367,0,0,0.985367,3.28139,0.327259)">
            <path d="M31.573,11.449C31.785,11.467 31.973,11.601 32.057,11.799C32.557,13.187 33.02,14.589 33.444,16.001C33.579,16.561 32.602,16.92 32.386,16.319L31.542,13.763C31.18,14.859 30.914,16.375 30.435,16.632C30.056,16.836 29.528,16.462 29.64,16.001C30.065,14.588 30.528,13.187 31.028,11.799C31.122,11.578 31.268,11.441 31.573,11.449Z" style="fill:rgb(55,70,63);fill-rule:nonzero;"/>
        </g>
    </g>
</svg>
