<?xml version="1.0" encoding="UTF-8" standalone="no"?><!DOCTYPE svg PUBLIC "-//W3C//DTD SVG 1.1//EN" "http://www.w3.org/Graphics/SVG/1.1/DTD/svg11.dtd"><svg width="100%" height="100%" viewBox="0 0 42 44" version="1.1" xmlns="http://www.w3.org/2000/svg" xmlns:xlink="http://www.w3.org/1999/xlink" xml:space="preserve" xmlns:serif="http://www.serif.com/" style="fill-rule:evenodd;clip-rule:evenodd;stroke-linejoin:round;stroke-miterlimit:1.41421;"><path d="M7.726,43.173l-6.976,0c-0.309,-0.022 -0.319,-0.064 -0.405,-0.119c-0.199,-0.128 -0.317,-0.237 -0.345,-0.631l0,-41.39c0.041,-0.573 0.319,-0.655 0.539,-0.72c0.091,-0.026 0.116,-0.023 0.211,-0.03l6.976,0c0.036,0.003 0.071,0.005 0.107,0.008c0.53,0.115 0.607,0.236 0.643,0.742l0,41.39c-0.022,0.309 -0.063,0.319 -0.119,0.405c-0.127,0.199 -0.237,0.317 -0.631,0.345Zm-0.75,-4.769l-5.476,0l0,3.269l5.476,0l0,-3.269Zm-5.476,-3.635l0,2.135l5.476,0l0,-2.135l-5.476,0Zm0,-24.053l0,22.553l5.476,0l0,-22.553l-5.476,0Zm0,-3.544l0,2.044l5.476,0l0,-2.044l-5.476,0Zm0,-5.389l0,3.889l5.476,0l0,-3.889l-5.476,0Z" style="fill:#fefaef;fill-rule:nonzero;"/><path d="M17.852,43.173l-6.976,0c-0.309,-0.022 -0.319,-0.064 -0.405,-0.119c-0.199,-0.128 -0.317,-0.237 -0.345,-0.631l0,-41.39c0.041,-0.573 0.319,-0.655 0.539,-0.72c0.091,-0.026 0.116,-0.023 0.211,-0.03l6.976,0c0.036,0.003 0.071,0.005 0.107,0.008c0.53,0.115 0.607,0.236 0.643,0.742l0,41.39c-0.022,0.309 -0.063,0.319 -0.119,0.405c-0.127,0.199 -0.237,0.317 -0.631,0.345Zm-0.75,-4.769l-5.476,0l0,3.269l5.476,0l0,-3.269Zm-5.476,-3.635l0,2.135l5.476,0l0,-2.135l-5.476,0Zm0,-24.053l0,22.553l5.476,0l0,-22.553l-5.476,0Zm0,-3.544l0,2.044l5.476,0l0,-2.044l-5.476,0Zm0,-5.389l0,3.889l5.476,0l0,-3.889l-5.476,0Z" style="fill:#fefaef;fill-rule:nonzero;"/><path d="M40.689,43.173l-6.976,0c-0.309,-0.022 -0.319,-0.064 -0.405,-0.119c-0.199,-0.128 -0.317,-0.237 -0.345,-0.631l0,-41.39c0.041,-0.573 0.319,-0.655 0.539,-0.72c0.091,-0.026 0.116,-0.023 0.211,-0.03l6.976,0c0.036,0.003 0.071,0.005 0.107,0.008c0.53,0.115 0.607,0.236 0.643,0.742l0,41.39c-0.022,0.309 -0.063,0.319 -0.119,0.405c-0.127,0.199 -0.237,0.317 -0.631,0.345Zm-0.75,-4.769l-5.476,0l0,3.269l5.476,0l0,-3.269Zm-5.476,-3.635l0,2.135l5.476,0l0,-2.135l-5.476,0Zm0,-24.053l0,22.553l5.476,0l0,-22.553l-5.476,0Zm0,-3.544l0,2.044l5.476,0l0,-2.044l-5.476,0Zm0,-5.389l0,3.889l5.476,0l0,-3.889l-5.476,0Z" style="fill:#fefaef;fill-rule:nonzero;"/><path d="M26.203,43.449l-6.911,-0.958c-0.303,-0.065 -0.307,-0.107 -0.385,-0.174c-0.179,-0.154 -0.281,-0.278 -0.255,-0.672l5.684,-40.998c0.119,-0.561 0.406,-0.605 0.632,-0.639c0.095,-0.014 0.119,-0.007 0.214,-0.001l6.91,0.958c0.035,0.008 0.07,0.015 0.105,0.022c0.509,0.187 0.569,0.318 0.535,0.824l-5.684,40.998c-0.064,0.303 -0.106,0.307 -0.173,0.385c-0.154,0.179 -0.278,0.281 -0.672,0.255Zm-0.089,-4.827l-5.424,-0.752l-0.449,3.238l5.425,0.752l0.448,-3.238Zm-4.925,-4.352l-0.293,2.114l5.424,0.752l0.294,-2.114l-5.425,-0.752Zm3.303,-23.826l-3.097,22.34l5.425,0.752l3.097,-22.34l-5.425,-0.752Zm0.487,-3.51l-0.281,2.025l5.424,0.752l0.281,-2.025l-5.424,-0.752Zm0.74,-5.338l-0.534,3.853l5.424,0.752l0.534,-3.853l-5.424,-0.752Z" style="fill:#fefaef;fill-rule:nonzero;"/></svg>