<?xml version="1.0" encoding="UTF-8" standalone="no"?>
<!DOCTYPE svg PUBLIC "-//W3C//DTD SVG 1.1//EN" "http://www.w3.org/Graphics/SVG/1.1/DTD/svg11.dtd">
<svg width="100%" height="100%" viewBox="0 0 100 100" version="1.1" xmlns="http://www.w3.org/2000/svg" xmlns:xlink="http://www.w3.org/1999/xlink" xml:space="preserve" xmlns:serif="http://www.serif.com/" style="fill-rule:evenodd;clip-rule:evenodd;stroke-miterlimit:10;">
    <g>
        <g>
            <g>
                <g transform="matrix(4.96669,0,0,4.96669,51.2464,99.5689)">
                    <path d="M0,-14.045L-2.474,-14.045L-2.474,-13.376L0,-13.376C1.734,-13.376 3.146,-11.965 3.146,-10.231L3.146,-3.814C3.146,-2.079 1.734,-0.669 0,-0.669L-6.417,-0.669C-8.151,-0.669 -9.563,-2.079 -9.563,-3.814L-9.563,-10.231C-9.563,-11.965 -8.151,-13.376 -6.417,-13.376L-5.432,-13.376L-5.432,-14.045L-6.417,-14.045C-8.521,-14.045 -10.231,-12.334 -10.231,-10.231L-10.231,-3.814C-10.231,-1.711 -8.521,0 -6.417,0L0,0C2.103,0 3.813,-1.711 3.813,-3.814L3.813,-10.231C3.813,-12.334 2.103,-14.045 0,-14.045Z" style="fill:rgb(119,113,109);fill-rule:nonzero;stroke:rgb(119,113,109);stroke-width:0.04px;"/>
                </g>
                <g transform="matrix(4.96669,0,0,4.96669,80.6249,70.1884)">
                    <path d="M0,-14.045L-6.417,-14.045C-8.52,-14.045 -10.23,-12.334 -10.23,-10.231L-10.23,-3.814C-10.23,-1.711 -8.52,0 -6.417,0L-3.923,0L-3.923,-0.669L-6.417,-0.669C-8.151,-0.669 -9.563,-2.079 -9.563,-3.814L-9.563,-10.231C-9.563,-11.965 -8.151,-13.376 -6.417,-13.376L0,-13.376C1.734,-13.376 3.146,-11.965 3.146,-10.231L3.146,-3.814C3.146,-2.079 1.734,-0.669 0,-0.669L-0.965,-0.669L-0.965,0L0,0C2.104,0 3.814,-1.711 3.814,-3.814L3.814,-10.231C3.814,-12.334 2.104,-14.045 0,-14.045Z" style="fill:rgb(119,113,109);fill-rule:nonzero;stroke:rgb(119,113,109);stroke-width:0.04px;"/>
                </g>
            </g>
        </g>
    </g>
</svg>
