<?xml version="1.0" encoding="UTF-8" standalone="no"?>
<svg width="29px" height="29px" viewBox="0 0 29 29" version="1.1" xmlns="http://www.w3.org/2000/svg" xmlns:xlink="http://www.w3.org/1999/xlink">
    <!-- Generator: Sketch 46.2 (44496) - http://www.bohemiancoding.com/sketch -->
    <title>Twitter</title>
    <desc>Created with Sketch.</desc>
    <defs>
        <polygon id="path-1" points="4.66524721 10.0869565 9.20860752 10.0869565 9.20860752 0.110160183 0.121886898 0.110160183 0.121886898 10.0869565"></polygon>
    </defs>
    <g id="Pattern-Library" stroke="none" stroke-width="1" fill="none" fill-rule="evenodd">
        <g id="Component1" transform="translate(-354.000000, -5938.000000)">
            <g id="Group-4" transform="translate(272.000000, 5938.000000)">
                <g id="Twitter" transform="translate(82.000000, 0.000000)">
                    <circle id="Oval-2" fill="#408AB8" cx="14.5" cy="14.5" r="14.5"></circle>
                    <g id="Page-1" transform="translate(7.595238, 6.904762)">
                        <path d="M1.72723475,0 C2.67987678,0 3.45238095,0.782520399 3.45238095,1.74489108 C3.45238095,2.70831816 2.67987678,3.49083855 1.72723475,3.49083855 C0.770937761,3.49083855 0,2.70831816 0,1.74489108 C0,0.782520399 0.770937761,0 1.72723475,0 L1.72723475,0 Z M0.236006683,14.5 L3.21637427,14.5 L3.21637427,4.81475849 L0.236006683,4.81475849 L0.236006683,14.5 Z" id="Fill-1" fill="#FFFCF6"></path>
                        <g id="Group-5" transform="translate(4.833333, 4.142857)">
                            <mask id="mask-2" fill="white">
                                <use xlink:href="#path-1"></use>
                            </mask>
                            <g id="Clip-4"></g>
                            <path d="M0.121886898,0.35224714 L2.9159057,0.35224714 L2.9159057,1.68266362 L2.95552086,1.68266362 C3.34400499,0.916851259 4.29579113,0.110160183 5.71375823,0.110160183 C8.6629151,0.110160183 9.20883754,2.12542792 9.20883754,4.74724027 L9.20883754,10.0869565 L6.29648443,10.0869565 L6.29648443,5.35405034 C6.29648443,4.22404577 6.27501557,2.77178947 4.78114072,2.77178947 C3.26426351,2.77178947 3.03321769,4.00160183 3.03321769,5.27043478 L3.03321769,10.0869565 L0.121886898,10.0869565 L0.121886898,0.35224714 Z" id="Fill-3" fill="#F4F3F1" mask="url(#mask-2)"></path>
                        </g>
                    </g>
                </g>
            </g>
        </g>
    </g>
</svg>