<?xml version="1.0" encoding="UTF-8" standalone="no"?>
<svg width="36px" height="35px" viewBox="0 0 36 35" version="1.1" xmlns="http://www.w3.org/2000/svg" xmlns:xlink="http://www.w3.org/1999/xlink">
    <!-- Generator: Sketch 46.2 (44496) - http://www.bohemiancoding.com/sketch -->
    <title>Group 16</title>
    <desc>Created with Sketch.</desc>
    <defs></defs>
    <g id="Pattern-Library" stroke="none" stroke-width="1" fill="none" fill-rule="evenodd">
        <g id="Header-and-footer" transform="translate(-306.000000, -4212.000000)">
            <g id="Group-18" transform="translate(164.000000, 3825.000000)">
                <g id="Footer">
                    <g id="Group-10" transform="translate(95.000000, 387.000000)">
                        <g id="Group-16" transform="translate(47.445255, 0.000000)">
                            <path d="M35.1094891,32.2133758 C35.1094891,33.7460191 33.8516021,35 32.3141847,35 L2.79530439,35 C1.25788698,35 0,33.7460191 0,32.2133758 L0,2.7866242 C0,1.25398089 1.25788698,0 2.79530439,0 L32.3141847,0 C33.8516021,0 35.1094891,1.25398089 35.1094891,2.7866242 L35.1094891,32.2133758 Z" id="Fill-10" fill="#FFFAF0"></path>
                            <path d="M8.54176357,4.72972973 C10.1126679,4.72972973 11.3868613,6.05711355 11.3868613,7.6894109 C11.3868613,9.32363199 10.1126679,10.6510158 8.54176357,10.6510158 C6.96485104,10.6510158 5.69343066,9.32363199 5.69343066,7.6894109 C5.69343066,6.05711355 6.96485104,4.72972973 8.54176357,4.72972973 L8.54176357,4.72972973 Z M6.08303712,29.3243243 L10.9972548,29.3243243 L10.9972548,12.8965068 L6.08303712,12.8965068 L6.08303712,29.3243243 Z" id="Fill-12" fill="#34383C"></path>
                            <path d="M14.2335766,13.6332463 L18.9021118,13.6332463 L18.9021118,15.7775742 L18.9681306,15.7775742 C19.6173151,14.5432535 21.207267,13.2432432 23.5766071,13.2432432 C28.5041742,13.2432432 29.4160584,16.4914314 29.4160584,20.7176132 L29.4160584,29.3243243 L24.5499254,29.3243243 L24.5499254,21.6956068 C24.5499254,19.8742143 24.5141652,17.5332771 22.0187476,17.5332771 C19.4839022,17.5332771 19.0978758,19.5154483 19.0978758,21.5610121 L19.0978758,29.3243243 L14.2335766,29.3243243 L14.2335766,13.6332463 Z" id="Fill-14" fill="#34383C"></path>
                        </g>
                    </g>
                </g>
            </g>
        </g>
    </g>
</svg>