<?xml version="1.0" encoding="utf-8"?>
<!-- Generator: Adobe Illustrator 25.0.0, SVG Export Plug-In . SVG Version: 6.00 Build 0)  -->
<svg version="1.1" id="Layer_1" xmlns="http://www.w3.org/2000/svg" xmlns:xlink="http://www.w3.org/1999/xlink" x="0px" y="0px"
	 viewBox="0 0 22.3 18.1" style="enable-background:new 0 0 22.3 18.1;" xml:space="preserve">
<style type="text/css">
	.st0{fill:#3F3F3E;}
</style>
<g>
	<g>
		<path class="st0" d="M17.7,16.6H4.6c-0.5,0-0.9-0.4-0.9-0.9V2.5c0-0.5,0.4-0.9,0.9-0.9h13.2c0.5,0,0.9,0.4,0.9,0.9v13.2
			C18.6,16.2,18.2,16.6,17.7,16.6z M4.6,2C4.3,2,4.1,2.2,4.1,2.5v13.2c0,0.3,0.2,0.5,0.5,0.5h13.2c0.3,0,0.5-0.2,0.5-0.5V2.5
			C18.2,2.2,18,2,17.7,2H4.6z"/>
	</g>
	<path class="st0" d="M10.6,14.1c-0.1,0-0.2,0-0.3,0C9.9,14,9.6,13.5,9.7,13c0.2-0.8,0.6-2,1-3.2c0.2-0.6,0.3-1.1,0.5-1.6
		c0.1-0.3,0-0.6-0.2-0.6c-0.2-0.1-0.6,0.1-0.7,0.5L9.7,7.8c0.2-0.7,0.9-1,1.4-0.8c0.4,0.1,0.8,0.6,0.5,1.3c-0.2,0.5-0.3,1-0.5,1.6
		c-0.4,1.2-0.8,2.5-1,3.2c-0.1,0.3,0.1,0.5,0.3,0.5c0.3,0.1,0.7-0.1,1-1l0.5,0.1C11.7,13.8,11.1,14.1,10.6,14.1z"/>
	<circle class="st0" cx="12" cy="5" r="0.7"/>
</g>
</svg>
