<?xml version="1.0" encoding="utf-8"?>
<!-- Generator: Adobe Illustrator 25.0.0, SVG Export Plug-In . SVG Version: 6.00 Build 0)  -->
<svg version="1.1" id="Layer_1" xmlns="http://www.w3.org/2000/svg" xmlns:xlink="http://www.w3.org/1999/xlink" x="0px" y="0px"
	 viewBox="0 0 22.3 18.1" style="enable-background:new 0 0 22.3 18.1;" xml:space="preserve">
<style type="text/css">
	.st0{fill:#989898;}
	.st1{fill:#FFFFFF;}
</style>
<g>
	<g>
		<path class="st0" d="M17.8,16.6H4.6c-0.5,0-0.9-0.4-0.9-0.9V2.5c0-0.5,0.4-0.9,0.9-0.9h13.2c0.5,0,0.9,0.4,0.9,0.9v13.2
			C18.7,16.2,18.3,16.6,17.8,16.6z"/>
	</g>
	<path class="st1" d="M10.7,14.2c-0.1,0-0.2,0-0.3,0c-0.6-0.2-0.9-0.7-0.8-1.3c0.2-0.8,0.6-2,1-3.2c0.2-0.6,0.4-1.1,0.5-1.6
		c0.1-0.3,0-0.5-0.2-0.5c-0.2-0.1-0.5,0.1-0.6,0.4L9.7,7.8c0.2-0.7,0.9-1,1.5-0.9c0.5,0.1,0.8,0.6,0.6,1.4c-0.2,0.5-0.3,1-0.5,1.6
		c-0.4,1.2-0.8,2.4-1,3.2c0,0.2,0.1,0.4,0.3,0.4c0.3,0.1,0.6-0.1,0.9-0.9l0.7,0.2C11.8,13.9,11.2,14.2,10.7,14.2z"/>
	<circle class="st1" cx="12.1" cy="5" r="0.7"/>
</g>
</svg>
