<?xml version="1.0" encoding="UTF-8" standalone="no"?><!DOCTYPE svg PUBLIC "-//W3C//DTD SVG 1.1//EN" "http://www.w3.org/Graphics/SVG/1.1/DTD/svg11.dtd"><svg width="100%" height="100%" viewBox="0 0 43 49" version="1.1" xmlns="http://www.w3.org/2000/svg" xmlns:xlink="http://www.w3.org/1999/xlink" xml:space="preserve" xmlns:serif="http://www.serif.com/" style="fill-rule:evenodd;clip-rule:evenodd;stroke-linejoin:round;stroke-miterlimit:1.41421;"><path d="M21.46,0c5.346,0.051 10.376,4.186 11.361,9.501c0.696,3.757 -0.602,7.833 -3.363,10.496c-3.22,3.107 -8.302,4.134 -12.534,2.373c-3.712,-1.544 -6.499,-5.132 -7.057,-9.117c-0.692,-4.937 2.171,-10.161 6.732,-12.225c1.521,-0.688 3.193,-1.033 4.861,-1.028Zm-0.139,1.762c-4.51,0.043 -8.732,3.481 -9.617,7.939c-0.635,3.202 0.445,6.699 2.788,8.987c2.723,2.658 7.038,3.543 10.621,2.078c3.158,-1.29 5.542,-4.322 6.036,-7.696c0.611,-4.165 -1.767,-8.598 -5.596,-10.386c-1.32,-0.617 -2.79,-0.927 -4.232,-0.922Z" style="fill:#fefaef;fill-rule:nonzero;"/><path d="M28.022,24.211c3.062,0.045 6.012,1.639 8.6,3.498c2.827,2.029 5.514,4.79 5.548,8.09l0,8.659l-0.367,0.279c-1.004,0.74 -2.207,1.205 -3.405,1.625c-5.518,1.937 -11.504,2.288 -17.406,2.251c-5.984,-0.039 -12.069,-0.578 -17.629,-2.757c-1.027,-0.402 -2.057,-0.846 -2.955,-1.468l-0.392,-0.278c0,-3.025 -0.036,-6.051 0,-9.077c0.05,-2.504 2.095,-4.675 4.222,-6.385c3.121,-2.509 6.969,-4.393 10.764,-4.437l0.452,-0.002l5.94,6.253l6.204,-6.254c0.141,0.001 0.283,0.002 0.424,0.003Zm-13.317,1.77c-3.997,0.2 -7.831,2.439 -10.563,5.099c-1.176,1.145 -2.347,2.579 -2.364,3.998l0,8.091c2.796,1.625 6.015,2.351 9.24,2.89c7.169,1.196 14.619,1.164 21.601,-0.055c2.691,-0.469 5.426,-1.073 7.775,-2.45l0.014,-0.009c0,-2.586 0.026,-5.172 -0.001,-7.759c-0.046,-2.714 -2.517,-5.011 -4.876,-6.691c-2.167,-1.544 -4.634,-2.884 -7.17,-3.105l-6.994,7.002c-2.22,-2.337 -6.771,-7.006 -6.662,-7.011Z" style="fill:#fefaef;fill-rule:nonzero;"/></svg>