<?xml version="1.0" encoding="UTF-8" standalone="no"?>
<!DOCTYPE svg PUBLIC "-//W3C//DTD SVG 1.1//EN" "http://www.w3.org/Graphics/SVG/1.1/DTD/svg11.dtd">
<svg width="100%" height="100%" viewBox="0 0 47 47" version="1.1" xmlns="http://www.w3.org/2000/svg" xmlns:xlink="http://www.w3.org/1999/xlink" xml:space="preserve" xmlns:serif="http://www.serif.com/" style="fill-rule:evenodd;clip-rule:evenodd;stroke-linecap:round;stroke-linejoin:round;">
    <g transform="matrix(1.06055,0,0,1.06055,0.717703,0.711048)">
        <g id="Page-1">
            <g>
                <g id="Group-19" transform="matrix(1,0,0,1,0,0.66)">
                    <path id="Stroke-1" d="M21.176,0.35C23.975,0.35 26.244,2.621 26.244,5.42C26.244,8.219 23.975,10.489 21.176,10.489C18.376,10.489 16.107,8.219 16.107,5.42C16.107,2.621 18.376,0.35 21.176,0.35Z" style="fill:none;stroke:rgb(8,49,71);stroke-width:1.01px;"/>
                    <path id="Stroke-3" d="M21.176,30.765C23.975,30.765 26.244,33.034 26.244,35.833C26.244,38.633 23.975,40.902 21.176,40.902C18.376,40.902 16.107,38.633 16.107,35.833C16.107,33.034 18.376,30.765 21.176,30.765Z" style="fill:none;stroke:rgb(8,49,71);stroke-width:1.01px;"/>
                    <path id="Stroke-5" d="M5.97,0.35C8.769,0.35 11.038,2.621 11.038,5.42C11.038,8.219 8.769,10.489 5.97,10.489C3.171,10.489 0.901,8.219 0.901,5.42C0.901,2.621 3.171,0.35 5.97,0.35Z" style="fill:none;stroke:rgb(8,49,71);stroke-width:1.01px;"/>
                    <path id="Stroke-7" d="M36.382,0.35C39.181,0.35 41.451,2.621 41.451,5.42C41.451,8.219 39.181,10.489 36.382,10.489C33.583,10.489 31.313,8.219 31.313,5.42C31.313,2.621 33.583,0.35 36.382,0.35Z" style="fill:none;stroke:rgb(8,49,71);stroke-width:1.01px;"/>
                    <path id="Stroke-9" d="M5.97,30.765C8.769,30.765 11.038,33.034 11.038,35.833C11.038,38.633 8.769,40.902 5.97,40.902C3.171,40.902 0.901,38.633 0.901,35.833C0.901,33.034 3.171,30.765 5.97,30.765Z" style="fill:none;stroke:rgb(8,49,71);stroke-width:1.01px;"/>
                    <path id="Stroke-11" d="M36.382,30.765C39.181,30.765 41.451,33.034 41.451,35.833C41.451,38.633 39.181,40.902 36.382,40.902C33.583,40.902 31.313,38.633 31.313,35.833C31.313,33.034 33.583,30.765 36.382,30.765Z" style="fill:none;stroke:rgb(8,49,71);stroke-width:1.01px;"/>
                    <path id="Stroke-13" d="M5.97,15.557C8.769,15.557 11.038,17.828 11.038,20.627C11.038,23.426 8.769,25.695 5.97,25.695C3.171,25.695 0.901,23.426 0.901,20.627C0.901,17.828 3.171,15.557 5.97,15.557Z" style="fill:none;stroke:rgb(8,49,71);stroke-width:1.01px;"/>
                    <path id="Stroke-15" d="M21.176,15.557C23.975,15.557 26.244,17.828 26.244,20.627C26.244,23.426 23.975,25.695 21.176,25.695C18.376,25.695 16.107,23.426 16.107,20.627C16.107,17.828 18.376,15.557 21.176,15.557Z" style="fill:none;stroke:rgb(8,49,71);stroke-width:1.01px;"/>
                    <path id="Stroke-17" d="M36.382,15.557C39.181,15.557 41.451,17.828 41.451,20.627C41.451,23.426 39.181,25.695 36.382,25.695C33.583,25.695 31.313,23.426 31.313,20.627C31.313,17.828 33.583,15.557 36.382,15.557Z" style="fill:none;stroke:rgb(8,49,71);stroke-width:1.01px;"/>
                </g>
                <path id="Stroke-20" d="M21.176,26.356L21.176,31.423L21.176,26.356Z" style="fill:none;stroke:rgb(8,49,71);stroke-width:1.01px;"/>
                <path id="Stroke-21" d="M21.176,11.148L21.176,16.216L21.176,11.148Z" style="fill:none;stroke:rgb(8,49,71);stroke-width:1.01px;"/>
                <path id="Stroke-22" d="M9.554,9.663L17.592,17.701L9.554,9.663Z" style="fill:none;stroke:rgb(8,49,71);stroke-width:1.01px;"/>
                <path id="Stroke-23" d="M32.799,32.909L24.76,24.869L32.799,32.909Z" style="fill:none;stroke:rgb(8,49,71);stroke-width:1.01px;"/>
                <path id="Stroke-24" d="M32.802,9.667L24.763,17.705L32.802,9.667Z" style="fill:none;stroke:rgb(8,49,71);stroke-width:1.01px;"/>
                <path id="Stroke-25" d="M9.558,32.912L17.595,24.874L9.558,32.912Z" style="fill:none;stroke:rgb(8,49,71);stroke-width:1.01px;"/>
                <path id="Stroke-26" d="M26.246,21.286L31.315,21.286L26.246,21.286Z" style="fill:none;stroke:rgb(8,49,71);stroke-width:1.01px;"/>
                <path id="Stroke-27" d="M11.039,21.286L16.108,21.286L11.039,21.286Z" style="fill:none;stroke:rgb(8,49,71);stroke-width:1.01px;"/>
            </g>
        </g>
    </g>
</svg>
