<?xml version="1.0" encoding="UTF-8" standalone="no"?><!DOCTYPE svg PUBLIC "-//W3C//DTD SVG 1.1//EN" "http://www.w3.org/Graphics/SVG/1.1/DTD/svg11.dtd"><svg width="100%" height="100%" viewBox="0 0 20 28" version="1.1" xmlns="http://www.w3.org/2000/svg" xmlns:xlink="http://www.w3.org/1999/xlink" xml:space="preserve" xmlns:serif="http://www.serif.com/" style="fill-rule:evenodd;clip-rule:evenodd;stroke-linejoin:round;stroke-miterlimit:1.41421;"><path d="M8.785,0.891c0.12,-0.505 0.554,-0.891 1.096,-0.891c0.543,0 0.977,0.386 1.097,0.891l2.018,0c0.665,0 1.193,0.492 1.305,1.125l2.716,0c1.296,0 2.35,1.055 2.35,2.351l0,21.083c0,1.296 -1.054,2.35 -2.35,2.35l-14.667,0c-1.296,0 -2.35,-1.054 -2.35,-2.35l0,-21.083c0,-1.296 1.054,-2.351 2.35,-2.351l2.904,0c0.111,-0.633 0.64,-1.125 1.305,-1.125l2.226,0Zm-3.576,2.659l0,-0.833l-2.859,0c-0.91,0 -1.65,0.74 -1.65,1.65l0,21.083c0,0.91 0.74,1.65 1.65,1.65l14.667,0c0.91,0 1.65,-0.74 1.65,-1.65l0,-21.083c0,-0.91 -0.74,-1.65 -1.65,-1.65l-2.671,0l0,0.833l1.407,0c1.073,0 1.946,0.873 1.946,1.945l0,17.451c0,1.073 -0.873,1.945 -1.946,1.945l-12.139,0c-1.073,0 -1.946,-0.872 -1.946,-1.945l0,-17.451c0,-1.072 0.873,-1.945 1.946,-1.945l1.595,0Zm10.544,20.762c0.754,0 1.367,-0.612 1.367,-1.366l0,-17.451c0,-0.753 -0.613,-1.366 -1.367,-1.366l-1.409,0c-0.008,0.738 -0.608,1.338 -1.348,1.338l-6.437,0c-0.741,0 -1.341,-0.6 -1.348,-1.338l-1.597,0c-0.754,0 -1.366,0.613 -1.366,1.366l0,17.451c0,0.754 0.612,1.366 1.366,1.366l12.139,0Zm-1.733,-7.545l0,0.7l-8.652,0l0,-0.7l8.652,0Zm0,-2.781l0,0.7l-8.652,0l0,-0.7l8.652,0Zm0,-2.124l-8.656,0l0,-0.7l8.656,0l0,0.7Zm-1.024,-7.096c0.359,0 0.65,-0.291 0.65,-0.649l0,-1.875c0,-0.359 -0.291,-0.65 -0.65,-0.65l-6.437,0c-0.359,0 -0.65,0.291 -0.65,0.65l0,1.875c0,0.358 0.291,0.649 0.65,0.649l6.437,0Zm-2.418,-3.875c-0.106,-0.285 -0.375,-0.491 -0.697,-0.491c-0.321,0 -0.59,0.206 -0.695,0.491l1.392,0Z" style="fill:#fffcf5;fill-rule:nonzero;"/></svg>