<?xml version="1.0" encoding="UTF-8" standalone="no"?><!DOCTYPE svg PUBLIC "-//W3C//DTD SVG 1.1//EN" "http://www.w3.org/Graphics/SVG/1.1/DTD/svg11.dtd"><svg width="100%" height="100%" viewBox="0 0 19 15" version="1.1" xmlns="http://www.w3.org/2000/svg" xmlns:xlink="http://www.w3.org/1999/xlink" xml:space="preserve" xmlns:serif="http://www.serif.com/" style="fill-rule:evenodd;clip-rule:evenodd;stroke-linejoin:round;stroke-miterlimit:1.41421;"><path d="M1.967,0.723c-0.685,0 -1.244,0.558 -1.244,1.244l0,10.261c0,0.687 0.559,1.245 1.244,1.245l14.854,0c0.685,0 1.243,-0.558 1.243,-1.245l0,-10.261c0,-0.686 -0.558,-1.244 -1.243,-1.244l-14.854,0Zm14.854,13.473l-14.854,0c-1.085,0 -1.967,-0.883 -1.967,-1.968l0,-10.261c0,-1.085 0.882,-1.967 1.967,-1.967l14.854,0c1.084,0 1.967,0.882 1.967,1.967l0,10.261c0,1.085 -0.883,1.968 -1.967,1.968" style="fill:#fffcf5;fill-rule:nonzero;"/><path d="M14.563,14.172l-12.596,0c-1.071,0 -1.943,-0.872 -1.943,-1.944l0,-10.261c0,-1.072 0.872,-1.944 1.943,-1.944l12.596,0c1.072,0 1.944,0.872 1.944,1.944l0,2.478l-0.676,0l0,-2.478c0,-0.699 -0.569,-1.268 -1.268,-1.268l-12.596,0c-0.699,0 -1.268,0.569 -1.268,1.268l0,10.261c0,0.7 0.569,1.268 1.268,1.268l12.596,0c0.699,0 1.268,-0.568 1.268,-1.268l0,-2.363l0.676,0l0,2.363c0,1.072 -0.872,1.944 -1.944,1.944" style="fill:#fffcf5;fill-rule:nonzero;"/><path d="M18.387,10.094l-4.282,0c-1.925,0 -2.932,-1.51 -2.932,-3c0,-0.773 0.262,-1.494 0.737,-2.03c0.541,-0.609 1.311,-0.932 2.228,-0.932l4.048,0l0,0.676l-4.048,0c-1.581,0 -2.289,1.148 -2.289,2.286c0,1.119 0.706,2.324 2.256,2.324l4.282,0l0,0.676Z" style="fill:#fffcf5;fill-rule:nonzero;"/><path d="M14.372,6.373c-0.38,0 -0.689,0.31 -0.689,0.69c0,0.38 0.309,0.69 0.689,0.69c0.38,0 0.689,-0.31 0.689,-0.69c0,-0.38 -0.309,-0.69 -0.689,-0.69m0,1.941c-0.69,0 -1.252,-0.56 -1.252,-1.251c0,-0.69 0.562,-1.251 1.252,-1.251c0.69,0 1.251,0.561 1.251,1.251c0,0.691 -0.561,1.251 -1.251,1.251" style="fill:#fffcf5;fill-rule:nonzero;"/></svg>