<?xml version="1.0" encoding="UTF-8" standalone="no"?><!DOCTYPE svg PUBLIC "-//W3C//DTD SVG 1.1//EN" "http://www.w3.org/Graphics/SVG/1.1/DTD/svg11.dtd"><svg width="100%" height="100%" viewBox="0 0 17 24" version="1.1" xmlns="http://www.w3.org/2000/svg" xmlns:xlink="http://www.w3.org/1999/xlink" xml:space="preserve" xmlns:serif="http://www.serif.com/" style="fill-rule:evenodd;clip-rule:evenodd;stroke-linejoin:round;stroke-miterlimit:1.41421;"><path d="M16.013,21.296c-0.485,0.336 -2.558,1.529 -7.486,1.529c-4.975,0 -7.289,-1.338 -7.827,-1.702l0,-6.124c0,-1.668 3.202,-4.248 5.271,-4.248l5.109,0c1.47,0 4.933,2.399 4.933,4.588l0,5.957Zm-12.333,-16.007c0,-2.531 2.059,-4.589 4.59,-4.589c2.532,0 4.591,2.058 4.591,4.589c0,2.531 -2.059,4.59 -4.591,4.59c-2.531,0 -4.59,-2.059 -4.59,-4.59m7.4,4.762l-0.546,0c1.783,-0.852 3.027,-2.658 3.027,-4.762c0,-2.916 -2.374,-5.289 -5.291,-5.289c-2.917,0 -5.29,2.373 -5.29,5.289c0,2.104 1.243,3.91 3.027,4.762l-0.036,0c-2.511,0 -5.971,2.867 -5.971,4.948l0,6.464l0.124,0.105c0.094,0.08 2.381,1.957 8.403,1.957c6.028,0 7.991,-1.724 8.071,-1.797l0.115,-0.104l0,-6.285c0,-2.57 -3.663,-5.288 -5.633,-5.288" style="fill:#fffcf5;fill-rule:nonzero;"/></svg>