<?xml version="1.0" encoding="UTF-8" standalone="no"?><!DOCTYPE svg PUBLIC "-//W3C//DTD SVG 1.1//EN" "http://www.w3.org/Graphics/SVG/1.1/DTD/svg11.dtd"><svg width="100%" height="100%" viewBox="0 0 17 17" version="1.1" xmlns="http://www.w3.org/2000/svg" xmlns:xlink="http://www.w3.org/1999/xlink" xml:space="preserve" xmlns:serif="http://www.serif.com/" style="fill-rule:evenodd;clip-rule:evenodd;stroke-linejoin:round;stroke-miterlimit:1.41421;"><path d="M2.455,0.8c-0.913,0 -1.655,0.742 -1.655,1.655l0,11.605c0,0.913 0.742,1.655 1.655,1.655l11.605,0c0.913,0 1.655,-0.742 1.655,-1.655l0,-11.605c0,-0.913 -0.742,-1.655 -1.655,-1.655l-11.605,0Zm11.605,15.715l-11.605,0c-1.354,0 -2.455,-1.101 -2.455,-2.455l0,-11.605c0,-1.354 1.101,-2.455 2.455,-2.455l11.605,0c1.354,0 2.455,1.101 2.455,2.455l0,11.605c0,1.354 -1.101,2.455 -2.455,2.455" style="fill:#fffcf5;fill-rule:nonzero;"/><path d="M7.707,13.731c-0.106,0 -0.209,-0.014 -0.305,-0.04c-0.612,-0.164 -0.975,-0.763 -0.826,-1.363c0.199,-0.807 0.623,-2.138 1.032,-3.425c0.186,-0.587 0.37,-1.166 0.529,-1.681c0.04,-0.128 0.105,-0.434 -0.14,-0.513c-0.16,-0.053 -0.464,0.015 -0.598,0.414l-0.758,-0.254c0.272,-0.811 1.029,-1.106 1.601,-0.922c0.492,0.159 0.909,0.699 0.66,1.51c-0.159,0.518 -0.344,1.099 -0.532,1.689c-0.405,1.274 -0.825,2.593 -1.018,3.374c-0.047,0.193 0.093,0.354 0.257,0.398c0.251,0.064 0.639,-0.14 0.875,-0.957l0.768,0.223c-0.334,1.153 -0.986,1.547 -1.545,1.547" style="fill:#fffcf5;fill-rule:nonzero;"/><path d="M9.959,3.489c0.197,0.415 0.02,0.911 -0.396,1.108c-0.415,0.197 -0.911,0.019 -1.107,-0.396c-0.197,-0.415 -0.02,-0.911 0.395,-1.108c0.415,-0.196 0.911,-0.019 1.108,0.396" style="fill:#fffcf5;fill-rule:nonzero;"/></svg>