<?xml version="1.0" encoding="UTF-8" standalone="no"?>
<!DOCTYPE svg PUBLIC "-//W3C//DTD SVG 1.1//EN" "http://www.w3.org/Graphics/SVG/1.1/DTD/svg11.dtd">
<svg width="100%" height="100%" viewBox="0 0 31 30" version="1.1" xmlns="http://www.w3.org/2000/svg" xmlns:xlink="http://www.w3.org/1999/xlink" xml:space="preserve" xmlns:serif="http://www.serif.com/" style="fill-rule:evenodd;clip-rule:evenodd;stroke-linejoin:round;stroke-miterlimit:1.41421;">
    <g transform="matrix(1,0,0,1,-5.66253,-0.331724)">
        <g transform="matrix(0.925198,0,0,0.925198,-1150.71,-904.857)">
            <path d="M1274.42,982.659L1274.42,980.508C1274.42,979.707 1274.72,979.212 1274.97,978.938C1275.3,978.579 1275.77,978.373 1276.25,978.373C1277.11,978.373 1277.99,979.065 1277.99,980.388L1277.99,982.659L1279.73,982.659C1281.55,982.659 1283.03,984.137 1283.03,985.955L1283.03,1006.78C1283.03,1008.6 1281.55,1010.08 1279.73,1010.08L1253.17,1010.08C1251.35,1010.08 1249.87,1008.6 1249.87,1006.78L1249.87,985.955C1249.87,984.137 1251.35,982.659 1253.17,982.659L1255.16,982.659L1255.16,980.508C1255.16,979.707 1255.46,979.212 1255.71,978.938C1256.04,978.579 1256.51,978.373 1256.98,978.373C1257.85,978.373 1258.72,979.065 1258.72,980.388L1258.72,982.659L1264.76,982.659L1264.76,980.508C1264.76,979.707 1265.06,979.212 1265.31,978.938C1265.64,978.579 1266.11,978.373 1266.59,978.373C1267.45,978.373 1268.33,979.065 1268.33,980.388L1268.33,982.659L1274.42,982.659ZM1282.16,989.066L1250.73,989.066L1250.73,1006.78C1250.73,1008.13 1251.83,1009.22 1253.17,1009.22L1279.73,1009.22C1281.07,1009.22 1282.16,1008.13 1282.16,1006.78L1282.16,989.066ZM1257.11,1006.49L1255.57,1006.49C1255.02,1006.49 1254.57,1006.04 1254.57,1005.49L1254.57,1003.95C1254.57,1003.4 1255.02,1002.95 1255.57,1002.95L1257.11,1002.95C1257.66,1002.95 1258.11,1003.4 1258.11,1003.95L1258.11,1005.49C1258.11,1006.04 1257.66,1006.49 1257.11,1006.49ZM1277.23,1006.49L1275.69,1006.49C1275.14,1006.49 1274.69,1006.04 1274.69,1005.49L1274.69,1003.95C1274.69,1003.4 1275.14,1002.95 1275.69,1002.95L1277.23,1002.95C1277.78,1002.95 1278.23,1003.4 1278.23,1003.95L1278.23,1005.49C1278.23,1006.04 1277.78,1006.49 1277.23,1006.49ZM1270.51,1006.49L1268.97,1006.49C1268.42,1006.49 1267.97,1006.04 1267.97,1005.49L1267.97,1003.95C1267.97,1003.4 1268.42,1002.95 1268.97,1002.95L1270.51,1002.95C1271.06,1002.95 1271.51,1003.4 1271.51,1003.95L1271.51,1005.49C1271.51,1006.04 1271.06,1006.49 1270.51,1006.49ZM1263.83,1006.49L1262.29,1006.49C1261.74,1006.49 1261.29,1006.04 1261.29,1005.49L1261.29,1003.95C1261.29,1003.4 1261.74,1002.95 1262.29,1002.95L1263.83,1002.95C1264.38,1002.95 1264.83,1003.4 1264.83,1003.95L1264.83,1005.49C1264.83,1006.04 1264.38,1006.49 1263.83,1006.49ZM1270.51,1000.92L1268.97,1000.92C1268.42,1000.92 1267.97,1000.47 1267.97,999.917L1267.97,998.379C1267.97,997.829 1268.42,997.379 1268.97,997.379L1270.51,997.379C1271.06,997.379 1271.51,997.829 1271.51,998.379L1271.51,999.917C1271.51,1000.47 1271.06,1000.92 1270.51,1000.92ZM1277.23,1000.92L1275.69,1000.92C1275.14,1000.92 1274.69,1000.47 1274.69,999.917L1274.69,998.379C1274.69,997.829 1275.14,997.379 1275.69,997.379L1277.23,997.379C1277.78,997.379 1278.23,997.829 1278.23,998.379L1278.23,999.917C1278.23,1000.47 1277.78,1000.92 1277.23,1000.92ZM1257.11,1000.92L1255.57,1000.92C1255.02,1000.92 1254.57,1000.47 1254.57,999.917L1254.57,998.379C1254.57,997.829 1255.02,997.379 1255.57,997.379L1257.11,997.379C1257.66,997.379 1258.11,997.829 1258.11,998.379L1258.11,999.917C1258.11,1000.47 1257.66,1000.92 1257.11,1000.92ZM1263.83,1000.92L1262.29,1000.92C1261.74,1000.92 1261.29,1000.47 1261.29,999.917L1261.29,998.379C1261.29,997.829 1261.74,997.379 1262.29,997.379L1263.83,997.379C1264.38,997.379 1264.83,997.829 1264.83,998.379L1264.83,999.917C1264.83,1000.47 1264.38,1000.92 1263.83,1000.92ZM1263.83,995.477L1262.29,995.477C1261.74,995.477 1261.29,995.027 1261.29,994.477L1261.29,992.938C1261.29,992.389 1261.74,991.938 1262.29,991.938L1263.83,991.938C1264.38,991.938 1264.83,992.389 1264.83,992.938L1264.83,994.477C1264.83,995.027 1264.38,995.477 1263.83,995.477ZM1257.11,995.477L1255.57,995.477C1255.02,995.477 1254.57,995.027 1254.57,994.477L1254.57,992.938C1254.57,992.389 1255.02,991.938 1255.57,991.938L1257.11,991.938C1257.66,991.938 1258.11,992.389 1258.11,992.938L1258.11,994.477C1258.11,995.027 1257.66,995.477 1257.11,995.477ZM1270.51,995.477L1268.97,995.477C1268.42,995.477 1267.97,995.027 1267.97,994.477L1267.97,992.938C1267.97,992.389 1268.42,991.938 1268.97,991.938L1270.51,991.938C1271.06,991.938 1271.51,992.389 1271.51,992.938L1271.51,994.477C1271.51,995.027 1271.06,995.477 1270.51,995.477ZM1277.23,995.477L1275.69,995.477C1275.14,995.477 1274.69,995.027 1274.69,994.477L1274.69,992.938C1274.69,992.389 1275.14,991.938 1275.69,991.938L1277.23,991.938C1277.78,991.938 1278.23,992.389 1278.23,992.938L1278.23,994.477C1278.23,995.027 1277.78,995.477 1277.23,995.477ZM1279.73,983.522L1253.17,983.522C1251.83,983.522 1250.73,984.613 1250.73,985.955L1250.73,988.357L1282.16,988.357L1282.16,985.955C1282.16,984.613 1281.07,983.522 1279.73,983.522ZM1257.86,982.659L1257.86,980.388C1257.86,979.592 1257.42,979.237 1256.98,979.237C1256.52,979.237 1256.02,979.635 1256.02,980.508L1256.02,982.659L1257.86,982.659ZM1267.46,982.659L1267.46,980.388C1267.46,979.592 1267.02,979.237 1266.59,979.237C1266.12,979.237 1265.62,979.635 1265.62,980.508L1265.62,982.659L1267.46,982.659ZM1277.12,982.659L1277.12,980.388C1277.12,979.592 1276.68,979.237 1276.25,979.237C1275.78,979.237 1275.29,979.635 1275.29,980.508L1275.29,982.659L1277.12,982.659Z" style="fill:white;fill-rule:nonzero;"/>
        </g>
    </g>
</svg>
