<?xml version="1.0" encoding="UTF-8" standalone="no"?><!DOCTYPE svg PUBLIC "-//W3C//DTD SVG 1.1//EN" "http://www.w3.org/Graphics/SVG/1.1/DTD/svg11.dtd"><svg width="100%" height="100%" viewBox="0 0 77 51" version="1.1" xmlns="http://www.w3.org/2000/svg" xmlns:xlink="http://www.w3.org/1999/xlink" xml:space="preserve" xmlns:serif="http://www.serif.com/" style="fill-rule:evenodd;clip-rule:evenodd;stroke-linejoin:round;stroke-miterlimit:1.41421;"><path d="M0,4.381l0,-1.244c0,-1.73 1.394,-3.137 3.106,-3.137l70.761,0c1.713,0 3.107,1.407 3.107,3.137l0,1.329l0,0l0,40.666l0,0l0,1.771c0,1.73 -1.394,3.137 -3.107,3.137l-70.761,0c-1.712,0 -3.106,-1.407 -3.106,-3.137l0,-2.015l0.237,-0.232l-0.237,0l0,-40.275l0,0Zm75.673,41.29l-19.893,-19.881c-1.971,2.088 -9.557,10.084 -12.275,12.349c-1.025,0.85 -2.068,1.436 -3.113,1.758c-0.541,0.205 -1.08,0.307 -1.628,0.307c-0.103,0 -0.207,-0.004 -0.311,-0.011c-1.802,-0.008 -3.574,-0.809 -5.222,-2.4c-2.545,-2.453 -9.358,-9.461 -11.579,-11.751l-0.262,-0.258l-20.089,19.651l0,1.468c0,1.013 0.81,1.837 1.805,1.837l70.761,0c0.997,0 1.806,-0.824 1.806,-1.837l0,-1.12l0,0l0,-0.112Zm0,-39.914c-2.997,2.976 -11.545,11.465 -19.111,18.977l19.111,19.098l0,-38.075Zm-74.372,0.092l0,37.766l19.164,-18.744c-7.587,-7.497 -16.123,-15.993 -19.164,-19.022Zm72.566,-4.549l-70.761,0c-0.995,0 -1.805,0.824 -1.805,1.837l0,0.877c1.498,1.492 11.429,11.383 20.095,19.947l0.025,-0.025l0.454,0.469c0.015,0.015 0.258,0.266 0.669,0.69c6.024,5.947 11.202,11.018 12.125,11.792c1.737,1.451 3.093,2.112 4.407,1.98c0.142,-0.017 0.284,-0.041 0.426,-0.07c0.957,-0.222 1.912,-0.867 2.998,-1.937c2.35,-2.325 30.571,-30.35 33.173,-32.935l0,-0.788c0,-1.013 -0.809,-1.837 -1.806,-1.837Z" style="fill:#fffcf5;"/></svg>