<?xml version="1.0" encoding="UTF-8" standalone="no"?><!DOCTYPE svg PUBLIC "-//W3C//DTD SVG 1.1//EN" "http://www.w3.org/Graphics/SVG/1.1/DTD/svg11.dtd"><svg width="100%" height="100%" viewBox="0 0 49 80" version="1.1" xmlns="http://www.w3.org/2000/svg" xmlns:xlink="http://www.w3.org/1999/xlink" xml:space="preserve" xmlns:serif="http://www.serif.com/" style="fill-rule:evenodd;clip-rule:evenodd;stroke-linejoin:round;stroke-miterlimit:1.41421;"><path d="M42.339,79.633l-35.775,0c-3.619,0 -6.564,-2.944 -6.564,-6.563l0,-66.506c0,-3.619 2.945,-6.564 6.564,-6.564l35.775,0c3.62,0 6.565,2.945 6.565,6.564l0,66.506c0,3.619 -2.945,6.563 -6.565,6.563Zm0,-78.333l-35.775,0c-2.902,0 -5.264,2.361 -5.264,5.264l0,66.506c0,2.902 2.362,5.264 5.264,5.264l35.775,0c2.903,0 5.264,-2.362 5.264,-5.264l0,-66.506c0,-2.903 -2.361,-5.264 -5.264,-5.264Zm-17.148,76.077c-2.376,0 -4.31,-1.933 -4.31,-4.31c0,-2.376 1.934,-4.31 4.31,-4.31c2.377,0 4.311,1.934 4.311,4.31c0,2.377 -1.934,4.31 -4.311,4.31Zm0,-7.32c-1.659,0 -3.009,1.351 -3.009,3.01c0,1.66 1.35,3.01 3.009,3.01c1.66,0 3.01,-1.35 3.01,-3.01c0,-1.659 -1.35,-3.01 -3.01,-3.01Zm15.195,-2.315l-31.936,0c-2.944,0 -5.34,-2.395 -5.34,-5.34l0,-47.378c0,-2.944 2.396,-5.34 5.34,-5.34l31.936,0c2.944,0 5.34,2.396 5.34,5.34l0,47.378c0,2.945 -2.396,5.34 -5.34,5.34Zm0,-56.758l-31.936,0c-2.228,0 -4.039,1.812 -4.039,4.04l0,47.378c0,2.228 1.811,4.04 4.039,4.04l31.936,0c2.227,0 4.04,-1.812 4.04,-4.04l0,-47.378c0,-2.228 -1.813,-4.04 -4.04,-4.04Zm-12.16,-4.652l-7.75,0l0,-2.223l7.75,0l0,2.223Z" style="fill:#fffcf5;fill-rule:nonzero;"/></svg>