<?xml version="1.0" encoding="UTF-8" standalone="no"?><!DOCTYPE svg PUBLIC "-//W3C//DTD SVG 1.1//EN" "http://www.w3.org/Graphics/SVG/1.1/DTD/svg11.dtd"><svg width="100%" height="100%" viewBox="0 0 23 28" version="1.1" xmlns="http://www.w3.org/2000/svg" xmlns:xlink="http://www.w3.org/1999/xlink" xml:space="preserve" xmlns:serif="http://www.serif.com/" style="fill-rule:evenodd;clip-rule:evenodd;stroke-linejoin:round;stroke-miterlimit:1.41421;"><path d="M5.543,17.426c1.604,1.396 3.604,2.103 5.609,2.103c2.135,0 4.266,-0.798 5.917,-2.381c0.02,-0.018 0.044,-0.031 0.064,-0.05c0.009,-0.009 0.014,-0.02 0.023,-0.028c0.015,-0.016 0.033,-0.028 0.048,-0.043c3.261,-3.262 3.326,-8.517 0.213,-11.869l1.233,-1.199c3.767,4.024 3.697,10.358 -0.229,14.284c-3.872,3.872 -10.083,3.992 -14.113,0.383l1.235,-1.2Zm-3.937,4.315c-0.556,0 -1.009,-0.453 -1.009,-1.009c0,-0.557 0.453,-1.01 1.009,-1.01c0.557,0 1.01,0.453 1.01,1.01c0,0.556 -0.453,1.009 -1.01,1.009m2.572,-14.384c0.01,1.087 0.387,2.348 1.093,3.642l-1.761,1.76c-0.418,-1.804 -0.2,-3.727 0.668,-5.402m6.974,-4.237c0.6,0 1.198,0.077 1.785,0.213l-1.903,1.903c-1.336,-0.729 -2.637,-1.108 -3.749,-1.094c1.196,-0.676 2.53,-1.022 3.867,-1.022m5.395,7.386c-0.535,-0.864 -1.212,-1.731 -2.018,-2.56l2.284,-2.285l0.042,0.044l0.06,-0.059c0.773,0.836 1.331,1.797 1.674,2.818l-2.042,2.042Zm-5.375,6.365c1.278,0.69 2.523,1.069 3.599,1.078c-1.661,0.861 -3.565,1.083 -5.356,0.68l1.757,-1.758Zm-5.394,-0.174l2.205,-2.205c0.829,0.804 1.694,1.486 2.558,2.02l-1.899,1.899c-1.04,-0.349 -2.018,-0.92 -2.864,-1.714m2.693,-7.908l2.113,2.112l-2.591,2.59c-0.723,-0.766 -1.339,-1.572 -1.831,-2.393l2.309,-2.309Zm-3.106,-3.106l2.611,2.611l-2.172,2.172c-0.258,-0.499 -0.483,-0.998 -0.636,-1.486c-0.443,-1.41 -0.367,-2.565 0.197,-3.297m3.106,2.116l-2.59,-2.59c0.393,-0.241 0.883,-0.357 1.439,-0.357c0.926,0 2.036,0.322 3.183,0.915l-2.032,2.032Zm5.06,0.154l-2.452,2.453l-2.113,-2.112l2.168,-2.168c0.812,0.484 1.624,1.1 2.397,1.827m0.332,5.237l-2.289,-2.289l2.46,-2.46c0.802,0.828 1.472,1.71 1.991,2.587l-2.162,2.162Zm3.052,3.052l-2.557,-2.557l2.02,-2.02c0.931,1.82 1.174,3.537 0.537,4.577m-5.849,-0.255c-0.888,-0.528 -1.763,-1.196 -2.585,-1.993l2.598,-2.598l2.289,2.289l-2.302,2.302Zm2.797,-1.807l2.581,2.582c-0.732,0.564 -1.886,0.641 -3.297,0.197c-0.476,-0.149 -0.961,-0.366 -1.448,-0.615l2.164,-2.164Zm0.167,-6.726c-0.772,-0.73 -1.572,-1.354 -2.372,-1.852l2.049,-2.049c0.96,0.329 1.867,0.849 2.665,1.56l-2.342,2.341Zm-10.299,6.075l1.906,-1.907c0.499,0.8 1.122,1.601 1.853,2.372l-2.199,2.2c-0.711,-0.798 -1.231,-1.705 -1.56,-2.665m14.254,1.312c0.015,-1.101 -0.359,-2.388 -1.074,-3.709l1.895,-1.895c0.424,1.882 0.151,3.886 -0.821,5.604m2.621,-14.244c0.557,0 1.01,0.453 1.01,1.01c0,0.556 -0.453,1.009 -1.01,1.009c-0.556,0 -1.009,-0.453 -1.009,-1.009c0,-0.557 0.453,-1.01 1.009,-1.01m-3.166,26.175l-12.521,0.039c0.162,-0.635 0.566,-1.799 1.358,-1.799l9.75,0c0.887,0 1.27,1.14 1.413,1.76m1.629,-7.881c4.28,-4.281 4.352,-11.188 0.237,-15.57l0.397,-0.387c0.258,0.176 0.569,0.28 0.903,0.28c0.887,0 1.607,-0.721 1.607,-1.607c0,-0.887 -0.72,-1.607 -1.607,-1.607c-0.886,0 -1.606,0.72 -1.606,1.607c0,0.298 0.086,0.573 0.228,0.812l-0.417,0.406c-1.056,-0.993 -2.265,-1.771 -3.614,-2.292l-0.33,0.853c1.225,0.475 2.324,1.18 3.287,2.078l-1.235,1.201c-3.354,-3.067 -8.573,-2.988 -11.818,0.258c-0.016,0.015 -0.029,0.032 -0.044,0.048c-0.009,0.009 -0.019,0.015 -0.028,0.023c-0.03,0.031 -0.053,0.067 -0.083,0.099c-3.15,3.324 -3.124,8.568 0.084,11.855l-1.233,1.199c-1.008,-1.033 -1.778,-2.235 -2.278,-3.579l-0.859,0.319c0.546,1.465 1.383,2.772 2.481,3.897l-0.635,0.617c-0.257,-0.174 -0.567,-0.276 -0.9,-0.276c-0.886,0 -1.606,0.72 -1.606,1.607c0,0.886 0.72,1.607 1.606,1.607c0.887,0 1.607,-0.721 1.607,-1.607c0,-0.3 -0.087,-0.577 -0.231,-0.818l0.668,-0.649c1.957,1.771 4.386,2.728 6.861,2.869l0,2.178l-4.234,0c-1.698,0 -2.12,2.684 -2.137,2.799l-0.061,0.402l14.176,-0.044l-0.046,-0.39c-0.014,-0.113 -0.35,-2.767 -2.182,-2.767l-4.816,0l0,-2.15c2.848,-0.015 5.69,-1.104 7.858,-3.271" style="fill:#fffcf5;fill-rule:nonzero;"/></svg>