<?xml version="1.0" encoding="UTF-8" standalone="no"?><!DOCTYPE svg PUBLIC "-//W3C//DTD SVG 1.1//EN" "http://www.w3.org/Graphics/SVG/1.1/DTD/svg11.dtd"><svg width="100%" height="100%" viewBox="0 0 20 20" version="1.1" xmlns="http://www.w3.org/2000/svg" xmlns:xlink="http://www.w3.org/1999/xlink" xml:space="preserve" xmlns:serif="http://www.serif.com/" style="fill-rule:evenodd;clip-rule:evenodd;stroke-linejoin:round;stroke-miterlimit:1.41421;"><path d="M13.731,1.993l1.573,-1.573c0.366,-0.367 0.738,-0.431 0.965,-0.419c0.306,0.014 0.601,0.156 0.854,0.41l1.858,1.857c0.528,0.529 0.524,1.189 -0.009,1.723l-1.622,1.622l0.102,0.102c0.258,0.258 0.258,0.677 0,0.935c-0.104,0.104 -0.23,0.168 -0.361,0.193c-0.023,0.133 -0.087,0.255 -0.184,0.352c-0.112,0.112 -0.249,0.178 -0.39,0.198c-0.019,0.139 -0.082,0.273 -0.188,0.38c-0.112,0.111 -0.249,0.177 -0.39,0.198c-0.019,0.139 -0.081,0.273 -0.187,0.38c-0.138,0.137 -0.313,0.205 -0.486,0.205c-0.075,0 -0.15,-0.013 -0.221,-0.038l-8.127,8.083l-6.918,2.695l1.117,-2.836l-0.008,-0.017c0.006,-0.003 0.012,-0.005 0.017,-0.007l1.668,-4.235l7.994,-7.994c-0.011,-0.048 -0.017,-0.099 -0.017,-0.15c0,-0.177 0.069,-0.343 0.194,-0.468c0.111,-0.112 0.249,-0.178 0.39,-0.198c0.018,-0.139 0.081,-0.273 0.188,-0.379c0.112,-0.113 0.249,-0.177 0.389,-0.197c0.019,-0.14 0.081,-0.275 0.188,-0.382c0.104,-0.105 0.231,-0.169 0.362,-0.194c0.023,-0.128 0.084,-0.251 0.183,-0.35c0.272,-0.272 0.691,-0.27 0.948,-0.013l0.118,0.117Zm-12.423,15.994l0.839,-0.327c0.006,-0.104 -0.021,-0.247 -0.16,-0.385c-0.112,-0.113 -0.233,-0.157 -0.336,-0.17l-0.343,0.882Zm2.762,-4.414c0,-0.013 0.022,-0.225 -0.244,-0.491c-0.259,-0.258 -0.514,-0.181 -0.542,-0.172l-0.001,-0.002l-1.359,3.494c0.199,0.054 0.404,0.16 0.59,0.347c0.203,0.203 0.308,0.423 0.352,0.631l3.709,-1.444l0.015,-0.015c-0.035,-0.106 -0.102,-0.243 -0.231,-0.372c-0.221,-0.22 -0.674,-0.256 -0.817,-0.245l-0.479,0.022l0.097,-0.469c0,-0.002 0.07,-0.404 -0.14,-0.614c-0.226,-0.225 -0.546,-0.199 -0.549,-0.2l-0.551,0.063l0.15,-0.533Zm3.079,1.789l7.327,-7.326l-0.749,-0.748l-7.397,7.397c0.194,0.069 0.392,0.175 0.555,0.338c0.112,0.112 0.198,0.227 0.264,0.339Zm-1.33,-1.218l7.382,-7.382l-0.667,-0.668l-7.359,7.359c0.129,0.063 0.256,0.148 0.371,0.263c0.131,0.131 0.217,0.279 0.273,0.428Zm-1.749,-0.571c0,0.001 0,0.001 0,0.001l0,-0.001l0,0Zm0.573,-0.64l7.365,-7.365l-0.764,-0.764l-7.416,7.415c0.174,0.061 0.354,0.166 0.524,0.336c0.129,0.129 0.223,0.256 0.291,0.378Zm6.802,-9.002c-0.029,0 -0.059,0.011 -0.081,0.033c-0.041,0.042 -0.045,0.076 -0.045,0.093c0,0.018 0.004,0.052 0.032,0.081l3.839,3.838c0.044,0.044 0.118,0.044 0.162,0c0.056,-0.056 0.056,-0.13 0.012,-0.174l-3.838,-3.838c-0.022,-0.022 -0.051,-0.033 -0.081,-0.033Zm0.578,-0.578c-0.018,0 -0.052,0.004 -0.08,0.032c-0.057,0.058 -0.057,0.132 -0.014,0.175l3.839,3.839c0.044,0.043 0.117,0.043 0.161,0c0.057,-0.057 0.057,-0.13 0.013,-0.174l-3.838,-3.839c-0.029,-0.029 -0.063,-0.033 -0.081,-0.033Zm0.599,-0.577c-0.007,-0.001 -0.014,-0.002 -0.021,-0.002c-0.03,0 -0.059,0.011 -0.081,0.033c-0.057,0.057 -0.057,0.131 -0.013,0.175l3.839,3.838c0.044,0.044 0.117,0.044 0.161,0c0.042,-0.042 0.046,-0.076 0.046,-0.094c0,-0.005 0,-0.012 -0.002,-0.02c-0.016,-0.014 -0.032,-0.028 -0.047,-0.043l-3.839,-3.839c-0.015,-0.016 -0.029,-0.031 -0.043,-0.048Zm4.329,3.531c0.036,0.006 0.074,-0.004 0.101,-0.031c0.057,-0.057 0.057,-0.13 0.013,-0.174l-3.838,-3.839c-0.022,-0.022 -0.052,-0.033 -0.081,-0.033c-0.029,0 -0.059,0.011 -0.081,0.033c-0.036,0.035 -0.049,0.077 -0.043,0.114c0.016,0.014 0.032,0.028 0.047,0.043l3.838,3.838c0.016,0.016 0.031,0.032 0.044,0.049Zm-0.123,-1.217l1.621,-1.622c0.244,-0.244 0.247,-0.44 0.009,-0.678l-1.858,-1.857c-0.084,-0.085 -0.216,-0.187 -0.366,-0.194c-0.116,0.002 -0.266,0.063 -0.408,0.204l-1.573,1.573l2.575,2.574Z" style="fill:#fdfbf5;fill-rule:nonzero;"/></svg>