<?xml version="1.0" encoding="UTF-8" standalone="no"?>
<!DOCTYPE svg PUBLIC "-//W3C//DTD SVG 1.1//EN" "http://www.w3.org/Graphics/SVG/1.1/DTD/svg11.dtd">
<svg width="100%" height="100%" viewBox="0 0 20 20" version="1.1" xmlns="http://www.w3.org/2000/svg" xmlns:xlink="http://www.w3.org/1999/xlink" xml:space="preserve" xmlns:serif="http://www.serif.com/" style="fill-rule:evenodd;clip-rule:evenodd;stroke-linejoin:round;stroke-miterlimit:1.41421;">
    <g transform="matrix(0.339957,0,0,0.339957,8.40343,3.6226)">
        <g transform="matrix(2.37398,0,0,2.37398,8.11924,40.3259)">
            <path d="M0,-21.218C-5.546,-21.218 -10.104,-16.938 -10.563,-11.508L-13.746,-11.508L-9.796,-6.41L-5.92,-11.508L-9.563,-11.508C-9.108,-16.386 -4.995,-20.218 0,-20.218C5.299,-20.218 9.609,-15.907 9.609,-10.609C9.609,-5.311 5.299,-1 0,-1C-1.828,-1 -3.606,-1.516 -5.144,-2.49L-5.68,-1.647C-3.981,-0.569 -2.018,0 0,0C5.85,0 10.609,-4.759 10.609,-10.609C10.609,-16.459 5.85,-21.218 0,-21.218" style="fill:rgb(253,251,245);fill-rule:nonzero;"/>
        </g>
        <g transform="matrix(2.37398,0,0,2.37398,5.69422,24.8061)">
            <path d="M0,-8.952L0,-3.238L5.051,0L5.623,-0.89L1.058,-3.816L1.058,-8.952L0,-8.952Z" style="fill:rgb(253,251,245);fill-rule:nonzero;"/>
        </g>
    </g>
</svg>
