<?xml version="1.0" encoding="UTF-8" standalone="no"?><!DOCTYPE svg PUBLIC "-//W3C//DTD SVG 1.1//EN" "http://www.w3.org/Graphics/SVG/1.1/DTD/svg11.dtd"><svg width="100%" height="100%" viewBox="0 0 17 21" version="1.1" xmlns="http://www.w3.org/2000/svg" xmlns:xlink="http://www.w3.org/1999/xlink" xml:space="preserve" xmlns:serif="http://www.serif.com/" style="fill-rule:evenodd;clip-rule:evenodd;stroke-linejoin:round;stroke-miterlimit:1.41421;"><path d="M14.415,0c1.043,0 1.892,0.88 1.892,1.961l0,16.306c0,1.082 -0.849,1.961 -1.892,1.961l-12.524,0c-1.043,0 -1.891,-0.879 -1.891,-1.961l0,-14.818l3.037,-3.449l11.378,0Zm0,19.513c0.649,0 1.176,-0.559 1.176,-1.246l0,-16.306c0,-0.687 -0.527,-1.245 -1.176,-1.245l-11.054,0l-0.016,0.017l0,2.888l-2.542,0l-0.087,0.099l0,14.547c0,0.687 0.527,1.246 1.175,1.246l12.524,0Zm-7.577,-7.416l-1.882,-2.031l-0.514,0.476l2.413,2.603l5.525,-6.361l-0.529,-0.459l-5.013,5.772Z" style="fill:#fffcf5;fill-rule:nonzero;"/></svg>