<?xml version="1.0" encoding="UTF-8" standalone="no"?><!DOCTYPE svg PUBLIC "-//W3C//DTD SVG 1.1//EN" "http://www.w3.org/Graphics/SVG/1.1/DTD/svg11.dtd"><svg width="100%" height="100%" viewBox="0 0 23 17" version="1.1" xmlns="http://www.w3.org/2000/svg" xmlns:xlink="http://www.w3.org/1999/xlink" xml:space="preserve" xmlns:serif="http://www.serif.com/" style="fill-rule:evenodd;clip-rule:evenodd;stroke-linejoin:round;stroke-miterlimit:1.41421;"><path d="M20.906,15.823l-19.12,0c-0.599,0 -1.086,-0.487 -1.086,-1.086l0,-6.068l8.142,0l0,2.208c0,0.28 0.108,0.933 1.113,0.933l2.917,0c0.669,0 1.068,-0.497 1.068,-0.978l0,-2.163l8.052,0l0,6.068c0,0.599 -0.487,1.086 -1.086,1.086m-11.364,-7.154l3.698,0l0,2.163c0,0.135 -0.129,0.278 -0.368,0.278l-2.917,0c-0.413,0 -0.413,-0.124 -0.413,-0.233l0,-2.208Zm-7.756,-6.059l19.12,0c0.599,0 1.086,0.487 1.086,1.086l0,4.273l-21.292,0l0,-4.273c0,-0.599 0.487,-1.086 1.086,-1.086m6.015,-1.886c0.468,0 1.456,-0.005 2.556,-0.009c1.641,-0.008 3.534,-0.015 4.331,-0.013c0.556,0.002 0.987,0.677 1.224,1.207l-9.109,0c0.291,-0.609 0.688,-1.185 0.998,-1.185m13.105,1.185l-4.241,0c-0.211,-0.561 -0.831,-1.902 -1.974,-1.907c-0.798,-0.006 -2.694,0.005 -4.337,0.012c-1.099,0.006 -2.086,0.01 -2.553,0.01c-0.866,0 -1.481,1.194 -1.766,1.885l-4.249,0c-0.984,0 -1.786,0.802 -1.786,1.787l0,11.041c0,0.984 0.802,1.786 1.786,1.786l19.12,0c0.985,0 1.786,-0.802 1.786,-1.786l0,-11.041c0,-0.985 -0.801,-1.787 -1.786,-1.787" style="fill:#fffcf5;fill-rule:nonzero;"/></svg>