<?xml version="1.0" encoding="UTF-8" standalone="no"?>
<!DOCTYPE svg PUBLIC "-//W3C//DTD SVG 1.1//EN" "http://www.w3.org/Graphics/SVG/1.1/DTD/svg11.dtd">
<svg width="100%" height="100%" viewBox="0 0 41 28" version="1.1" xmlns="http://www.w3.org/2000/svg" xmlns:xlink="http://www.w3.org/1999/xlink" xml:space="preserve" xmlns:serif="http://www.serif.com/" style="fill-rule:evenodd;clip-rule:evenodd;stroke-linejoin:round;stroke-miterlimit:1.41421;">
    <g transform="matrix(1,0,0,1,-0.8605,-1.26996)">
        <g transform="matrix(1,0,0,1,-1245.96,-799.856)">
            <path d="M1281.76,802.648L1281.48,802.525C1281.31,802.448 1277.15,800.628 1273.36,801.26C1270.24,801.78 1267.82,803.911 1266.96,804.755C1266.11,803.911 1263.69,801.78 1260.57,801.26C1256.77,800.628 1252.62,802.448 1252.44,802.525L1252.17,802.648L1246.82,828.587L1247.91,828.028C1247.97,827.998 1253.79,825.038 1257.72,825.038C1261.27,825.038 1265.59,826.944 1266.46,827.344L1266.96,827.586L1267.47,827.344C1268.34,826.943 1272.66,825.038 1276.2,825.038C1280.13,825.038 1285.96,827.998 1286.01,828.028L1287.1,828.586L1281.76,802.648ZM1276.2,823.865C1272.96,823.865 1269.26,825.285 1267.63,825.987L1267.63,805.742C1268.23,805.129 1270.59,802.909 1273.55,802.416C1276.47,801.929 1279.77,803.106 1280.73,803.485L1285.47,826.466C1283.53,825.576 1279.39,823.865 1276.2,823.865ZM1266.3,825.987C1264.66,825.285 1260.96,823.865 1257.72,823.865C1254.54,823.865 1250.39,825.576 1248.46,826.466L1253.19,803.485C1254.15,803.105 1257.45,801.924 1260.37,802.416C1263.32,802.908 1265.69,805.13 1266.3,805.742L1266.3,825.987ZM1257.6,815.2C1260.31,815.246 1262.86,816.634 1264.81,818.586L1264.35,819.045C1264.26,818.951 1264.16,818.859 1264.06,818.768C1261.05,815.981 1256.71,815.217 1252.27,816.925L1251.94,816.356C1253.73,815.652 1255.66,815.194 1257.6,815.2ZM1276.43,815.2C1278.24,815.241 1280.02,815.668 1281.72,816.32L1281.57,816.961C1278.54,815.772 1275.02,815.388 1272.22,816.922C1271.21,817.474 1270.28,818.181 1269.46,818.987L1268.94,818.586C1270.88,816.649 1273.43,815.246 1276.15,815.199C1276.29,815.199 1276.29,815.199 1276.43,815.2ZM1258.09,811.46C1260.6,811.503 1262.94,812.772 1264.75,814.558C1264.75,814.558 1264.35,815.073 1264.35,815.073C1262.36,813.084 1259.56,811.857 1256.78,812.185C1255.54,812.331 1254.32,812.66 1253.15,813.108L1252.83,812.536C1254.43,811.908 1256.12,811.5 1257.84,811.461C1257.96,811.46 1257.96,811.46 1258.09,811.46ZM1275.92,811.461C1277.6,811.5 1279.26,811.897 1280.84,812.502L1280.69,813.141C1277.81,812.013 1274.45,811.698 1271.82,813.21C1270.96,813.706 1270.17,814.321 1269.46,815.019L1268.94,814.614C1270.79,812.766 1273.25,811.434 1275.92,811.461ZM1258.56,808.013C1260.89,808.051 1263.07,809.234 1264.76,810.895C1264.76,810.895 1264.35,811.406 1264.35,811.406C1262.56,809.605 1260.06,808.465 1257.56,808.708C1256.4,808.821 1255.26,809.118 1254.16,809.517L1253.9,809.619L1253.66,809.013C1255.22,808.41 1256.88,808.007 1258.56,808.013ZM1275.43,808.014C1277,808.05 1278.55,808.419 1280.01,808.982C1280.01,808.982 1279.85,809.618 1279.85,809.618C1278.02,808.899 1276.02,808.435 1274.11,808.756C1272.32,809.055 1270.73,810.096 1269.45,811.356L1268.94,810.948C1270.68,809.208 1272.98,807.991 1275.43,808.014Z" style="fill:white;fill-rule:nonzero;"/>
        </g>
    </g>
</svg>
