<?xml version="1.0" encoding="UTF-8" standalone="no"?>
<!DOCTYPE svg PUBLIC "-//W3C//DTD SVG 1.1//EN" "http://www.w3.org/Graphics/SVG/1.1/DTD/svg11.dtd">
<svg width="100%" height="100%" viewBox="0 0 20 20" version="1.1" xmlns="http://www.w3.org/2000/svg" xmlns:xlink="http://www.w3.org/1999/xlink" xml:space="preserve" xmlns:serif="http://www.serif.com/" style="fill-rule:evenodd;clip-rule:evenodd;stroke-linejoin:round;stroke-miterlimit:1.41421;">
    <path d="M13.731,1.993L15.304,0.42C15.67,0.053 16.042,-0.011 16.269,0.001C16.575,0.015 16.87,0.157 17.123,0.411L18.981,2.268C19.509,2.797 19.505,3.457 18.972,3.991L17.35,5.613L17.452,5.715C17.71,5.973 17.71,6.392 17.452,6.65C17.348,6.754 17.222,6.818 17.091,6.843C17.068,6.976 17.004,7.098 16.907,7.195C16.795,7.307 16.658,7.373 16.517,7.393C16.498,7.532 16.435,7.666 16.329,7.773C16.217,7.884 16.08,7.95 15.939,7.971C15.92,8.11 15.858,8.244 15.752,8.351C15.614,8.488 15.439,8.556 15.266,8.556C15.191,8.556 15.116,8.543 15.045,8.518L6.918,16.601L0,19.296L1.117,16.46L1.109,16.443C1.115,16.44 1.121,16.438 1.126,16.436L2.794,12.201L10.788,4.207C10.777,4.159 10.771,4.108 10.771,4.057C10.771,3.88 10.84,3.714 10.965,3.589C11.076,3.477 11.214,3.411 11.355,3.391C11.373,3.252 11.436,3.118 11.543,3.012C11.655,2.899 11.792,2.835 11.932,2.815C11.951,2.675 12.013,2.54 12.12,2.433C12.224,2.328 12.351,2.264 12.482,2.239C12.505,2.111 12.566,1.988 12.665,1.889C12.937,1.617 13.356,1.619 13.613,1.876L13.731,1.993ZM1.308,17.987L2.147,17.66C2.153,17.556 2.126,17.413 1.987,17.275C1.875,17.162 1.754,17.118 1.651,17.105L1.308,17.987ZM4.07,13.573C4.07,13.56 4.092,13.348 3.826,13.082C3.567,12.824 3.312,12.901 3.284,12.91L3.283,12.908L1.924,16.402C2.123,16.456 2.328,16.562 2.514,16.749C2.717,16.952 2.822,17.172 2.866,17.38L6.575,15.936L6.59,15.921C6.555,15.815 6.488,15.678 6.359,15.549C6.138,15.329 5.685,15.293 5.542,15.304L5.063,15.326L5.16,14.857C5.16,14.855 5.23,14.453 5.02,14.243C4.794,14.018 4.474,14.044 4.471,14.043L3.92,14.106L4.07,13.573ZM7.149,15.362L14.476,8.036L13.727,7.288L6.33,14.685C6.524,14.754 6.722,14.86 6.885,15.023C6.997,15.135 7.083,15.25 7.149,15.362ZM5.819,14.144L13.201,6.762L12.534,6.094L5.175,13.453C5.304,13.516 5.431,13.601 5.546,13.716C5.677,13.847 5.763,13.995 5.819,14.144ZM4.07,13.573L4.07,13.574L4.07,13.573ZM4.643,12.933L12.008,5.568L11.244,4.804L3.828,12.219C4.002,12.28 4.182,12.385 4.352,12.555C4.481,12.684 4.575,12.811 4.643,12.933ZM11.445,3.931C11.416,3.931 11.386,3.942 11.364,3.964C11.323,4.006 11.319,4.04 11.319,4.057C11.319,4.075 11.323,4.109 11.351,4.138L15.19,7.976C15.234,8.02 15.308,8.02 15.352,7.976C15.408,7.92 15.408,7.846 15.364,7.802L11.526,3.964C11.504,3.942 11.475,3.931 11.445,3.931ZM12.023,3.353C12.005,3.353 11.971,3.357 11.943,3.385C11.886,3.443 11.886,3.517 11.929,3.56L15.768,7.399C15.812,7.442 15.885,7.442 15.929,7.399C15.986,7.342 15.986,7.269 15.942,7.225L12.104,3.386C12.075,3.357 12.041,3.353 12.023,3.353ZM12.622,2.776C12.615,2.775 12.608,2.774 12.601,2.774C12.571,2.774 12.542,2.785 12.52,2.807C12.463,2.864 12.463,2.938 12.507,2.982L16.346,6.82C16.39,6.864 16.463,6.864 16.507,6.82C16.549,6.778 16.553,6.744 16.553,6.726C16.553,6.721 16.553,6.714 16.551,6.706C16.535,6.692 16.519,6.678 16.504,6.663L12.665,2.824C12.65,2.808 12.636,2.793 12.622,2.776ZM16.951,6.307C16.987,6.313 17.025,6.303 17.052,6.276C17.109,6.219 17.109,6.146 17.065,6.102L13.227,2.263C13.205,2.241 13.175,2.23 13.146,2.23C13.117,2.23 13.087,2.241 13.065,2.263C13.029,2.298 13.016,2.34 13.022,2.377C13.038,2.391 13.054,2.405 13.069,2.42L16.907,6.258C16.923,6.274 16.938,6.29 16.951,6.307ZM16.828,5.09L18.449,3.468C18.693,3.224 18.696,3.028 18.458,2.79L16.6,0.933C16.516,0.848 16.384,0.746 16.234,0.739C16.118,0.741 15.968,0.802 15.826,0.943L14.253,2.516L16.828,5.09Z" style="fill:rgb(130,130,128);fill-rule:nonzero;"/>
</svg>
