<?xml version="1.0" encoding="UTF-8" standalone="no"?>
<!DOCTYPE svg PUBLIC "-//W3C//DTD SVG 1.1//EN" "http://www.w3.org/Graphics/SVG/1.1/DTD/svg11.dtd">
<svg width="100%" height="100%" viewBox="0 0 67 75" version="1.1" xmlns="http://www.w3.org/2000/svg" xmlns:xlink="http://www.w3.org/1999/xlink" xml:space="preserve" xmlns:serif="http://www.serif.com/" style="fill-rule:evenodd;clip-rule:evenodd;stroke-linejoin:round;stroke-miterlimit:1.41421;">
    <g transform="matrix(1,0,0,1,0.0001,-0.0002)">
        <g transform="matrix(1,0,0,1,27.6699,26.7242)">
            <path d="M0,21.021L-7.881,12.014L-6.816,11.083L0.002,18.875L20.203,-4.141L21.269,-3.208L0,21.021ZM38.866,-23.605L38.785,-24L38.555,-24.33L38.213,-24.542L37.814,-24.603L37.424,-24.501L37.105,-24.254C36.346,-23.366 35.428,-22.615 34.441,-21.986C29.666,-18.943 23.592,-18.294 17.978,-19.239C13.689,-19.96 9.265,-21.692 7.053,-25.218C6.761,-25.685 6.543,-26.317 6.029,-26.652C5.904,-26.675 5.779,-26.7 5.654,-26.724C5.282,-26.652 5.277,-26.65 4.959,-26.444L4.74,-26.13C4.205,-24.925 3.33,-23.895 2.327,-23.045C-1.224,-20.041 -6.242,-18.888 -11.035,-18.874C-16.063,-18.858 -21.307,-20.036 -24.913,-23.339C-25.331,-23.721 -25.703,-24.179 -26.116,-24.5L-26.506,-24.603L-26.904,-24.542L-27.247,-24.33L-27.478,-24L-27.559,-23.605C-27.563,-14.252 -27.667,-4.919 -27.67,4.369C-27.666,9.207 -26.747,14.022 -25.01,18.526C-19.758,32.14 -7.843,41.979 5.255,47.662L5.653,47.745L6.165,47.613C14.582,43.947 22.43,38.62 28.439,31.573C35.045,23.828 38.958,14.103 38.977,4.37C38.973,-4.957 38.869,-14.264 38.866,-23.605" style="fill:white;fill-rule:nonzero;"/>
        </g>
    </g>
</svg>
