<?xml version="1.0" encoding="UTF-8" standalone="no"?>
<!DOCTYPE svg PUBLIC "-//W3C//DTD SVG 1.1//EN" "http://www.w3.org/Graphics/SVG/1.1/DTD/svg11.dtd">
<svg width="100%" height="100%" viewBox="0 0 24 21" version="1.1" xmlns="http://www.w3.org/2000/svg" xmlns:xlink="http://www.w3.org/1999/xlink" xml:space="preserve" xmlns:serif="http://www.serif.com/" style="fill-rule:evenodd;clip-rule:evenodd;stroke-linejoin:round;stroke-miterlimit:2;">
    <g transform="matrix(0.953567,0,0,0.953567,0.557145,0.551567)">
        <path d="M17.005,2.687L13.498,2.687L13.498,1.16C13.498,0.483 12.942,-0.072 12.261,-0.072L12.002,-0.072C11.321,-0.072 10.765,0.483 10.765,1.16L10.765,2.687L7.258,2.687L7.258,1.16C7.258,0.483 6.702,-0.072 6.021,-0.072L5.762,-0.072C5.081,-0.072 4.525,0.483 4.525,1.16L4.525,2.687L3.303,2.687C2.163,2.687 1.232,3.616 1.232,4.751L1.232,18.874C1.232,20.009 2.163,20.938 3.303,20.938C3.303,20.938 20.697,20.938 20.697,20.938C21.837,20.938 22.768,20.009 22.768,18.874L22.768,4.751C22.768,3.616 21.837,2.687 20.697,2.687L19.738,2.687L19.738,1.16C19.738,0.483 19.182,-0.072 18.501,-0.072L18.242,-0.072C17.561,-0.072 17.005,0.483 17.005,1.16L17.005,2.687ZM21.768,7.438L21.768,18.874C21.768,19.46 21.286,19.938 20.697,19.938L3.303,19.938C2.714,19.938 2.232,19.46 2.232,18.874L2.232,7.438L21.768,7.438ZM6.476,17.998C6.476,18.2 6.311,18.365 6.108,18.365L4.657,18.365C4.454,18.365 4.288,18.2 4.288,17.998L4.288,16.705C4.288,16.503 4.454,16.338 4.657,16.338L6.108,16.338C6.311,16.338 6.476,16.503 6.476,16.705L6.476,17.998ZM15.417,17.998C15.417,18.2 15.251,18.365 15.049,18.365L13.597,18.365C13.394,18.365 13.229,18.2 13.229,17.998L13.229,16.705C13.229,16.503 13.394,16.338 13.597,16.338L15.049,16.338C15.251,16.338 15.417,16.503 15.417,16.705L15.417,17.998ZM10.947,17.998C10.947,18.2 10.781,18.365 10.578,18.365L9.127,18.365C8.924,18.365 8.758,18.2 8.758,17.998L8.758,16.705C8.758,16.503 8.924,16.338 9.127,16.338L10.578,16.338C10.781,16.338 10.947,16.503 10.947,16.705L10.947,17.998ZM19.887,17.998C19.887,18.2 19.721,18.365 19.519,18.365L18.067,18.365C17.865,18.365 17.699,18.2 17.699,17.998L17.699,16.705C17.699,16.503 17.865,16.338 18.067,16.338L19.519,16.338C19.721,16.338 19.887,16.503 19.887,16.705L19.887,17.998ZM19.887,14.376C19.887,14.578 19.721,14.743 19.519,14.743L18.067,14.743C17.864,14.743 17.699,14.578 17.699,14.376L17.699,13.083C17.699,12.881 17.864,12.716 18.067,12.716L19.519,12.716C19.721,12.716 19.887,12.881 19.887,13.083L19.887,14.376ZM6.476,14.376C6.476,14.578 6.311,14.743 6.108,14.743L4.657,14.743C4.454,14.743 4.288,14.578 4.288,14.376L4.288,13.083C4.288,12.881 4.454,12.716 4.657,12.716L6.108,12.716C6.311,12.716 6.476,12.881 6.476,13.083L6.476,14.376ZM15.417,14.376C15.417,14.578 15.251,14.743 15.048,14.743L13.597,14.743C13.394,14.743 13.228,14.578 13.228,14.376L13.228,13.083C13.228,12.881 13.394,12.716 13.597,12.716L15.048,12.716C15.251,12.716 15.417,12.881 15.417,13.083L15.417,14.376ZM10.947,14.376C10.947,14.578 10.781,14.743 10.578,14.743L9.127,14.743C8.924,14.743 8.758,14.578 8.758,14.376L8.758,13.083C8.758,12.881 8.924,12.716 9.127,12.716L10.578,12.716C10.781,12.716 10.947,12.881 10.947,13.083L10.947,14.376ZM19.887,10.754C19.887,10.956 19.721,11.121 19.519,11.121L18.067,11.121C17.864,11.121 17.699,10.956 17.699,10.754L17.699,9.461C17.699,9.259 17.864,9.094 18.067,9.094L19.519,9.094C19.721,9.094 19.887,9.259 19.887,9.461L19.887,10.754ZM6.476,10.754C6.476,10.956 6.311,11.121 6.108,11.121L4.657,11.121C4.454,11.121 4.288,10.956 4.288,10.754L4.288,9.461C4.288,9.259 4.454,9.094 4.657,9.094L6.108,9.094C6.311,9.094 6.476,9.259 6.476,9.461L6.476,10.754ZM15.417,10.754C15.417,10.956 15.251,11.121 15.048,11.121L13.597,11.121C13.394,11.121 13.228,10.956 13.228,10.754L13.228,9.461C13.228,9.259 13.394,9.094 13.597,9.094L15.048,9.094C15.251,9.094 15.417,9.259 15.417,9.461L15.417,10.754ZM10.947,10.754C10.947,10.956 10.781,11.121 10.578,11.121L9.127,11.121C8.924,11.121 8.758,10.956 8.758,10.754L8.758,9.461C8.758,9.259 8.924,9.094 9.127,9.094L10.578,9.094C10.781,9.094 10.947,9.259 10.947,9.461L10.947,10.754ZM21.768,6.438L2.232,6.438L2.232,4.751C2.232,4.165 2.714,3.687 3.303,3.687L20.697,3.687C21.286,3.687 21.768,4.165 21.768,4.751L21.768,6.438ZM6.258,2.687L6.258,1.16C6.258,1.032 6.15,0.928 6.021,0.928L5.762,0.928C5.632,0.928 5.525,1.032 5.525,1.16L5.525,2.687L6.258,2.687ZM12.498,2.687L12.498,1.16C12.498,1.032 12.39,0.928 12.261,0.928L12.002,0.928C11.872,0.928 11.765,1.032 11.765,1.16L11.765,2.687L12.498,2.687ZM18.738,2.687L18.738,1.16C18.738,1.032 18.63,0.928 18.501,0.928L18.242,0.928C18.112,0.928 18.005,1.032 18.005,1.16L18.005,2.687L18.738,2.687Z" style="fill:rgb(255,252,245);"/>
    </g>
</svg>
