<?xml version="1.0" encoding="UTF-8" standalone="no"?><!DOCTYPE svg PUBLIC "-//W3C//DTD SVG 1.1//EN" "http://www.w3.org/Graphics/SVG/1.1/DTD/svg11.dtd"><svg width="100%" height="100%" viewBox="0 0 17 20" version="1.1" xmlns="http://www.w3.org/2000/svg" xmlns:xlink="http://www.w3.org/1999/xlink" xml:space="preserve" xmlns:serif="http://www.serif.com/" style="fill-rule:evenodd;clip-rule:evenodd;stroke-linejoin:round;stroke-miterlimit:1.41421;"><path d="M14.411,0c1.04,0 1.887,0.86 1.887,1.916l0,15.888c0,1.056 -0.847,1.916 -1.887,1.916l-12.524,0c-1.04,0 -1.887,-0.86 -1.887,-1.916l0,-14.442l3.038,-3.362l11.373,0Zm0,19.013c0.651,0 1.18,-0.542 1.18,-1.209l0,-15.888c0,-0.667 -0.529,-1.209 -1.18,-1.209l-10.957,0l0,2.927l-2.747,0l0,14.17c0,0.667 0.53,1.209 1.18,1.209l12.524,0Zm-1.947,-6.844l0,0.7l-8.652,0l0,-0.7l8.652,0Zm0,-2.781l0,0.7l-8.652,0l0,-0.7l8.652,0Zm0,-2.824l0,0.7l-8.656,0l0,-0.7l8.656,0Z" style="fill:#fdfbf5;fill-rule:nonzero;"/></svg>