<?xml version="1.0" encoding="UTF-8" standalone="no"?>
<!DOCTYPE svg PUBLIC "-//W3C//DTD SVG 1.1//EN" "http://www.w3.org/Graphics/SVG/1.1/DTD/svg11.dtd">
<svg width="100%" height="100%" viewBox="0 0 30 30" version="1.1" xmlns="http://www.w3.org/2000/svg" xmlns:xlink="http://www.w3.org/1999/xlink" xml:space="preserve" xmlns:serif="http://www.serif.com/" style="fill-rule:evenodd;clip-rule:evenodd;stroke-linejoin:round;stroke-miterlimit:1.41421;">
    <g transform="matrix(1,0,0,1,-6.37538,-0.346366)">
        <g transform="matrix(0.0403505,0,0,0.0403505,6.79142,0.764558)">
            <path d="M342.653,182.993C333.823,182.068 325.099,179.927 316.784,176.498C285.878,163.751 262.47,134.252 257.643,100.575C253.296,70.247 264.236,38.067 286.563,16.656C304.174,-0.234 328.331,-10.088 352.81,-10.36C353.228,-10.363 353.645,-10.364 354.062,-10.364C389.494,-10.195 423.93,10.531 440.339,42.785C458.801,79.072 451.646,126.973 421.354,156.37C406.144,171.131 385.921,180.281 364.851,182.809L364.851,259.651C381.663,261.65 397.919,268.067 411.538,278.106L543.838,147.994C532.704,134.743 524.924,118.524 522.352,100.575C518.005,70.246 529.007,38.136 551.062,16.858C568.717,-0.175 593.04,-10.088 617.519,-10.36C617.937,-10.363 618.354,-10.364 618.771,-10.364C643.047,-10.248 667.264,-0.664 685.012,16.054C714.486,43.82 724.101,90.595 706.217,128.267C690.645,161.069 655.619,183.678 618.771,183.794C597.57,183.861 576.784,176.264 559.899,163.333L427.727,293.318C440.646,308.802 448.439,328.407 450.134,348.622L521.714,348.622C522.675,336.142 525.996,323.847 531.603,312.657C547.523,280.886 581.448,259.388 617.519,258.986C617.936,258.983 618.354,258.981 618.771,258.982C643.256,259.097 667.487,268.792 685.224,285.6C714.509,313.354 724.101,359.94 706.217,397.612C690.659,430.385 655.737,453.021 618.772,453.14C577.781,453.271 538.08,424.997 525.649,384.631C524.257,380.112 523.212,375.492 522.508,370.82L449.508,370.82C448.198,380 445.554,389.041 441.485,397.612C438.059,404.831 433.69,411.561 428.564,417.668L556.764,543.77C573.637,529.955 595.1,521.621 617.519,521.372C617.937,521.368 618.354,521.367 618.772,521.368C643.543,521.487 668.043,531.408 685.854,548.588C714.736,576.449 723.954,622.635 706.217,659.998C690.659,692.772 655.739,715.409 618.771,715.525C577.805,715.654 538.009,687.6 525.561,646.731C518.355,623.071 520.628,596.611 531.868,574.517C534.537,569.271 537.697,564.306 541.278,559.673L412.466,432.97C398.701,443.411 382.207,450.362 364.851,452.467L364.851,522.054C396.4,525.914 425.696,545.734 440.339,574.517C458.841,610.883 451.564,658.785 421.354,688.102C394.599,714.066 352.177,722.822 316.785,708.229C285.781,695.446 262.463,665.936 257.643,632.306C251.77,591.334 274.594,547.831 313.531,530.076C322.732,525.88 332.606,523.174 342.653,522.015L342.653,452.456C323.547,450.11 305.27,441.83 290.532,429.22L161.275,556.361C184.345,584.504 190.694,625.856 174.486,659.998C158.909,692.811 124.007,715.409 87.04,715.525C46.078,715.654 6.277,687.601 -6.17,646.731C-13.32,623.256 -11.15,597.037 -0.128,575.042C15.774,543.307 49.717,521.773 85.788,521.372C86.206,521.368 86.623,521.367 87.04,521.368C107.894,521.468 128.584,528.508 145.229,541.008L275.368,412.998C269.028,404.463 264.043,394.825 260.852,384.345C259.501,379.912 258.502,375.389 257.843,370.82L182.522,370.82C181.206,379.995 178.558,389.034 174.486,397.612C158.964,430.308 123.99,453.021 87.04,453.14C45.997,453.271 6.277,425.216 -6.17,384.345C-16.503,350.417 -6.613,311.084 19.54,286.002C37.14,269.123 61.022,259.262 85.788,258.986C86.205,258.983 86.622,258.981 87.04,258.982C111.506,259.097 135.706,268.745 153.492,285.6C170.757,301.962 181.176,324.862 183.16,348.622L257.255,348.622C259.057,328.145 267.233,308.102 280.835,292.227L148.027,161.616C130.995,175.42 109.386,183.724 87.04,183.794C46.059,183.923 6.278,155.87 -6.17,115C-18.036,76.039 -2.743,30.164 32.206,6.395C47.93,-4.299 66.836,-10.15 85.788,-10.36C86.205,-10.363 86.623,-10.364 87.04,-10.364C111.436,-10.248 135.573,-0.627 153.28,16.054C182.771,43.835 192.37,90.595 174.486,128.267C171.522,134.509 167.856,140.384 163.608,145.805L297.182,277.17C297.933,276.628 298.694,276.097 299.464,275.577C312.312,266.894 327.236,261.428 342.653,259.633L342.653,182.993ZM353.507,543.565C326.375,543.697 299.964,559.731 287.36,583.777C276.622,604.263 276.16,629.823 286.141,650.683C300.189,680.042 334.539,698.286 367.698,692.031C397.924,686.329 423.378,660.583 427.882,629.157C431.289,605.39 422.469,580.224 404.918,563.79C391.339,551.074 372.935,543.714 354.235,543.567C353.992,543.565 353.749,543.565 353.507,543.565ZM618.216,543.565C591.107,543.697 564.672,559.731 552.069,583.777C541.331,604.264 540.869,629.824 550.85,650.683C564.884,680.011 599.248,698.286 632.407,692.031C655.31,687.71 675.761,672.049 685.969,650.887C696.034,630.021 695.643,604.375 684.847,583.777C672.291,559.819 646.246,543.781 618.944,543.567C618.701,543.565 618.458,543.565 618.216,543.565ZM86.484,543.565C59.375,543.697 32.942,559.73 20.337,583.777C9.599,604.264 9.138,629.824 19.119,650.683C33.151,680.011 67.517,698.286 100.676,692.031C123.525,687.72 143.954,672.05 154.138,651.092C164.266,630.25 163.922,604.7 153.325,584.179C140.863,560.044 114.515,543.781 87.212,543.567C86.97,543.565 86.727,543.565 86.484,543.565ZM86.484,281.18C67.637,281.269 48.92,288.74 35.231,301.712C17.877,318.158 9.213,343.183 12.594,366.771C16.953,397.185 41.756,423.795 72.777,429.645C96.079,434.039 121.249,426.69 138.548,410.099C156.533,392.851 164.967,366.318 160.279,341.885C153.84,308.321 122.21,281.459 87.212,281.181C86.97,281.18 86.727,281.18 86.484,281.18ZM618.215,281.18C599.299,281.269 580.51,288.797 566.799,301.867C549.56,318.301 540.954,343.248 544.325,366.771C548.685,397.186 573.486,423.795 604.509,429.645C627.832,434.043 653.018,426.652 670.28,410.099C688.32,392.799 696.746,366.158 691.966,341.655C685.433,308.162 653.941,281.459 618.944,281.181C618.701,281.18 618.458,281.18 618.215,281.18ZM353.494,281.18C326.477,281.309 300.114,297.226 287.465,321.19C276.639,341.698 276.13,367.374 286.14,388.298C300.18,417.647 334.528,435.897 367.684,429.645C390.615,425.321 411.083,409.56 421.236,388.503C431.27,367.692 430.909,342.138 420.22,321.592C407.727,297.578 381.518,281.397 354.222,281.181C353.98,281.18 353.737,281.18 353.494,281.18ZM86.484,11.834C59.22,11.964 32.794,28.101 20.233,52.246C9.585,72.712 9.168,98.155 19.118,118.952C33.157,148.292 67.514,166.551 100.677,160.299C123.541,155.988 143.953,140.319 154.138,119.361C164.266,98.519 163.922,72.968 153.325,52.447C140.861,28.31 114.513,12.052 87.212,11.835C86.97,11.834 86.727,11.834 86.484,11.834ZM618.215,11.834C591.179,11.963 564.801,27.933 552.174,51.845C541.347,72.352 540.838,98.03 550.85,118.951C564.884,148.28 599.245,166.552 632.408,160.299C655.326,155.978 675.761,140.318 685.969,119.155C695.904,98.557 695.667,73.303 685.263,52.851C672.901,28.548 646.801,12.056 618.944,11.835C618.701,11.834 618.458,11.834 618.215,11.834ZM353.507,11.834C326.279,11.964 299.945,28.035 287.36,52.045C276.622,72.533 276.16,98.092 286.141,118.952C300.165,148.262 334.536,166.552 367.699,160.299C390.564,155.988 410.976,140.319 421.16,119.361C431.214,98.67 430.96,73.303 420.555,52.851C408.139,28.448 381.535,12.052 354.235,11.835C353.992,11.834 353.749,11.834 353.507,11.834Z" style="fill:white;fill-rule:nonzero;"/>
        </g>
    </g>
</svg>
