<?xml version="1.0" encoding="UTF-8" standalone="no"?>
<!DOCTYPE svg PUBLIC "-//W3C//DTD SVG 1.1//EN" "http://www.w3.org/Graphics/SVG/1.1/DTD/svg11.dtd">
<svg width="100%" height="100%" viewBox="0 0 30 30" version="1.1" xmlns="http://www.w3.org/2000/svg" xmlns:xlink="http://www.w3.org/1999/xlink" xml:space="preserve" xmlns:serif="http://www.serif.com/" style="fill-rule:evenodd;clip-rule:evenodd;stroke-linejoin:round;stroke-miterlimit:1.41421;">
    <g transform="matrix(1,0,0,1,-6.34739,-0.346366)">
        <path d="M21.024,0.346C23.059,0.351 25.091,0.779 26.947,1.605C29.221,2.618 31.231,4.222 32.727,6.217C34.357,8.389 35.367,11.026 35.599,13.734C35.822,16.329 35.345,18.981 34.217,21.331C33.069,23.722 31.261,25.788 29.044,27.247C26.679,28.805 23.854,29.654 21,29.654C19.082,29.654 17.159,29.275 15.381,28.536C12.899,27.503 10.711,25.77 9.129,23.588C7.73,21.658 6.813,19.382 6.486,17.025C6.175,14.777 6.388,12.455 7.118,10.302C8.151,7.251 10.223,4.57 12.901,2.789C15.017,1.382 17.508,0.538 20.06,0.376C20.381,0.356 20.702,0.346 21.024,0.346ZM20.978,1.347C19.081,1.351 17.19,1.749 15.46,2.519C12.65,3.77 10.295,5.993 8.879,8.713C7.587,11.199 7.094,14.089 7.474,16.866C7.775,19.069 8.632,21.198 9.939,23.001C11.695,25.424 14.264,27.257 17.163,28.106C19.645,28.833 22.336,28.838 24.837,28.106C27.72,27.262 30.306,25.423 32.061,23.001C33.359,21.211 34.212,19.109 34.521,16.909C34.818,14.789 34.613,12.604 33.922,10.583C33.208,8.497 31.975,6.59 30.373,5.076C28.461,3.269 26.015,2.025 23.416,1.56C22.633,1.42 21.84,1.35 21.044,1.347C21.022,1.347 21,1.347 20.978,1.347ZM21.016,5.143C22.932,5.147 24.832,5.719 26.423,6.77C28.213,7.952 29.602,9.73 30.308,11.754C30.98,13.679 31.034,15.811 30.461,17.77C29.982,19.405 29.068,20.909 27.841,22.092C26.235,23.643 24.095,24.624 21.866,24.819C20.295,24.956 18.693,24.715 17.234,24.11C15.019,23.193 13.161,21.439 12.116,19.272C11.011,16.979 10.843,14.243 11.667,11.825C12.362,9.782 13.753,7.982 15.552,6.786C17.082,5.768 18.895,5.193 20.746,5.146C20.836,5.143 20.926,5.142 21.016,5.143ZM20.985,6.143C19.288,6.147 17.581,6.65 16.15,7.589C14.513,8.663 13.246,10.289 12.613,12.147C12.028,13.867 11.989,15.769 12.506,17.515C13.099,19.517 14.427,21.29 16.183,22.432C18.35,23.839 21.127,24.234 23.619,23.462C25.457,22.893 27.088,21.708 28.206,20.146C29.605,18.192 30.158,15.667 29.69,13.283C29.33,11.455 28.371,9.752 27.002,8.49C25.521,7.123 23.568,6.284 21.554,6.16C21.365,6.148 21.177,6.143 20.985,6.143ZM21.015,10.092C22.251,10.098 23.466,10.582 24.364,11.428C25.111,12.131 25.632,13.076 25.822,14.086C26.066,15.379 25.767,16.763 25.001,17.84C24.275,18.861 23.147,19.589 21.913,19.822C20.672,20.056 19.345,19.79 18.293,19.093C17.137,18.327 16.327,17.058 16.137,15.67C15.963,14.395 16.311,13.056 17.094,12.028C17.985,10.86 19.408,10.122 20.905,10.093C20.942,10.092 20.978,10.092 21.015,10.092ZM20.987,11.092C19.781,11.098 18.615,11.683 17.89,12.635C17.141,13.618 16.898,14.962 17.264,16.149C17.6,17.242 18.44,18.167 19.501,18.609C20.447,19.002 21.551,19.002 22.498,18.609C23.554,18.169 24.396,17.25 24.735,16.149C25.087,15.007 24.883,13.712 24.179,12.729C23.474,11.744 22.3,11.116 21.075,11.093C21.046,11.092 21.016,11.092 20.987,11.092Z" style="fill:white;fill-rule:nonzero;"/>
    </g>
</svg>
