<?xml version="1.0" encoding="UTF-8" standalone="no"?><!DOCTYPE svg PUBLIC "-//W3C//DTD SVG 1.1//EN" "http://www.w3.org/Graphics/SVG/1.1/DTD/svg11.dtd"><svg width="100%" height="100%" viewBox="0 0 21 21" version="1.1" xmlns="http://www.w3.org/2000/svg" xmlns:xlink="http://www.w3.org/1999/xlink" xml:space="preserve" xmlns:serif="http://www.serif.com/" style="fill-rule:evenodd;clip-rule:evenodd;stroke-linejoin:round;stroke-miterlimit:1.41421;"><path d="M1.291,0.7c-0.326,0 -0.591,0.265 -0.591,0.591l0,17.869c0,0.326 0.265,0.591 0.591,0.591l17.869,0c0.326,0 0.591,-0.265 0.591,-0.591l0,-17.869c0,-0.326 -0.265,-0.591 -0.591,-0.591l-17.869,0Zm17.869,19.751l-17.869,0c-0.712,0 -1.291,-0.579 -1.291,-1.291l0,-17.869c0,-0.712 0.579,-1.291 1.291,-1.291l17.869,0c0.712,0 1.292,0.579 1.292,1.291l0,17.869c0,0.712 -0.58,1.291 -1.292,1.291" style="fill:#fffcf5;fill-rule:nonzero;"/><path d="M7.85,15.446l-3.195,-3.652l0.526,-0.461l2.67,3.051l8.011,-9.126l0.526,0.461l-8.538,9.727Z" style="fill:#fffcf5;fill-rule:nonzero;"/></svg>