<?xml version="1.0" encoding="UTF-8" standalone="no"?>
<!DOCTYPE svg PUBLIC "-//W3C//DTD SVG 1.1//EN" "http://www.w3.org/Graphics/SVG/1.1/DTD/svg11.dtd">
<svg width="100%" height="100%" viewBox="0 0 24 21" version="1.1" xmlns="http://www.w3.org/2000/svg" xmlns:xlink="http://www.w3.org/1999/xlink" xml:space="preserve" xmlns:serif="http://www.serif.com/" style="fill-rule:evenodd;clip-rule:evenodd;stroke-linejoin:round;stroke-miterlimit:1.41421;">
    <path d="M9.589,20.438L3.078,20.438L3.078,10.684L4.086,10.684L4.086,19.43L8.581,19.43L8.581,13.763L14.584,13.763L14.584,19.43L19.078,19.43L19.078,10.767L20.086,10.767L20.086,20.438L13.576,20.438L13.576,14.771L9.589,14.771L9.589,20.438ZM0.499,11.684C0.366,11.684 0.233,11.631 0.135,11.526C-0.054,11.325 -0.044,11.009 0.157,10.82L11.663,0L23.171,10.65C23.374,10.838 23.387,11.154 23.199,11.356C23.011,11.56 22.695,11.571 22.493,11.384L11.668,1.368L0.841,11.548C0.745,11.639 0.622,11.684 0.499,11.684ZM19.416,6.35C19.14,6.35 18.916,6.126 18.916,5.85L18.916,2.517L15.333,2.517C15.056,2.517 14.833,2.293 14.833,2.017C14.833,1.74 15.056,1.517 15.333,1.517L19.916,1.517L19.916,5.85C19.916,6.126 19.692,6.35 19.416,6.35Z" style="fill:rgb(130,130,128);fill-rule:nonzero;"/>
</svg>
