<?xml version="1.0" encoding="UTF-8" standalone="no"?><!DOCTYPE svg PUBLIC "-//W3C//DTD SVG 1.1//EN" "http://www.w3.org/Graphics/SVG/1.1/DTD/svg11.dtd"><svg width="100%" height="100%" viewBox="0 0 92 62" version="1.1" xmlns="http://www.w3.org/2000/svg" xmlns:xlink="http://www.w3.org/1999/xlink" xml:space="preserve" xmlns:serif="http://www.serif.com/" style="fill-rule:evenodd;clip-rule:evenodd;stroke-linejoin:round;stroke-miterlimit:1.41421;"><path d="M7.547,51.466l0,-46.317c0,-2.695 2.633,-5.149 5.525,-5.149l66.372,0c2.695,0 5.15,2.454 5.15,5.149l0,46.317l2.537,0c2.639,0 4.869,1.972 4.869,4.306c0,2.345 -3.416,5.431 -5.431,5.431l-80.716,0c-2.574,0 -5.853,-3.681 -5.853,-5.431c0,-2.14 1.528,-4.306 4.447,-4.306l3.1,0Zm27.855,1.3l-30.955,0c-2.174,0 -3.147,1.51 -3.147,3.006c0,1.05 2.687,4.131 4.553,4.131l80.716,0c1.35,0 4.131,-2.552 4.131,-4.131c0,-1.601 -1.668,-3.006 -3.569,-3.006l-29.636,0c-0.45,1.04 -1.806,3.844 -3.362,3.844c-0.634,0 -4.068,0.043 -7.616,0.088c-3.801,0.049 -7.733,0.099 -8.509,0.099c-1.874,0 -3.029,-3.182 -3.242,-3.819l0.636,-0.212Zm20.662,0l-19.994,0c0.439,1.206 1.304,2.731 1.938,2.731c0.774,0 4.699,-0.05 8.493,-0.098c3.555,-0.045 6.996,-0.089 7.632,-0.089c0.393,0 1.26,-1.167 1.931,-2.544Zm23.38,-51.467l-66.372,0c-2.172,0 -4.226,1.871 -4.226,3.85l0,46.317l74.448,0l0,-46.317c0,-1.979 -1.871,-3.85 -3.85,-3.85Zm-0.287,47.624l-66.923,0l0.001,-42.923l66.922,0l0,42.923Zm-65.624,-1.3l64.323,0l0,-40.323l-64.323,0l0,40.323Zm57.187,-12.481l-21.737,0l0,-6.924l21.737,0l0,6.924Zm-1.3,-5.625l-19.138,0l0,4.325l19.138,0l0,-4.325Zm-25.599,2.719l-22.5,0l0,-1.3l22.5,0l0,1.3Zm26.899,-7.359l-21.737,0l0,-6.924l21.737,0l0,6.924Zm-1.3,-5.625l-19.138,0l0,4.325l19.138,0l0,-4.325Zm-25.599,2.906l-22.5,0l0,-1.3l22.5,0l0,1.3Z" style="fill:#fffcf5;fill-rule:nonzero;"/></svg>