<?xml version="1.0" encoding="UTF-8" standalone="no"?>
<!DOCTYPE svg PUBLIC "-//W3C//DTD SVG 1.1//EN" "http://www.w3.org/Graphics/SVG/1.1/DTD/svg11.dtd">
<svg width="100%" height="100%" viewBox="0 0 31 30" version="1.1" xmlns="http://www.w3.org/2000/svg" xmlns:xlink="http://www.w3.org/1999/xlink" xml:space="preserve" xmlns:serif="http://www.serif.com/" style="fill-rule:evenodd;clip-rule:evenodd;stroke-linejoin:round;stroke-miterlimit:1.41421;">
    <g transform="matrix(1,0,0,1,-5.90995,-0.44338)">
        <g transform="matrix(0.844722,0,0,0.844722,-1048.44,-1269.51)">
            <path d="M1264.43,1525L1264.43,1533.52C1264.42,1534.1 1264.39,1534.19 1264.32,1534.5C1263.77,1536.84 1260.98,1538.5 1258.59,1537.62C1257.08,1537.07 1255.99,1535.66 1255.27,1534.16C1255.27,1534.16 1252.51,1533.47 1250.9,1532.18C1249.26,1530.88 1248.29,1528.85 1248.25,1526.73C1248.23,1523.69 1248.13,1520.68 1248.18,1517.62C1248.28,1515.04 1250.86,1513.31 1253.73,1512.97C1253.73,1512.97 1253.7,1513.43 1253.98,1512.33C1254.63,1509.88 1256.69,1508.17 1259.39,1507.28C1259.39,1507.28 1259.45,1507.7 1259.45,1507.1C1259.49,1504.97 1261.56,1503.39 1263.91,1503.4L1264.43,1503.42L1264.43,1524.1C1264.66,1524.13 1264.88,1524.15 1265.1,1524.15L1265.09,1525.05C1264.87,1525.05 1264.65,1525.03 1264.43,1525ZM1267.56,1524.09L1267.56,1503.42C1267.78,1503.41 1267.83,1503.39 1268.25,1503.4C1270.46,1503.46 1272.65,1505.16 1272.53,1507.38C1272.53,1507.38 1272.57,1507.27 1272.57,1507.27C1274.47,1507.88 1276.4,1508.87 1277.33,1510.57C1277.73,1511.31 1278,1512.11 1278.15,1512.93C1278.15,1512.93 1281.16,1513.46 1282.54,1514.93C1283.62,1516.08 1283.82,1517.71 1283.8,1519.32C1283.76,1523.85 1284.64,1528.77 1281.73,1531.62C1280.43,1532.9 1278.7,1533.68 1276.9,1534.1C1276.9,1534.1 1276.84,1533.94 1276.62,1534.39C1275.39,1536.75 1272.77,1538.62 1270.13,1537.43C1268.63,1536.76 1267.58,1535.23 1267.56,1533.52L1267.56,1525C1267.38,1525.02 1267.21,1525.04 1267.04,1525.05L1266.9,1525.05L1266.89,1524.15C1267.06,1524.15 1267.22,1524.13 1267.38,1524.11C1267.44,1524.11 1267.5,1524.1 1267.56,1524.09ZM1268.46,1523.85C1269.52,1523.45 1270.51,1522.56 1270.54,1521.33C1270.57,1518.66 1270.16,1516.05 1272.72,1514.11C1272.72,1514.11 1273.06,1514.53 1273.27,1514.82C1273.19,1514.88 1273.12,1514.94 1273.05,1515C1272.29,1515.63 1271.5,1516.41 1271.44,1517.35C1271.4,1519.49 1271.86,1521.78 1270.85,1523.2C1270.28,1524.01 1269.4,1524.53 1268.46,1524.81L1268.46,1533.51C1268.49,1535.74 1270.99,1537.63 1273.19,1536.74C1274.32,1536.29 1275.13,1535.27 1275.72,1534.15L1271.61,1534.15L1271.61,1533.25L1276.53,1533.25L1276.53,1533.25C1279.1,1532.72 1281.57,1531.31 1282.46,1528.92C1282.92,1527.68 1282.84,1526.33 1282.85,1525C1282.87,1522.56 1282.91,1520.13 1282.91,1517.7C1282.88,1515.46 1280.32,1514.05 1277.89,1513.84L1277.34,1513.81C1277.17,1511.95 1276.29,1510.12 1274.7,1509.19C1273.98,1508.77 1273.21,1508.44 1272.42,1508.17C1272.42,1508.17 1271.58,1509.91 1270.29,1511.38L1269.61,1510.78C1269.71,1510.67 1269.8,1510.56 1269.9,1510.45C1270.81,1509.35 1271.82,1508.13 1271.62,1506.79C1271.41,1505.4 1269.96,1504.45 1268.49,1504.31L1268.46,1504.31L1268.46,1523.85ZM1263.53,1523.88L1263.53,1504.31C1263.52,1504.31 1263.51,1504.31 1263.5,1504.31C1261.32,1504.52 1259.43,1506.63 1261.02,1509.04C1261.57,1509.86 1262.38,1510.78 1262.38,1510.78L1261.7,1511.38C1260.84,1510.39 1259.93,1509.37 1259.58,1508.17C1259.58,1508.17 1256.67,1509.1 1255.69,1510.6C1255.08,1511.55 1254.76,1512.64 1254.65,1513.81C1251.93,1513.96 1249.11,1515.62 1249.08,1517.7C1249.09,1520.74 1249.09,1523.78 1249.15,1526.83C1249.26,1530.02 1252.14,1532.56 1255.46,1533.25L1255.46,1533.25L1255.62,1533.25C1255.63,1533.25 1255.64,1533.25 1255.65,1533.25L1260.39,1533.25L1260.39,1534.15L1256.27,1534.15C1257.3,1536.02 1259.23,1537.56 1261.41,1536.64C1262.64,1536.13 1263.52,1534.91 1263.53,1533.51L1263.53,1524.79C1262.01,1524.3 1260.6,1523.11 1260.55,1521.35C1260.53,1519.56 1260.91,1517.55 1260.22,1516.41C1259.77,1515.65 1258.72,1514.82 1258.72,1514.82C1258.72,1514.82 1259.15,1514.02 1259.27,1514.11C1259.47,1514.26 1259.66,1514.41 1259.84,1514.58C1260.65,1515.32 1261.38,1516.24 1261.45,1517.32C1261.48,1519.18 1261.1,1521.28 1261.73,1522.44C1262.11,1523.15 1262.78,1523.62 1263.53,1523.88ZM1262.22,1529.44L1255.46,1529.44C1253.82,1529.41 1252.51,1527.89 1252.49,1526.24L1252.49,1522.51L1253.39,1522.51C1253.39,1523.76 1253.39,1525 1253.39,1526.24C1253.41,1527.36 1254.28,1528.52 1255.46,1528.54L1262.22,1528.54L1262.22,1529.44ZM1276.54,1529.44L1269.77,1529.44L1269.77,1528.54C1272.05,1528.54 1274.33,1528.57 1276.6,1528.54C1277.75,1528.48 1278.59,1527.34 1278.6,1526.24L1278.6,1522.51L1279.5,1522.51C1279.5,1523.76 1279.5,1525 1279.5,1526.24C1279.48,1527.85 1278.26,1529.41 1276.54,1529.44ZM1257.92,1524.96L1257.02,1524.96C1257.02,1522.95 1257.12,1520.95 1257.01,1518.94C1256.98,1518.51 1256.91,1518.04 1256.61,1517.7C1255.69,1516.68 1253.52,1517.48 1253.61,1519.3C1253.61,1519.3 1252.71,1519.38 1252.71,1519.38C1252.61,1517.84 1253.57,1516.36 1255.48,1516.38C1256.24,1516.41 1257.02,1516.68 1257.45,1517.32C1257.94,1518.04 1257.92,1519.35 1257.92,1519.35L1257.92,1524.96ZM1274.97,1524.96L1274.07,1524.96C1274.07,1523.05 1274.06,1521.14 1274.07,1519.23C1274.1,1517.88 1274.89,1516.37 1276.67,1516.38C1278.17,1516.42 1279.36,1517.79 1279.29,1519.34C1279.29,1519.34 1278.38,1519.32 1278.38,1519.32C1278.42,1518.73 1278.26,1518.09 1277.85,1517.69C1277.19,1517.08 1276.05,1517.05 1275.43,1517.65C1274.99,1518.08 1274.97,1518.77 1274.97,1519.35L1274.97,1524.96Z" style="fill:white;fill-rule:nonzero;"/>
        </g>
    </g>
</svg>
