<?xml version="1.0" encoding="UTF-8" standalone="no"?>
<!DOCTYPE svg PUBLIC "-//W3C//DTD SVG 1.1//EN" "http://www.w3.org/Graphics/SVG/1.1/DTD/svg11.dtd">
<svg width="100%" height="100%" viewBox="0 0 267 267" version="1.1" xmlns="http://www.w3.org/2000/svg" xmlns:xlink="http://www.w3.org/1999/xlink" xml:space="preserve" xmlns:serif="http://www.serif.com/" style="fill-rule:evenodd;clip-rule:evenodd;stroke-linejoin:round;stroke-miterlimit:1.41421;">
    <g transform="matrix(1,0,0,1,-506.779,-266.777)">
        <g transform="matrix(4.16667,0,0,4.16667,-4316.65,-5224.32)">
            <path d="M1183.25,1348.19L1180.31,1348.19L1180.31,1350.61L1183.25,1350.61L1183.25,1358.59L1180.31,1359.32L1180.31,1360.93L1198.44,1360.93L1198.44,1358.48L1186.02,1358.48L1186.02,1350.61L1195.78,1350.61L1195.78,1348.19L1186.02,1348.19L1186.02,1344.41C1186.02,1340.88 1187.8,1338.64 1190.95,1338.64C1193.51,1338.64 1194.98,1339.83 1196.34,1341.54L1198.48,1339.86C1196.83,1337.73 1194.69,1336.08 1190.99,1336.08C1186.09,1336.08 1183.25,1339.44 1183.25,1344.41L1183.25,1348.19Z" style="fill:white;fill-rule:nonzero;"/>
        </g>
        <g transform="matrix(4.16667,0,0,4.16667,523.104,526.092)">
            <path d="M0,-60.391C-1.143,-60.391 -2.074,-59.461 -2.074,-58.317L-2.074,-2.073C-2.074,-0.93 -1.143,0.001 0,0.001L56.243,0.001C57.386,0.001 58.317,-0.93 58.317,-2.073L58.317,-58.317C58.317,-59.461 57.386,-60.391 56.243,-60.391L0,-60.391ZM56.243,1.778L0,1.778C-2.124,1.778 -3.851,0.05 -3.851,-2.073L-3.851,-58.317C-3.851,-60.441 -2.124,-62.169 0,-62.169L56.243,-62.169C58.367,-62.169 60.095,-60.441 60.095,-58.317L60.095,-2.073C60.095,0.05 58.367,1.778 56.243,1.778" style="fill:white;fill-rule:nonzero;"/>
        </g>
    </g>
</svg>
