<?xml version="1.0" encoding="UTF-8" standalone="no"?><!DOCTYPE svg PUBLIC "-//W3C//DTD SVG 1.1//EN" "http://www.w3.org/Graphics/SVG/1.1/DTD/svg11.dtd"><svg width="100%" height="100%" viewBox="0 0 24 21" version="1.1" xmlns="http://www.w3.org/2000/svg" xmlns:xlink="http://www.w3.org/1999/xlink" xml:space="preserve" xmlns:serif="http://www.serif.com/" style="fill-rule:evenodd;clip-rule:evenodd;stroke-linejoin:round;stroke-miterlimit:1.41421;"><path d="M9.589,20.438l-6.511,0l0,-9.754l1.008,0l0,8.746l4.495,0l0,-5.667l6.003,0l0,5.667l4.494,0l0,-8.663l1.008,0l0,9.671l-6.51,0l0,-5.667l-3.987,0l0,5.667Zm-9.09,-8.754c-0.133,0 -0.266,-0.053 -0.364,-0.158c-0.189,-0.201 -0.179,-0.517 0.022,-0.706l11.506,-10.82l11.508,10.65c0.203,0.188 0.216,0.504 0.028,0.706c-0.188,0.204 -0.504,0.215 -0.706,0.028l-10.825,-10.016l-10.827,10.18c-0.096,0.091 -0.219,0.136 -0.342,0.136Zm18.917,-5.334c-0.276,0 -0.5,-0.224 -0.5,-0.5l0,-3.333l-3.583,0c-0.277,0 -0.5,-0.224 -0.5,-0.5c0,-0.277 0.223,-0.5 0.5,-0.5l4.583,0l0,4.333c0,0.276 -0.224,0.5 -0.5,0.5Z" style="fill:#fffcf5;fill-rule:nonzero;"/></svg>