<?xml version="1.0" encoding="UTF-8" standalone="no"?>
<!DOCTYPE svg PUBLIC "-//W3C//DTD SVG 1.1//EN" "http://www.w3.org/Graphics/SVG/1.1/DTD/svg11.dtd">
<svg width="100%" height="100%" viewBox="0 0 19 15" version="1.1" xmlns="http://www.w3.org/2000/svg" xmlns:xlink="http://www.w3.org/1999/xlink" xml:space="preserve" xmlns:serif="http://www.serif.com/" style="fill-rule:evenodd;clip-rule:evenodd;stroke-linejoin:round;stroke-miterlimit:1.41421;">
    <path d="M11.648,13.753C13.461,12.598 14.972,10.104 14.972,7.044C14.972,5.896 14.966,4.146 14.93,3.237L16.864,2.723L16.864,7.847L15.871,9.549L16.408,9.862L17.159,8.574L17.86,9.923L18.41,9.636L17.485,7.855L17.485,2.558L18.734,2.226L9.49,0L0,2.138L3.783,3.17L3.783,7.192C3.783,9.993 5.241,12.411 7.035,13.621C7.035,13.621 8.282,14.454 9.375,14.454C10.469,14.454 11.073,14.1 11.648,13.753" style="fill:rgb(96,141,162);fill-rule:nonzero;"/>
</svg>
