<?xml version="1.0" encoding="UTF-8" standalone="no"?><!DOCTYPE svg PUBLIC "-//W3C//DTD SVG 1.1//EN" "http://www.w3.org/Graphics/SVG/1.1/DTD/svg11.dtd"><svg width="100%" height="100%" viewBox="0 0 19 15" version="1.1" xmlns="http://www.w3.org/2000/svg" xmlns:xlink="http://www.w3.org/1999/xlink" xml:space="preserve" xmlns:serif="http://www.serif.com/" style="fill-rule:evenodd;clip-rule:evenodd;stroke-linejoin:round;stroke-miterlimit:1.41421;"><path d="M4.249,7.207l0,-2.527l5.169,1.906l5.107,-1.769c0.002,1.354 0.003,1.772 0.003,2.242c0,3.891 -2.653,6.798 -5.025,6.798c-2.365,0 -5.254,-3.068 -5.254,-6.65m5.093,-2.514l0.084,0.022l5.065,-1.313c0.007,0.195 0.013,0.455 0.019,0.796l-5.075,1.767l-5.153,-1.911l-0.033,0.084l0,-0.798l5.093,1.353Zm0.144,-4.056l6.72,1.619l-6.791,1.806l-6.845,-1.867l6.916,-1.558Zm2.162,13.116c1.813,-1.155 3.324,-3.649 3.324,-6.709c0,-1.148 -0.006,-2.898 -0.042,-3.807l1.934,-0.514l0,5.124l-0.993,1.702l0.537,0.313l0.751,-1.288l0.701,1.349l0.55,-0.287l-0.925,-1.781l0,-5.297l1.249,-0.332l-9.244,-2.226l-9.49,2.138l3.783,1.032l0,4.022c0,2.801 1.458,5.219 3.252,6.429c0,0 1.247,0.833 2.34,0.833c1.094,0 1.698,-0.354 2.273,-0.701" style="fill:#fff;fill-rule:nonzero;"/></svg>