<?xml version="1.0" encoding="UTF-8" standalone="no"?>
<!DOCTYPE svg PUBLIC "-//W3C//DTD SVG 1.1//EN" "http://www.w3.org/Graphics/SVG/1.1/DTD/svg11.dtd">
<svg width="100%" height="100%" viewBox="0 0 20 20" version="1.1" xmlns="http://www.w3.org/2000/svg" xmlns:xlink="http://www.w3.org/1999/xlink" xml:space="preserve" xmlns:serif="http://www.serif.com/" style="fill-rule:evenodd;clip-rule:evenodd;stroke-linejoin:round;stroke-miterlimit:1.41421;">
    <path d="M13.731,1.993L15.304,0.42C15.67,0.053 16.042,-0.011 16.269,0.001C16.575,0.015 16.87,0.157 17.123,0.411L18.981,2.268C19.509,2.797 19.505,3.457 18.972,3.991L17.35,5.613L17.452,5.715C17.71,5.973 17.71,6.392 17.452,6.65C17.348,6.754 17.222,6.818 17.091,6.843C17.068,6.976 17.004,7.098 16.907,7.195C16.795,7.307 16.658,7.373 16.517,7.393C16.498,7.532 16.435,7.666 16.329,7.773C16.217,7.884 16.08,7.95 15.939,7.971C15.92,8.11 15.858,8.244 15.752,8.351C15.614,8.488 15.439,8.556 15.266,8.556C15.191,8.556 15.116,8.543 15.045,8.518L6.918,16.601L0,19.296L1.117,16.46L1.109,16.443C1.115,16.44 1.121,16.438 1.126,16.436L2.794,12.201L10.788,4.207C10.777,4.159 10.771,4.108 10.771,4.057C10.771,3.88 10.84,3.714 10.965,3.589C11.076,3.477 11.214,3.411 11.355,3.391C11.373,3.252 11.436,3.118 11.543,3.012C11.655,2.899 11.792,2.835 11.932,2.815C11.951,2.675 12.013,2.54 12.12,2.433C12.224,2.328 12.351,2.264 12.482,2.239C12.505,2.111 12.566,1.988 12.665,1.889C12.937,1.617 13.356,1.619 13.613,1.876L13.731,1.993Z" style="fill:rgb(96,141,162);fill-rule:nonzero;"/>
</svg>
