<?xml version="1.0" encoding="UTF-8" standalone="no"?>
<!DOCTYPE svg PUBLIC "-//W3C//DTD SVG 1.1//EN" "http://www.w3.org/Graphics/SVG/1.1/DTD/svg11.dtd">
<svg width="100%" height="100%" viewBox="0 0 38 29" version="1.1" xmlns="http://www.w3.org/2000/svg" xmlns:xlink="http://www.w3.org/1999/xlink" xml:space="preserve" xmlns:serif="http://www.serif.com/" style="fill-rule:evenodd;clip-rule:evenodd;stroke-linejoin:round;stroke-miterlimit:1.41421;">
    <g transform="matrix(1,0,0,1,-2.213,-0.504963)">
        <g transform="matrix(0.874037,0,0,0.874037,10.7349,15.0393)">
            <path d="M0,-0.09L0,-5.89L11.862,-1.516L23.583,-5.574C23.587,-2.467 23.589,-1.509 23.589,-0.43C23.589,8.499 17.501,15.17 12.058,15.17C6.63,15.17 0,8.128 0,-0.09M11.688,-5.858L11.88,-5.808L23.504,-8.823C23.519,-8.376 23.533,-7.778 23.546,-6.994L11.901,-2.941L0.075,-7.326L0,-7.134L0,-8.966L11.688,-5.858ZM12.019,-15.166L27.439,-11.452L11.855,-7.306L-3.854,-11.591L12.019,-15.166ZM16.979,14.93C21.141,12.281 24.607,6.557 24.607,-0.464C24.607,-3.1 24.593,-7.114 24.51,-9.199L28.948,-10.38L28.948,1.379L26.672,5.283L27.901,6L29.625,3.047L31.233,6.14L32.498,5.483L30.373,1.397L30.373,-10.759L33.239,-11.522L12.028,-16.629L-9.75,-11.722L-1.07,-9.355L-1.07,-0.125C-1.07,6.304 2.277,11.852 6.393,14.63C6.393,14.63 9.254,16.539 11.764,16.539C14.273,16.539 15.66,15.726 16.979,14.93" style="fill:white;fill-rule:nonzero;"/>
        </g>
    </g>
</svg>
