<?xml version="1.0" encoding="UTF-8" standalone="no"?>
<!DOCTYPE svg PUBLIC "-//W3C//DTD SVG 1.1//EN" "http://www.w3.org/Graphics/SVG/1.1/DTD/svg11.dtd">
<svg width="100%" height="100%" viewBox="0 0 267 267" version="1.1" xmlns="http://www.w3.org/2000/svg" xmlns:xlink="http://www.w3.org/1999/xlink" xml:space="preserve" xmlns:serif="http://www.serif.com/" style="fill-rule:evenodd;clip-rule:evenodd;stroke-linejoin:round;stroke-miterlimit:1.41421;">
    <path d="M250.671,266.723L16.325,266.723C7.475,266.723 0.279,259.523 0.279,250.677L0.279,16.327C0.279,7.477 7.475,0.277 16.325,0.277L250.671,0.277C259.521,0.277 266.721,7.477 266.721,16.327L266.721,250.677C266.721,259.523 259.521,266.723 250.671,266.723ZM106.785,136.434L106.785,169.684L94.535,172.747L94.535,179.455L170.076,179.455L170.076,169.247L118.305,169.247L118.305,136.434L158.993,136.434L158.993,126.372L118.305,126.372L118.305,110.622C118.305,95.892 125.743,86.559 138.868,86.559C149.514,86.559 155.639,91.517 161.326,98.663L170.222,91.663C163.368,82.768 154.472,75.913 139.014,75.913C118.597,75.913 106.785,89.913 106.785,110.622L106.785,126.372L94.535,126.372L94.535,136.434L106.785,136.434Z" style="fill:white;fill-rule:nonzero;"/>
</svg>
