<?xml version="1.0" encoding="UTF-8" standalone="no"?>
<!DOCTYPE svg PUBLIC "-//W3C//DTD SVG 1.1//EN" "http://www.w3.org/Graphics/SVG/1.1/DTD/svg11.dtd">
<svg width="100%" height="100%" viewBox="0 0 20 28" version="1.1" xmlns="http://www.w3.org/2000/svg" xmlns:xlink="http://www.w3.org/1999/xlink" xml:space="preserve" xmlns:serif="http://www.serif.com/" style="fill-rule:evenodd;clip-rule:evenodd;stroke-linejoin:round;stroke-miterlimit:1.41421;">
    <g transform="matrix(1,0,0,1,0,-1)">
        <path d="M5.69,4.226C5.971,4.228 6.24,4.354 6.475,4.507C6.855,4.754 7.178,5.08 7.472,5.422C7.851,5.863 8.183,6.343 8.457,6.854C8.75,7.401 9.022,7.964 9.176,8.571C9.28,8.981 9.321,9.412 9.234,9.83C9.202,9.984 9.157,10.136 9.087,10.277C8.955,10.542 8.733,10.753 8.489,10.925C8.103,11.198 7.661,11.385 7.209,11.537C7.531,12.271 7.913,12.978 8.335,13.66C8.568,14.037 8.812,14.41 9.072,14.765C9.37,15.172 9.711,15.552 10.115,15.855C10.276,15.975 10.447,16.085 10.63,16.166L10.63,16.167C11.157,15.717 11.692,15.279 12.259,14.888C12.433,14.768 12.609,14.648 12.8,14.557C13.197,14.369 13.655,14.322 14.095,14.41C14.434,14.478 14.757,14.616 15.053,14.781C15.477,15.017 15.866,15.314 16.231,15.635C16.769,16.108 17.261,16.64 17.651,17.244C17.998,17.782 18.264,18.375 18.307,19.032C18.346,19.651 18.176,20.271 17.904,20.83C17.56,21.535 17.056,22.159 16.477,22.695C16.052,23.089 15.581,23.436 15.08,23.727C14.857,23.856 14.62,23.955 14.371,24.013C13.824,24.139 13.245,24.069 12.707,23.895C12.072,23.689 11.487,23.357 10.931,22.984C10.167,22.472 9.459,21.879 8.766,21.275C8.127,20.718 7.556,20.082 7.007,19.433C6.228,18.512 5.493,17.553 4.787,16.576C3.986,15.467 3.217,14.332 2.515,13.148C2.141,12.517 1.779,11.875 1.501,11.2C1.133,10.303 0.962,9.317 1.105,8.357C1.221,7.577 1.545,6.832 2.031,6.216C2.37,5.786 2.785,5.418 3.246,5.125C3.695,4.84 4.177,4.602 4.674,4.429C4.991,4.319 5.318,4.232 5.653,4.226L5.69,4.226Z" style="fill:rgb(96,141,162);fill-rule:nonzero;"/>
    </g>
    <g transform="matrix(1,0,0,1,0,-1)">
        <path d="M10.995,6.902C11.158,6.919 11.321,6.949 11.483,6.982C12.042,7.098 12.589,7.279 13.102,7.531C13.668,7.81 14.194,8.181 14.612,8.65C15.047,9.136 15.359,9.731 15.515,10.368C15.688,11.075 15.675,11.818 15.551,12.54L14.787,12.409C14.896,11.772 14.911,11.105 14.743,10.477C14.62,10.022 14.397,9.593 14.093,9.233C13.632,8.69 13.001,8.301 12.334,8.04C11.9,7.87 11.445,7.744 10.981,7.682C10.96,7.679 10.938,7.676 10.917,7.674L10.993,6.902C10.993,6.902 10.994,6.902 10.995,6.902Z" style="fill:rgb(96,141,162);fill-rule:nonzero;"/>
    </g>
    <g transform="matrix(1,0,0,1,0,-1)">
        <path d="M11.483,3.985C11.723,4.01 11.96,4.056 12.197,4.106C12.998,4.277 13.782,4.542 14.516,4.9C15.346,5.305 16.112,5.835 16.746,6.511C17.243,7.041 17.647,7.655 17.932,8.321C18.222,9 18.389,9.733 18.448,10.467C18.51,11.241 18.458,12.022 18.332,12.781L17.567,12.654C17.64,12.216 17.685,11.78 17.696,11.338C17.715,10.599 17.634,9.855 17.412,9.148C17.171,8.379 16.759,7.668 16.211,7.074C15.501,6.305 14.586,5.74 13.615,5.347C12.984,5.093 12.332,4.904 11.653,4.792C11.569,4.778 11.486,4.765 11.402,4.756L11.481,3.985C11.482,3.985 11.482,3.985 11.483,3.985Z" style="fill:rgb(96,141,162);fill-rule:nonzero;"/>
    </g>
</svg>
