<?xml version="1.0" encoding="UTF-8" standalone="no"?>
<!DOCTYPE svg PUBLIC "-//W3C//DTD SVG 1.1//EN" "http://www.w3.org/Graphics/SVG/1.1/DTD/svg11.dtd">
<svg width="100%" height="100%" viewBox="0 0 67 75" version="1.1" xmlns="http://www.w3.org/2000/svg" xmlns:xlink="http://www.w3.org/1999/xlink" xml:space="preserve" xmlns:serif="http://www.serif.com/" style="fill-rule:evenodd;clip-rule:evenodd;stroke-linejoin:round;stroke-miterlimit:1.41421;">
    <g transform="matrix(1,0,0,1,47.8444,47.761)">
        <g id="Isolation-Mode" serif:id="Isolation Mode">
            <path d="M0,-25.163L-20.202,-2.147L-27.021,-9.938L-28.085,-9.007L-20.204,0L1.064,-24.229L0,-25.163Z" style="fill:white;fill-rule:nonzero;"/>
        </g>
    </g>
    <g transform="matrix(1,0,0,1,33.3232,2.0909)">
        <g id="Isolation-Mode1" serif:id="Isolation Mode">
            <path d="M0,70.287C-19.333,61.776 -31.323,45.99 -31.323,29.002C-31.323,24.348 -31.296,19.689 -31.268,15.029C-31.244,11.143 -31.222,7.256 -31.214,3.371C-27.776,6.118 -22.487,7.76 -16.779,7.76C-9.466,7.76 -2.905,5.017 0.001,0.916C2.907,5.017 9.467,7.76 16.78,7.76C22.489,7.76 27.778,6.118 31.215,3.371C31.222,7.257 31.245,11.143 31.269,15.029C31.296,19.689 31.323,24.348 31.323,29.002C31.323,45.99 19.333,61.776 0,70.287M33.269,15.017C33.24,10.354 33.213,5.69 33.213,1.029C33.213,0.61 32.951,0.235 32.558,0.091C32.164,-0.055 31.722,0.062 31.451,0.382C28.633,3.699 23.011,5.76 16.78,5.76C9.318,5.76 2.795,2.777 0.916,-1.494C0.757,-1.857 0.397,-2.091 0.001,-2.091C-0.396,-2.091 -0.755,-1.857 -0.914,-1.494C-2.793,2.777 -9.316,5.76 -16.779,5.76C-23.009,5.76 -28.631,3.699 -31.45,0.382C-31.721,0.062 -32.163,-0.054 -32.557,0.091C-32.95,0.235 -33.212,0.61 -33.212,1.029C-33.212,5.69 -33.24,10.354 -33.268,15.017C-33.296,19.681 -33.323,24.344 -33.323,29.002C-33.323,46.916 -20.707,63.505 -0.397,72.296C-0.271,72.351 -0.135,72.378 0,72.378C0.135,72.378 0.271,72.351 0.397,72.296C20.707,63.505 33.323,46.916 33.323,29.002C33.323,24.344 33.296,19.681 33.269,15.017" style="fill:white;fill-rule:nonzero;"/>
        </g>
    </g>
</svg>
