<?xml version="1.0" encoding="UTF-8" standalone="no"?><!DOCTYPE svg PUBLIC "-//W3C//DTD SVG 1.1//EN" "http://www.w3.org/Graphics/SVG/1.1/DTD/svg11.dtd"><svg width="100%" height="100%" viewBox="0 0 25 17" version="1.1" xmlns="http://www.w3.org/2000/svg" xmlns:xlink="http://www.w3.org/1999/xlink" xml:space="preserve" xmlns:serif="http://www.serif.com/" style="fill-rule:evenodd;clip-rule:evenodd;stroke-linejoin:round;stroke-miterlimit:1.41421;"><path d="M17.543,13.577c-1.934,0 -4.145,0.848 -5.119,1.267l0,-12.088c0.36,-0.367 1.769,-1.692 3.535,-1.987c1.742,-0.29 3.715,0.412 4.287,0.639l2.829,13.722c-1.157,-0.531 -3.629,-1.553 -5.532,-1.553m-5.917,1.267c-0.975,-0.419 -3.186,-1.267 -5.119,-1.267c-1.902,0 -4.375,1.022 -5.532,1.553l2.829,-13.722c0.571,-0.227 2.541,-0.933 4.287,-0.639c1.76,0.294 3.174,1.621 3.535,1.987l0,12.088Zm9.232,-13.936l-0.164,-0.073c-0.105,-0.047 -2.584,-1.133 -4.85,-0.756c-1.864,0.311 -3.307,1.583 -3.819,2.087c-0.511,-0.504 -1.955,-1.776 -3.819,-2.087c-2.27,-0.377 -4.745,0.71 -4.85,0.756l-0.164,0.073l-3.192,15.488l0.649,-0.333c0.035,-0.018 3.509,-1.786 5.858,-1.786c2.116,0 4.698,1.138 5.217,1.378l0.301,0.144l0.302,-0.144c0.518,-0.24 3.098,-1.378 5.216,-1.378c2.346,0 5.823,1.768 5.858,1.786l0.65,0.333l-3.193,-15.488Z" style="fill:#fff;fill-rule:nonzero;"/></svg>