<?xml version="1.0" encoding="UTF-8" standalone="no"?>
<!DOCTYPE svg PUBLIC "-//W3C//DTD SVG 1.1//EN" "http://www.w3.org/Graphics/SVG/1.1/DTD/svg11.dtd">
<svg width="100%" height="100%" viewBox="0 0 21 30" version="1.1" xmlns="http://www.w3.org/2000/svg" xmlns:xlink="http://www.w3.org/1999/xlink" xml:space="preserve" xmlns:serif="http://www.serif.com/" style="fill-rule:evenodd;clip-rule:evenodd;stroke-linejoin:round;stroke-miterlimit:1.41421;">
    <g transform="matrix(1,0,0,1,-10.8294,-0.323561)">
        <g transform="matrix(0.917428,0,0,0.917428,-1140.13,-1589.34)">
            <path d="M1264.91,1763.74L1256.48,1750.17C1256.25,1749.83 1256.03,1749.49 1255.84,1749.13L1255.49,1748.42C1253.77,1744.54 1254.46,1739.76 1257.21,1736.58C1259.32,1734.15 1262.46,1732.72 1265.76,1732.74C1271.81,1732.86 1277.17,1738.55 1276.7,1744.7C1276.55,1746.6 1275.84,1748.39 1274.8,1750.04L1274.47,1750.56L1266.03,1763.74L1272.22,1763.74L1272.22,1764.74L1258.51,1764.74L1258.51,1763.74L1264.91,1763.74ZM1265.49,1733.74C1258.9,1733.87 1253.47,1741.17 1256.35,1747.89C1256.35,1747.89 1256.79,1748.85 1257.32,1749.62L1265.47,1762.74C1268.3,1758.33 1271.13,1753.92 1273.95,1749.5L1274.28,1748.99C1274.63,1748.44 1274.75,1748.19 1274.92,1747.82C1277.45,1741.9 1273.02,1733.96 1265.88,1733.74C1265.75,1733.74 1265.62,1733.74 1265.49,1733.74ZM1265.61,1738.72C1267.6,1738.75 1269.51,1740 1270.33,1741.81C1271.74,1744.94 1269.19,1749.21 1265.54,1749.21C1263.33,1749.21 1261.2,1747.68 1260.53,1745.52C1259.55,1742.36 1262.23,1738.69 1265.61,1738.72ZM1265.49,1739.72C1263.88,1739.75 1262.33,1740.75 1261.67,1742.22C1260.52,1744.78 1262.63,1748.25 1265.6,1748.21C1267.41,1748.19 1269.13,1746.89 1269.63,1745.13C1270.35,1742.6 1268.17,1739.7 1265.49,1739.72Z" style="fill:white;fill-rule:nonzero;"/>
        </g>
    </g>
</svg>
