<?xml version="1.0" encoding="utf-8"?>
<!-- Generator: Adobe Illustrator 22.1.0, SVG Export Plug-In . SVG Version: 6.00 Build 0)  -->
<svg version="1.1" id="Layer_1" xmlns="http://www.w3.org/2000/svg" xmlns:xlink="http://www.w3.org/1999/xlink" x="0px" y="0px"
	 viewBox="0 0 100 100" style="enable-background:new 0 0 100 100;" xml:space="preserve">
<style type="text/css">
	.st0{fill:none;stroke:#FBF9F0;stroke-width:2;stroke-miterlimit:10;}
	.st1{fill:#FBF9F0;}
</style>
<g>
	<g>
		<path class="st0" d="M21.3,21.9V2.6c0-0.4,0.3-0.7,0.6-0.7h56c0.4,0,0.7,0.3,0.7,0.7v20.1"/>
	</g>
	<g>
		<path class="st0" d="M97.7,71.7c0,0.4-0.3,0.7-0.7,0.7H2.6c-0.4,0-0.6-0.3-0.6-0.7V22.2c0-0.4,0.3-0.6,0.6-0.6h94.5
			c0.4,0,0.7,0.3,0.7,0.6V71.7z"/>
	</g>
	<g>
		<path class="st0" d="M20.9,59.9v37.7c0,0.4,0.3,0.7,0.6,0.7H78c0.4,0,0.7-0.3,0.7-0.7V59.9"/>
	</g>
	<g>
		<g>
			<path class="st1" d="M13.7,64.6c24.1,0,48.2,0,72.3,0c6.4,0,6.4-10,0-10c-24.1,0-48.2,0-72.3,0C7.2,54.6,7.2,64.6,13.7,64.6
				L13.7,64.6z"/>
		</g>
	</g>
	<g>
		<g>
			<path class="st1" d="M33.5,90.2c11.1,0,22.3,0,33.4,0c6.4,0,6.4-10,0-10c-11.1,0-22.3,0-33.4,0C27,80.2,27,90.2,33.5,90.2
				L33.5,90.2z"/>
		</g>
	</g>
	<circle class="st1" cx="78.9" cy="40.6" r="3.5"/>
</g>
</svg>
