<?xml version="1.0" encoding="UTF-8" standalone="no"?>
<svg width="100%" height="100%" viewBox="0 0 21 21" version="1.1" xmlns="http://www.w3.org/2000/svg" xmlns:xlink="http://www.w3.org/1999/xlink" xml:space="preserve" xmlns:serif="http://www.serif.com/" fill="#e1ddd4">
    <g transform="matrix(0.823124,0,0,0.823124,-174.058,-59.5906)">
        <g transform="matrix(0,-1,-1,0,222.151,73.7501)">
            <path d="M0.803,-0.033C0.79,-2.907 -0.476,-5.742 -2.619,-7.667C-4.003,-8.91 -5.727,-9.769 -7.551,-10.119C-12.166,-11.004 -17.239,-8.381 -19.065,-3.835C-20.482,-0.308 -19.77,3.983 -17.167,6.881C-14.806,9.509 -11.031,10.786 -7.551,10.119C-4.392,9.513 -1.573,7.33 -0.187,4.41C0.47,3.027 0.806,1.494 0.803,-0.033ZM-0.804,0.028C-0.819,3.291 -2.843,6.49 -5.827,7.884C-8.323,9.05 -11.38,8.932 -13.781,7.57C-16.893,5.805 -18.722,2.028 -18.051,-1.593C-17.452,-4.821 -14.874,-7.598 -11.673,-8.423C-8.367,-9.274 -4.618,-7.99 -2.532,-5.201C-1.424,-3.72 -0.813,-1.893 -0.804,-0.028C-0.804,-0.009 -0.804,0.009 -0.804,0.028Z"/>
        </g>
        <g transform="matrix(-0.630906,0.775859,0.775859,0.630906,228.483,94.0977)">
            <rect x="-5.483" y="-2.609" width="2.642" height="8.581"/>
        </g>
    </g>
</svg>
