<?xml version="1.0" encoding="utf-8"?>
<!-- Generator: Adobe Illustrator 24.3.0, SVG Export Plug-In . SVG Version: 6.00 Build 0)  -->
<svg version="1.1" id="Layer_1" xmlns="http://www.w3.org/2000/svg" xmlns:xlink="http://www.w3.org/1999/xlink" x="0px" y="0px"
	 viewBox="0 0 26.4 26.4" style="enable-background:new 0 0 26.4 26.4;" xml:space="preserve">
<style type="text/css">
	.st0{fill:#FFFFFF;}
</style>
<g>
	<path class="st0" d="M21.1,24.4H5.1c-1.8,0-3.2-1.4-3.2-3.2V5.3c0-1.8,1.4-3.2,3.2-3.2h15.9c1.8,0,3.2,1.4,3.2,3.2v15.9
		C24.3,23,22.9,24.4,21.1,24.4z M5.1,2.8c-1.3,0-2.4,1.1-2.4,2.4v15.9c0,1.3,1.1,2.4,2.4,2.4h15.9c1.3,0,2.4-1.1,2.4-2.4V5.3
		c0-1.3-1.1-2.4-2.4-2.4H5.1z"/>
	<path class="st0" d="M12.4,20.6c-0.1,0-0.3,0-0.4,0c-0.8-0.2-1.2-1-1-1.7c0.3-1.1,0.9-2.9,1.4-4.7c0.3-0.8,0.5-1.6,0.7-2.3
		c0.1-0.4,0-0.8-0.3-0.9c-0.3-0.1-0.8,0.1-1,0.7L11,11.4c0.3-1,1.3-1.4,2-1.2c0.6,0.2,1.1,0.9,0.8,1.9c-0.2,0.7-0.5,1.5-0.7,2.3
		c-0.6,1.8-1.1,3.6-1.4,4.6c-0.1,0.3,0.2,0.6,0.5,0.7c0.4,0.1,1-0.2,1.4-1.4l0.8,0.2C13.9,20.1,13.1,20.6,12.4,20.6z"/>
	<circle class="st0" cx="14.4" cy="7.2" r="1.1"/>
</g>
</svg>
