<?xml version="1.0" encoding="UTF-8" standalone="no"?>
<svg width="61px" height="75px" viewBox="0 0 61 75" version="1.1" xmlns="http://www.w3.org/2000/svg" xmlns:xlink="http://www.w3.org/1999/xlink">
    <!-- Generator: Sketch 46.2 (44496) - http://www.bohemiancoding.com/sketch -->
    <title>Group 3</title>
    <desc>Created with Sketch.</desc>
    <defs></defs>
    <g id="Pattern-Library" stroke="none" stroke-width="1" fill="none" fill-rule="evenodd" stroke-linecap="round" stroke-linejoin="round">
        <g id="Icons" transform="translate(-602.000000, -1062.000000)" stroke="#34383C" stroke-width="1.76547003">
            <g id="Group" transform="translate(138.000000, 1063.000000)">
                <g id="Group-3" transform="translate(465.000000, 0.000000)">
                    <g id="Group-395" transform="translate(7.000000, 6.000000)">
                        <path d="M14.5692194,30.6732452 C11.6964452,27.8019548 9.39496129,24.7258903 7.75083226,21.7358903 L0.925025806,28.558729 C1.90289677,32.2194387 3.82302581,35.6813097 6.69134839,38.5511161 L14.5692194,30.6732452 Z" id="Stroke-363"></path>
                        <path d="M7.74979355,21.7358903 C4.3992129,15.6653742 3.77153548,9.95247097 6.69179355,7.03666452 C0.855729032,12.8667935 -1.05994839,21.1275032 0.922503226,28.558729 L7.74979355,21.7358903 Z" id="Stroke-365"></path>
                        <path d="M21.3929484,8.09273548 C15.3224323,4.74660645 9.60804516,4.1204129 6.69075484,7.03473548 C12.5253355,1.20312258 20.7815935,-0.71403871 28.2128194,1.26692903 L21.3929484,8.09273548 Z" id="Stroke-367"></path>
                        <path d="M14.5692194,14.9157226 L6.69134839,7.03636774 C3.77405806,9.95217419 4.40173548,15.6665613 7.74934839,21.7355935 L14.5692194,14.9157226 Z" id="Stroke-369"></path>
                        <path d="M22.4479806,22.7952258 L14.5686258,14.9143871 L7.75023871,21.7357419 C9.39733548,24.7242581 11.7003032,27.8003226 14.5686258,30.6730968 L22.4479806,22.7952258 Z" id="Stroke-371"></path>
                        <path d="M22.4479806,22.7952258 L14.5686258,14.9143871 L21.3929484,8.09303226 C24.3814645,9.74012903 27.4560452,12.0445806 30.3273355,14.9143871 L22.4479806,22.7952258 Z" id="Stroke-373"></path>
                        <path d="M38.2083226,7.03562581 C35.3355484,4.16433548 31.8736774,2.24569032 28.2144516,1.26781935 L21.3930968,8.09214194 C24.3830968,9.73923871 27.4576774,12.0436903 30.326,14.9149806 L38.2083226,7.03562581 Z" id="Stroke-375"></path>
                        <path d="M14.5692194,14.9157226 L21.3920581,8.09436774 C15.3215419,4.74675484 9.60863871,4.12056129 6.69134839,7.03636774 L14.5692194,14.9157226 Z" id="Stroke-377"></path>
                        <path d="M30.3267419,14.9157226 C33.1965484,17.7884968 35.501,20.8615935 37.1495806,23.8530774 L43.9724194,17.0287548 C42.9960323,13.3680452 41.0759032,9.90765806 38.2075806,7.03636774 L30.3267419,14.9157226 Z" id="Stroke-379"></path>
                        <path d="M37.150471,23.8523355 C40.4966,29.9213677 41.1257613,35.6387226 38.208471,38.5515613 C44.0430516,32.7199484 45.9572452,24.4636903 43.9747935,17.0280129 L37.150471,23.8523355 Z" id="Stroke-381"></path>
                        <path d="M23.5071677,37.4954903 C29.5776839,40.8431032 35.2876194,41.4692968 38.2078774,38.5549742 C32.3747806,44.3851032 24.1170387,46.3037484 16.6813613,44.3198129 L23.5071677,37.4954903 Z" id="Stroke-383"></path>
                        <path d="M30.3280774,30.6732452 L38.2089161,38.5526 C41.1247226,35.6382774 40.4970452,29.9209226 37.1494323,23.8518903 L30.3280774,30.6732452 Z" id="Stroke-385"></path>
                        <path d="M22.4494645,22.793 L30.3288194,30.6723548 L37.1486903,23.851 C35.5015935,20.861 33.1956581,17.7864194 30.3258516,14.915129 L22.4494645,22.793 Z" id="Stroke-387"></path>
                        <path d="M22.4494645,22.793 L30.3288194,30.6723548 L23.5074645,37.4951935 C20.5174645,35.8466129 17.4414,33.545129 14.5686258,30.6723548 L22.4494645,22.793 Z" id="Stroke-389"></path>
                        <path d="M6.69045806,38.5520065 C9.56323226,41.4247806 13.0236194,43.3419419 16.6813613,44.3198129 L23.5056839,37.4954903 C20.5156839,35.8498774 17.4396194,33.5454258 14.5698129,30.6741355 L6.69045806,38.5520065 Z" id="Stroke-391"></path>
                        <path d="M30.3280774,30.6732452 L23.5067226,37.4946 C29.5772387,40.8422129 35.2886581,41.4684065 38.2089161,38.5540839 L30.3280774,30.6732452 Z" id="Stroke-393"></path>
                    </g>
                    <path d="M53,6 L45,14 L53,6 Z" id="Stroke-396"></path>
                    <path d="M6,54 L14,46 L6,54 Z" id="Stroke-397"></path>
                    <g id="Group-404">
                        <path d="M58.98645,3.6557833 C58.98645,5.53785077 57.47145,7.06042219 55.60395,7.06042219 C53.74245,7.06042219 52.22895,5.53785077 52.22895,3.6557833 C52.22895,1.77824731 53.74245,0.252654904 55.60395,0.252654904 C57.47145,0.252654904 58.98645,1.77824731 58.98645,3.6557833 Z" id="Stroke-398"></path>
                        <path d="M3.80295,52.4235347 C5.66895,52.4235347 7.18095,53.9476166 7.18095,55.8266631 C7.18095,57.7041991 5.66895,59.2267705 3.80295,59.2267705 C1.93845,59.2267705 0.42345,57.7041991 0.42345,55.8266631 C0.42345,53.9476166 1.93845,52.4235347 3.80295,52.4235347 Z" id="Stroke-400"></path>
                        <path d="M47.72475,72.832789 C47.72475,69.0746961 44.69925,66.0295532 40.96725,66.0295532 L18.44475,66.0295532 C14.71125,66.0295532 11.68575,69.0746961 11.68575,72.832789 L47.72475,72.832789 Z" id="Stroke-402"></path>
                    </g>
                    <path d="M41.0368637,2 C44.4692769,3.42252991 47.6869779,5.52202899 50.4752544,8.31191732 C61.8415819,19.6772454 61.8415819,38.1075072 50.4752544,49.4743264 C39.108927,60.8426367 20.6809537,60.8411456 9.31462634,49.4743264 L9.31462634,49.4787998 C6.5218766,46.6874203 4.42097731,43.4695801 3,40.0340362 C4.42097731,43.4695801 6.52336766,46.6874203 9.31462634,49.4787998 L9.31462634,49.4743264 C20.6809537,60.8411456 39.108927,60.8426367 50.4752544,49.4743264 C61.8415819,38.1075072 61.8415819,19.6772454 50.4752544,8.31191732 C47.6869779,5.52202899 44.4692769,3.42252991 41.0368637,2 Z" id="Stroke-360"></path>
                    <path d="M29,60 L29,67 L29,60 Z" id="Stroke-362"></path>
                </g>
            </g>
        </g>
    </g>
</svg>