<?xml version="1.0" encoding="UTF-8" standalone="no"?>
<svg width="29px" height="29px" viewBox="0 0 29 29" version="1.1" xmlns="http://www.w3.org/2000/svg" xmlns:xlink="http://www.w3.org/1999/xlink">
    <!-- Generator: Sketch 46.2 (44496) - http://www.bohemiancoding.com/sketch -->
    <title>Twitter</title>
    <desc>Created with Sketch.</desc>
    <defs></defs>
    <g id="Pattern-Library" stroke="none" stroke-width="1" fill="none" fill-rule="evenodd">
        <g id="Component1" transform="translate(-313.000000, -5938.000000)">
            <g id="Group-4" transform="translate(272.000000, 5938.000000)">
                <g id="Twitter" transform="translate(41.000000, 0.000000)">
                    <circle id="Oval-2" fill="#4EB1FA" cx="14.5" cy="14.5" r="14.5"></circle>
                    <path d="M20.6139441,11.0795272 C21.2457647,10.6910723 21.7315892,10.0766331 21.9594317,9.34367258 C21.3688108,9.703206 20.7143164,9.9646333 20.0169634,10.105271 C19.4584173,9.49508492 18.662904,9.11428571 17.7827792,9.11428571 C16.0930391,9.11428571 14.7229422,10.5192448 14.7229422,12.2516969 C14.7229422,12.4983799 14.7503165,12.7371237 14.8020235,12.9665106 C12.2592564,12.836364 10.0048871,11.587354 8.49515369,9.68817818 C8.23191813,10.1523392 8.0812213,10.6910723 8.0812213,11.2660989 C8.0812213,12.3543397 8.62096481,13.3152693 9.44191691,13.8775365 C8.940608,13.861658 8.46916195,13.7196026 8.05633558,13.485112 L8.05633558,13.5245246 C8.05633558,15.0446024 9.1112134,16.3128934 10.5103436,16.6012574 C10.2540208,16.6727104 9.98276646,16.7118394 9.70404644,16.7118394 C9.5077258,16.7118394 9.31499976,16.6917078 9.1286334,16.6548471 C9.5179566,17.9015888 10.6480446,18.8083616 11.9866196,18.8344476 C10.940037,19.6757218 9.62109406,20.1775942 8.18629432,20.1775942 C7.93992573,20.1775942 7.69632223,20.1619993 7.45714286,20.1336449 C8.81092577,21.0231215 10.4193725,21.5428571 12.1481002,21.5428571 C17.776143,21.5428571 20.8536764,16.7623102 20.8536764,12.615767 C20.8536764,12.4799495 20.8500818,12.3446992 20.8451047,12.2091653 C21.4418088,11.7674042 21.9602613,11.2147775 22.3714286,10.5853105 C21.8225603,10.8351125 21.2324923,11.003821 20.6139441,11.0795272 Z" id="Fill-1" fill="#F4F3F1"></path>
                </g>
            </g>
        </g>
    </g>
</svg>